<svg width="32" height="32" viewBox="0 0 32 32" fill="none" xmlns="http://www.w3.org/2000/svg">
<path d="M8.01867 26C6.90356 26 6 26.9052 6 28.02C6 29.135 6.90372 30.0387 8.01867 30.0387C9.13347 30.0387 10.0387 29.1351 10.0387 28.02C10.0387 26.905 9.13362 26 8.01867 26Z" fill="#ED313E"/>
<path d="M23.022 26C21.907 26 21.002 26.905 21.002 28.02C21.002 29.1351 21.9072 30.0387 23.022 30.0387C24.1368 30.0387 25.042 29.1351 25.042 28.02C25.042 26.905 24.1369 26 23.022 26Z" fill="#ED313E"/>
<path fill-rule="evenodd" clip-rule="evenodd" d="M2.1707 4.01481L2.03544 4.00067C1.5432 3.98267 1.10115 4.33078 1.01481 4.82962L1.00067 4.96489C0.982672 5.45713 1.33078 5.89918 1.82962 5.98551L3.84163 6.3335L5.061 20.8611L5.08624 21.0795C5.33157 22.7361 6.75643 23.9815 8.4535 23.9815H23.0028L23.222 23.9745C24.8171 23.8727 26.1397 22.6664 26.3724 21.0639L27.6379 12.3194L27.6597 12.1185C27.7761 10.5198 26.5096 9.13216 24.8788 9.13216H6.08296L5.76999 5.39652L5.74641 5.24871C5.65515 4.86429 5.34264 4.5638 4.94404 4.49481L2.1707 4.01481ZM8.10957 21.9915C7.42934 21.9182 6.88534 21.3805 6.82724 20.695L6 11H25.1884L25.3094 11.0088C25.7431 11.0722 26.0564 11.4714 25.9915 11.9134L24.6881 20.7787L24.6554 20.9372C24.4901 21.5571 23.9195 22 23.2559 22H8.26881L8.10957 21.9915Z" fill="#CBCBCB"/>
<path d="M21.6973 14C22.2496 14 22.6973 14.4477 22.6973 15C22.6973 15.5063 22.3211 15.9247 21.833 15.9909L21.6973 16H18C17.4477 16 17 15.5523 17 15C17 14.4937 17.3762 14.0753 17.8643 14.0091L18 14H21.6973Z" fill="#ED313E"/>
</svg>
