<svg width="32" height="32" viewBox="0 0 32 32" fill="none" xmlns="http://www.w3.org/2000/svg">
<path d="M22.112 3H10.5533C6.02323 3 3 6.24346 3 10.888V21.7787C3 26.4281 6.01426 29.6667 10.5533 29.6667H22.1107C26.6502 29.6667 29.6667 26.4276 29.6667 21.7787V10.888C29.6667 6.23934 26.6504 3 22.112 3Z" stroke="#CBCBCB" stroke-width="1.5"/>
<path d="M15.333 10.5117C15.8393 10.5117 16.2577 10.8879 16.3239 11.376L16.333 11.5117L16.3326 16.7575L20.3667 19.1649C20.8014 19.4243 20.968 19.9617 20.7748 20.4148L20.7131 20.5361C20.4538 20.9708 19.9163 21.1374 19.4632 20.9442L19.342 20.8825L14.8207 18.1852C14.5614 18.0305 14.3883 17.7688 14.3442 17.4754L14.333 17.3264V11.5117C14.333 10.9594 14.7807 10.5117 15.333 10.5117Z" fill="#ED313E"/>
</svg>
