<svg width="32" height="32" viewBox="0 0 32 32" fill="none" xmlns="http://www.w3.org/2000/svg">
<path fill-rule="evenodd" clip-rule="evenodd" d="M4.67219 13.6545C4.87281 7.53449 9.89238 2.6452 16.0377 2.66608L16.378 2.67227C22.4791 2.87358 27.3534 7.90858 27.3326 14.0695L27.3324 14.206C27.263 17.881 25.4242 21.4996 22.3733 24.7291C20.8727 26.2922 19.1974 27.6765 17.3807 28.8547L17.3138 28.9097C16.529 29.4736 15.4695 29.4736 14.6847 28.9097L14.6043 28.8466L14.053 28.4755C11.7635 26.8971 9.72442 24.9822 8.00858 22.8005L7.58639 22.2495C5.78878 19.8936 4.76816 17.0341 4.66602 14.0344L4.67219 13.6545ZM25.3113 13.745C25.1594 8.73205 21.069 4.70668 16.031 4.68945L15.7107 4.69378C10.7132 4.84614 6.70022 8.94912 6.68311 13.9993L6.70856 14.4753C6.88177 16.8494 7.74234 19.1251 9.19458 21.0285C10.9975 23.4436 13.2101 25.5216 15.731 27.1675L15.8406 27.2502C15.9317 27.3293 16.0669 27.3293 16.1581 27.2502L16.2708 27.1654C17.9631 26.0696 19.5233 24.7812 20.9149 23.3317C23.644 20.4428 25.2573 17.2681 25.3156 14.187L25.3113 13.745Z" fill="#CBCBCB"/>
<path fill-rule="evenodd" clip-rule="evenodd" d="M11.6816 14.2C11.6816 11.8081 13.6147 9.86914 15.9992 9.86914C18.3837 9.86914 20.3168 11.8081 20.3168 14.2C20.3168 16.5919 18.3837 18.5309 15.9992 18.5309C13.6147 18.5309 11.6816 16.5919 11.6816 14.2ZM18.2998 14.2002C18.2998 12.9258 17.2698 11.8926 15.9993 11.8926C14.7287 11.8926 13.6987 12.9258 13.6987 14.2002C13.6987 15.4747 14.7287 16.5079 15.9993 16.5079C17.2698 16.5079 18.2998 15.4747 18.2998 14.2002Z" fill="#ED313E"/>
</svg>
