<svg width="32" height="32" viewBox="0 0 32 32" fill="none" xmlns="http://www.w3.org/2000/svg">
<path fill-rule="evenodd" clip-rule="evenodd" d="M3.98676 6.49867C4.40853 5.79898 6.73374 3.25901 8.39069 3.33568C8.88641 3.37813 9.32461 3.67663 9.68065 4.02442H9.68202C10.4982 4.82407 12.8398 7.84191 12.9713 8.47725C13.2958 10.0355 11.4376 10.9337 12.0059 12.5042C13.4547 16.0492 15.9511 18.5454 19.4978 19.9927C21.0671 20.5623 21.9654 18.7056 23.5238 19.0287C24.1591 19.1616 27.1786 21.5016 27.977 22.3191V22.3191C28.3234 22.6737 28.6247 23.1132 28.6658 23.6089C28.7274 25.3547 26.0297 27.7112 25.5039 28.0124C24.2632 28.9011 22.6446 28.8847 20.6713 27.9673C15.165 25.6765 6.36538 17.0433 4.03195 11.3294C3.13911 9.36726 3.07886 7.73785 3.98676 6.49867Z" stroke="#CBCBCB" stroke-width="1.5" stroke-linecap="round" stroke-linejoin="round"/>
<path d="M19.4209 3.66797C24.3569 4.21597 28.2542 8.1093 28.8089 13.044" stroke="#ED313E" stroke-width="1.5" stroke-linecap="round" stroke-linejoin="round"/>
<path d="M19.4209 8.39062C21.7809 8.85063 23.6249 10.6946 24.0849 13.0546" stroke="#ED313E" stroke-width="1.5" stroke-linecap="round" stroke-linejoin="round"/>
</svg>
