<svg width="264" height="264" viewBox="0 0 264 264" fill="none" xmlns="http://www.w3.org/2000/svg">
<circle cx="132" cy="132" r="132" fill="white"/>
<circle cx="132" cy="132" r="132" fill="url(#paint0_linear)"/>
<circle cx="132" cy="132" r="124" fill="#2F2F2F"/>
<path fill-rule="evenodd" clip-rule="evenodd" d="M124.279 161.305C116.382 161.133 116.164 147.743 116.554 141.894C115.501 141.231 107.661 126.215 107.821 123.548C104.765 113.099 106.539 98.415 117.996 95.302C123.329 93.86 127.232 95.9658 132.176 96.4122C131.73 96.0803 132.233 96.2977 131.283 95.8514C118.774 90.9529 107.707 93.7913 104.205 108.361C101.698 118.592 104.811 129.82 110.431 138.495C111.209 139.663 112.319 140.498 112.433 142.112C112.765 148.166 111.541 163.239 121.555 165.574C129.12 167.302 126.339 156.349 127.953 145.786C130.345 130.049 153.589 116.59 143.358 123.102C118.614 138.953 128.674 156.361 124.279 161.305Z" fill="white"/>
<path fill-rule="evenodd" clip-rule="evenodd" d="M161.43 128.16L161.762 127.164C164.761 116.99 165.321 107.753 159.427 99.8107C153.03 91.2384 138.632 92.6919 133.241 96.526C138.964 95.9652 149.928 92.7492 155.765 100.532C161.934 108.703 160.274 118.042 156.715 127.45C155.433 130.735 154.266 133.848 152.377 136.961C151.324 138.689 150.432 139.525 150.432 141.802C150.489 148.589 149.321 161.316 142.145 160.881C139.868 156.818 142.145 139.753 133.859 140.36C139.982 140.532 138.311 154.815 138.311 157.093C138.369 160.434 139.09 163.822 142.031 164.211C151.645 165.436 154.54 151.759 154.872 143.805C155.101 139.25 158.489 136.297 159.988 132.291C160.537 130.838 160.755 129.556 161.43 128.16Z" fill="#E5E6E7"/>
<path fill-rule="evenodd" clip-rule="evenodd" d="M88.9829 169.921C81.4178 160.525 75.1345 155.352 70.0758 139.34C57.784 100.084 86.362 55.5978 131.844 55.5406C182.213 55.4834 214.019 110.923 185.944 155.913C181.881 162.413 178.322 165.309 174.705 170.036C192.777 157.526 207.953 124.668 195.386 93.6408C171.821 35.3632 91.3176 36.6908 68.5765 92.9656C57.4521 120.433 67.5122 156.805 88.9829 169.921Z" fill="white"/>
<path d="M139.566 172.539C139.396 173.283 139.03 173.907 138.468 174.411C136.903 175.812 133.329 178.214 127.745 181.618C122.161 185.017 118.877 187.082 117.893 187.814C116.908 188.547 116.097 189.256 115.458 189.941C114.825 190.627 114.441 190.946 114.307 190.899C114.178 190.847 114.441 190.331 115.098 189.353C115.76 188.368 116.791 187.334 118.191 186.25C119.598 185.16 123.137 182.957 128.809 179.641C134.48 176.318 137.832 174.124 138.863 173.058C139.279 172.624 139.505 172.407 139.54 172.407C139.581 172.407 139.59 172.451 139.566 172.539ZM119.633 191.163L119.677 191.11C119.63 191.761 119.606 192.244 119.606 192.561C119.554 192.771 119.501 192.994 119.448 193.229C119.396 193.434 119.308 193.68 119.185 193.967C119.062 194.242 118.93 194.436 118.789 194.547C118.648 194.688 118.54 194.723 118.464 194.652C118.464 194.488 118.47 194.324 118.481 194.16C118.493 193.744 118.426 193.562 118.279 193.615C118.139 193.662 117.992 193.788 117.84 193.993C115.871 196.823 112.004 198.297 106.238 198.414C104.65 198.414 103.394 198.218 102.468 197.825C101.548 197.433 101.088 197.061 101.088 196.709C101.088 196.539 101.234 196.419 101.527 196.349C101.82 196.278 102.362 196.275 103.153 196.34C103.95 196.404 104.504 196.437 104.814 196.437C111.623 196.437 116.305 194.854 118.859 191.69C119.246 191.233 119.475 191.008 119.545 191.014C119.598 191.02 119.627 191.069 119.633 191.163ZM124.027 194.986C123.764 194.939 123.564 194.939 123.43 194.986C123.072 195.127 122.668 195.543 122.217 196.234C121.654 197.078 121.068 197.5 120.459 197.5C119.809 197.494 119.316 197.213 118.982 196.656C118.648 196.094 118.481 195.423 118.481 194.644C118.634 194.134 118.801 193.691 118.982 193.316C119.158 192.941 119.369 192.684 119.615 192.543C119.592 193.961 120.169 194.67 121.347 194.67C121.827 194.676 122.243 194.526 122.595 194.222C122.952 193.911 123.216 193.674 123.386 193.51C123.626 193.34 123.84 193.258 124.027 193.264C124.156 193.398 124.224 193.668 124.229 194.072C124.235 194.471 124.168 194.775 124.027 194.986ZM124.396 204.602C124.443 204.766 124.44 204.936 124.388 205.111C124.341 205.287 124.256 205.469 124.133 205.656C124.033 205.809 123.931 205.949 123.825 206.078C123.726 206.213 123.614 206.339 123.491 206.456C123.415 206.538 123.348 206.597 123.289 206.632C123.23 206.667 123.181 206.688 123.14 206.693C123.099 206.705 123.063 206.705 123.034 206.693C123.005 206.682 122.979 206.667 122.955 206.649C122.75 206.485 122.548 206.318 122.349 206.148C122.155 205.984 121.941 205.829 121.707 205.683C121.678 205.642 121.663 205.609 121.663 205.586C121.663 205.568 121.678 205.536 121.707 205.489L123.043 203.433C123.084 203.38 123.122 203.354 123.157 203.354C123.198 203.359 123.242 203.377 123.289 203.406C123.406 203.477 123.523 203.55 123.641 203.626C123.764 203.708 123.875 203.799 123.975 203.898C124.074 203.998 124.162 204.104 124.238 204.215C124.314 204.332 124.367 204.461 124.396 204.602ZM121.707 204.769C121.707 204.792 121.71 204.81 121.716 204.821C121.716 204.839 121.719 204.854 121.725 204.865C121.725 204.877 121.725 204.889 121.725 204.9C121.73 204.918 121.733 204.933 121.733 204.944V205.067C121.733 205.079 121.73 205.091 121.725 205.103C121.725 205.12 121.725 205.135 121.725 205.146L121.698 205.252C121.698 205.264 121.695 205.272 121.689 205.278C121.689 205.284 121.689 205.293 121.689 205.305L121.654 205.41C121.643 205.434 121.631 205.457 121.619 205.48C121.613 205.504 121.604 205.527 121.593 205.551C121.593 205.557 121.59 205.56 121.584 205.56C121.584 205.565 121.584 205.571 121.584 205.577L121.54 205.656C121.528 205.686 121.514 205.709 121.496 205.727C121.479 205.75 121.464 205.773 121.452 205.797C121.44 205.809 121.435 205.817 121.435 205.823L121.329 205.981L121.285 206.043C121.273 206.055 121.262 206.069 121.25 206.087C121.244 206.104 121.235 206.119 121.224 206.131C121.2 206.166 121.18 206.192 121.162 206.21L121.021 206.386C121.01 206.397 121.004 206.406 121.004 206.412C120.992 206.424 120.978 206.438 120.96 206.456C120.948 206.474 120.934 206.488 120.916 206.5L120.863 206.553C120.846 206.582 120.822 206.605 120.793 206.623L120.705 206.711L120.661 206.746C120.597 206.799 120.541 206.834 120.494 206.852L120.441 206.869H120.38C120.333 206.869 120.292 206.852 120.257 206.816C120.128 206.717 120.002 206.614 119.879 206.509C119.762 206.403 119.636 206.301 119.501 206.201C119.46 206.166 119.419 206.134 119.378 206.104C119.255 206.011 119.135 205.926 119.018 205.85C119.012 205.85 119.009 205.847 119.009 205.841C118.979 205.812 118.965 205.785 118.965 205.762C118.965 205.738 118.979 205.703 119.009 205.656L120.354 203.608C120.354 203.603 120.356 203.597 120.362 203.591C120.403 203.538 120.447 203.518 120.494 203.529C120.494 203.529 120.5 203.532 120.512 203.538C120.518 203.538 120.523 203.541 120.529 203.547L120.591 203.573C120.603 203.585 120.614 203.591 120.626 203.591C120.638 203.597 120.649 203.605 120.661 203.617C120.673 203.623 120.685 203.629 120.696 203.635C120.708 203.641 120.72 203.649 120.731 203.661C120.755 203.673 120.778 203.688 120.802 203.705C120.837 203.729 120.872 203.749 120.907 203.767C120.942 203.79 120.978 203.816 121.013 203.846L121.048 203.872C121.101 203.913 121.15 203.954 121.197 203.995C121.244 204.036 121.291 204.08 121.338 204.127L121.443 204.25L121.522 204.355C121.563 204.414 121.596 204.473 121.619 204.531C121.631 204.549 121.643 204.575 121.654 204.61L121.681 204.689C121.687 204.695 121.689 204.701 121.689 204.707C121.689 204.713 121.692 204.722 121.698 204.733C121.698 204.751 121.701 204.763 121.707 204.769ZM126.532 197.861C126.579 197.797 126.617 197.771 126.646 197.782C126.682 197.794 126.699 197.82 126.699 197.861C126.67 198.166 126.702 198.43 126.796 198.652C126.896 198.869 127.039 199.027 127.227 199.127C127.314 199.326 127.376 199.537 127.411 199.76C127.446 199.977 127.461 200.193 127.455 200.41C127.455 200.621 127.435 200.823 127.394 201.017C127.353 201.204 127.297 201.365 127.227 201.5C126.963 201.553 126.673 201.512 126.356 201.377C126.286 201.389 125.996 201.62 125.486 202.071C124.982 202.522 124.496 202.698 124.027 202.599C123.969 202.47 123.922 202.332 123.887 202.186C123.852 202.039 123.831 201.89 123.825 201.737C123.819 201.591 123.831 201.444 123.86 201.298C123.89 201.151 123.945 201.011 124.027 200.876C124.191 200.876 124.417 200.955 124.704 201.113C124.997 201.266 125.223 201.327 125.381 201.298C125.51 201.274 125.618 201.225 125.706 201.148C125.794 201.066 125.861 200.984 125.908 200.902C125.65 199.994 125.794 199.077 126.339 198.151L126.532 197.861ZM127.253 191.085C127.3 191.255 127.297 191.431 127.244 191.612C127.197 191.794 127.106 191.984 126.972 192.184C126.89 192.318 126.802 192.441 126.708 192.553C126.62 192.658 126.526 192.761 126.427 192.86C126.397 192.896 126.351 192.939 126.286 192.992C126.222 193.045 126.154 193.095 126.084 193.142C126.014 193.188 125.946 193.224 125.882 193.247C125.817 193.265 125.771 193.256 125.741 193.221C125.53 193.051 125.322 192.878 125.117 192.702C124.912 192.526 124.687 192.362 124.44 192.21C124.399 192.181 124.379 192.154 124.379 192.131C124.385 192.102 124.402 192.061 124.432 192.008L125.838 189.863C125.879 189.805 125.92 189.778 125.961 189.784C126.002 189.784 126.046 189.799 126.093 189.828C126.216 189.898 126.339 189.978 126.462 190.065C126.585 190.153 126.699 190.25 126.805 190.355C126.91 190.455 127.001 190.566 127.077 190.689C127.159 190.807 127.218 190.938 127.253 191.085ZM129.846 203.5C129.617 203.43 129.441 203.406 129.318 203.43C129.195 203.453 129.084 203.538 128.984 203.685C128.885 203.837 128.747 204.036 128.571 204.282C128.401 204.534 128.217 204.742 128.018 204.906C127.777 205.094 127.514 205.199 127.227 205.223C127.109 205.152 127.019 205.026 126.954 204.845C126.89 204.669 126.857 204.467 126.857 204.238C126.852 204.01 126.881 203.772 126.945 203.526C127.004 203.28 127.098 203.055 127.227 202.85C127.543 202.973 127.836 203.022 128.105 202.999C128.381 202.976 128.609 202.888 128.791 202.735C128.973 202.583 129.148 202.387 129.318 202.146C129.494 201.906 129.67 201.783 129.846 201.777C129.957 201.906 130.036 202.05 130.083 202.208C130.13 202.36 130.15 202.516 130.145 202.674C130.139 202.832 130.109 202.984 130.057 203.131C130.004 203.271 129.934 203.395 129.846 203.5ZM131.753 214.706C131.8 214.87 131.797 215.04 131.744 215.216C131.697 215.392 131.612 215.573 131.489 215.761C131.39 215.913 131.287 216.054 131.182 216.183C131.082 216.317 130.971 216.443 130.848 216.561C130.771 216.643 130.704 216.701 130.646 216.736C130.587 216.771 130.537 216.792 130.496 216.798C130.455 216.81 130.42 216.81 130.391 216.798C130.361 216.786 130.335 216.771 130.312 216.754C130.106 216.59 129.904 216.423 129.705 216.253C129.512 216.089 129.298 215.934 129.063 215.787C129.034 215.746 129.02 215.714 129.02 215.69C129.02 215.673 129.034 215.641 129.063 215.594L130.399 213.537C130.44 213.484 130.479 213.458 130.514 213.458C130.555 213.464 130.599 213.481 130.646 213.511C130.763 213.581 130.88 213.654 130.997 213.73C131.12 213.812 131.231 213.903 131.331 214.003C131.431 214.103 131.519 214.208 131.595 214.319C131.671 214.437 131.724 214.565 131.753 214.706ZM129.063 214.873C129.063 214.896 129.066 214.914 129.072 214.926C129.072 214.943 129.075 214.958 129.081 214.97C129.081 214.981 129.081 214.993 129.081 215.005C129.087 215.022 129.09 215.037 129.09 215.049V215.172C129.09 215.184 129.087 215.195 129.081 215.207C129.081 215.225 129.081 215.239 129.081 215.251L129.055 215.356C129.055 215.368 129.052 215.377 129.046 215.383C129.046 215.389 129.046 215.397 129.046 215.409L129.011 215.515C128.999 215.538 128.987 215.562 128.976 215.585C128.97 215.608 128.961 215.632 128.949 215.655C128.949 215.661 128.946 215.664 128.94 215.664C128.94 215.67 128.94 215.676 128.94 215.682L128.896 215.761C128.885 215.79 128.87 215.813 128.853 215.831C128.835 215.854 128.82 215.878 128.809 215.901C128.797 215.913 128.791 215.922 128.791 215.928L128.686 216.086L128.642 216.147C128.63 216.159 128.618 216.174 128.606 216.191C128.601 216.209 128.592 216.224 128.58 216.235C128.557 216.271 128.536 216.297 128.519 216.314L128.378 216.49C128.366 216.502 128.36 216.511 128.36 216.517C128.349 216.528 128.334 216.543 128.316 216.561C128.305 216.578 128.29 216.593 128.272 216.604L128.22 216.657C128.202 216.687 128.179 216.71 128.149 216.728L128.062 216.815L128.018 216.851C127.953 216.903 127.897 216.938 127.851 216.956L127.798 216.974H127.736C127.689 216.974 127.648 216.956 127.613 216.921C127.484 216.821 127.358 216.719 127.235 216.613C127.118 216.508 126.992 216.405 126.857 216.306C126.816 216.271 126.775 216.238 126.734 216.209C126.611 216.115 126.491 216.03 126.374 215.954C126.368 215.954 126.365 215.951 126.365 215.945C126.336 215.916 126.321 215.89 126.321 215.866C126.321 215.843 126.336 215.808 126.365 215.761L127.71 213.713C127.71 213.707 127.713 213.701 127.719 213.695C127.76 213.643 127.804 213.622 127.851 213.634C127.851 213.634 127.856 213.637 127.868 213.643C127.874 213.643 127.88 213.646 127.886 213.651L127.947 213.678C127.959 213.689 127.971 213.695 127.982 213.695C127.994 213.701 128.006 213.71 128.018 213.722C128.029 213.728 128.041 213.733 128.053 213.739C128.064 213.745 128.076 213.754 128.088 213.766C128.111 213.777 128.135 213.792 128.158 213.81C128.193 213.833 128.229 213.854 128.264 213.871C128.299 213.895 128.334 213.921 128.369 213.95L128.404 213.977C128.457 214.018 128.507 214.059 128.554 214.1C128.601 214.141 128.647 214.185 128.694 214.231L128.8 214.354L128.879 214.46C128.92 214.519 128.952 214.577 128.976 214.636C128.987 214.653 128.999 214.68 129.011 214.715L129.037 214.794C129.043 214.8 129.046 214.806 129.046 214.812C129.046 214.817 129.049 214.826 129.055 214.838C129.055 214.855 129.058 214.867 129.063 214.873ZM132.438 200.035L132.43 202.197L132.324 204.008C131.926 204.143 131.636 204.312 131.454 204.518L131.006 205.106C130.766 205.399 130.549 205.599 130.355 205.704C130.162 205.81 129.992 205.862 129.846 205.862C129.746 205.716 129.679 205.569 129.644 205.423C129.608 205.282 129.597 205.142 129.608 205.001C129.614 204.86 129.641 204.717 129.688 204.57C129.729 204.43 129.781 204.286 129.846 204.14C130.572 204.321 131.059 204.034 131.305 203.278C131.281 202.769 131.29 202.112 131.331 201.31C131.372 200.507 131.548 199.517 131.858 198.339C132.063 197.759 132.266 197.226 132.465 196.739C132.664 196.253 132.802 195.928 132.878 195.764C132.931 195.664 132.975 195.638 133.01 195.685C133.051 195.726 133.054 195.822 133.019 195.975C132.79 197.217 132.635 198.163 132.553 198.813C132.477 199.458 132.438 199.865 132.438 200.035ZM132.553 197.513C132.939 197.149 133.493 197.009 134.214 197.091C134.94 197.173 135.444 197.305 135.726 197.486C136.177 197.768 136.402 198.251 136.402 198.937C136.402 199.657 136.273 200.404 136.016 201.178C135.734 202.016 135.415 202.707 135.058 203.252C134.794 203.627 134.498 203.929 134.17 204.157C133.83 204.386 133.47 204.5 133.089 204.5C132.491 204.5 132.049 204.251 131.762 203.753C131.463 203.278 131.313 202.575 131.313 201.644C131.343 201.222 131.378 200.835 131.419 200.483C131.46 200.132 131.513 199.766 131.577 199.385C131.665 199.062 131.826 198.702 132.061 198.304C132.166 198.14 132.263 197.99 132.351 197.855C132.433 197.715 132.5 197.601 132.553 197.513ZM135.436 200.721C135.436 200.375 135.266 200.103 134.926 199.903C134.592 199.698 134.249 199.61 133.897 199.64C133.569 199.64 133.247 199.745 132.931 199.956C132.608 200.167 132.447 200.404 132.447 200.668C132.447 201.02 132.579 201.292 132.843 201.485C133.089 201.696 133.405 201.802 133.792 201.802C134.267 201.802 134.662 201.699 134.979 201.494C135.283 201.312 135.436 201.055 135.436 200.721ZM158.437 178.361C158.255 179.105 157.889 179.724 157.338 180.216C155.762 181.634 152.182 184.045 146.598 187.449C141.014 190.848 137.729 192.913 136.745 193.646C135.761 194.378 134.952 195.075 134.319 195.737C133.692 196.394 133.341 196.725 133.265 196.73C133.194 196.736 133.171 196.651 133.194 196.476C133.218 196.294 133.514 195.784 134.082 194.946C134.656 194.103 135.652 193.142 137.07 192.063C138.494 190.979 142.007 188.779 147.608 185.463C153.216 182.146 156.406 180.113 157.18 179.363C157.953 178.613 158.354 178.238 158.384 178.238C158.419 178.238 158.437 178.279 158.437 178.361ZM151.81 183.139C151.687 183.707 151.525 185.424 151.326 188.289C151.109 191.119 150.922 192.895 150.764 193.615C150.512 194.84 150.066 196.085 149.428 197.351C148.795 198.616 147.954 199.691 146.905 200.576C145.856 201.467 144.729 201.912 143.521 201.912C142.314 201.912 141.395 201.578 140.762 200.91C140.135 200.248 139.821 199.36 139.821 198.247C139.821 196.495 140.53 194.617 141.948 192.613C142.03 192.479 142.109 192.408 142.186 192.402C142.268 192.396 142.309 192.44 142.309 192.534C142.309 192.622 142.271 192.719 142.194 192.824C141.368 194.195 140.955 195.361 140.955 196.322C140.955 197.277 141.286 197.995 141.948 198.476C142.616 198.956 143.401 199.19 144.304 199.179C145.681 199.179 146.879 198.771 147.898 197.957C148.924 197.143 149.598 196.062 149.92 194.714C150.014 194.298 150.128 192.815 150.263 190.267C150.403 187.63 150.529 186.004 150.641 185.389C150.758 184.744 151.045 183.936 151.502 182.963C151.742 182.447 151.862 182.351 151.862 182.673C151.862 182.784 151.845 182.939 151.81 183.139ZM153.576 192.534C153.529 193.12 153.397 193.618 153.181 194.028C152.964 194.438 152.718 194.644 152.442 194.644C152.442 194.474 152.442 194.066 152.442 193.422C152.536 192.303 152.753 191.236 153.093 190.223C153.456 189.133 153.758 188.594 153.998 188.605C154.127 188.629 154.133 188.846 154.016 189.256C153.699 190.357 153.541 191.192 153.541 191.761C153.541 191.931 153.553 192.188 153.576 192.534ZM157.988 194.986C157.725 194.939 157.525 194.939 157.391 194.986C157.033 195.127 156.629 195.543 156.178 196.234C155.615 197.078 155.029 197.5 154.42 197.5C153.77 197.494 153.277 197.213 152.943 196.656C152.609 196.094 152.442 195.423 152.442 194.644C152.595 194.134 152.762 193.691 152.943 193.316C153.119 192.941 153.33 192.684 153.576 192.543C153.553 193.961 154.13 194.67 155.308 194.67C155.788 194.676 156.204 194.526 156.556 194.222C156.913 193.911 157.177 193.674 157.347 193.51C157.587 193.34 157.801 193.258 157.988 193.264C158.117 193.398 158.185 193.668 158.19 194.072C158.196 194.471 158.129 194.775 157.988 194.986ZM158.876 182.567C158.923 182.731 158.92 182.901 158.867 183.077C158.82 183.253 158.735 183.435 158.612 183.622C158.513 183.774 158.41 183.918 158.305 184.053C158.205 184.182 158.094 184.305 157.971 184.422C157.895 184.504 157.827 184.562 157.769 184.598C157.71 184.633 157.66 184.656 157.619 184.668C157.578 184.674 157.543 184.671 157.514 184.659C157.484 184.647 157.458 184.633 157.435 184.615C157.229 184.451 157.027 184.287 156.828 184.123C156.635 183.953 156.421 183.795 156.187 183.648C156.157 183.607 156.143 183.578 156.143 183.561C156.143 183.537 156.157 183.502 156.187 183.455L157.522 181.398C157.563 181.346 157.602 181.322 157.637 181.328C157.678 181.328 157.722 181.343 157.769 181.372C157.886 181.442 158.003 181.519 158.12 181.601C158.243 181.677 158.354 181.765 158.454 181.864C158.554 181.964 158.642 182.072 158.718 182.189C158.794 182.301 158.847 182.427 158.876 182.567ZM156.187 182.734C156.187 182.758 156.189 182.775 156.195 182.787C156.195 182.805 156.198 182.819 156.204 182.831C156.204 182.843 156.204 182.857 156.204 182.875C156.21 182.887 156.213 182.898 156.213 182.91V183.033C156.213 183.045 156.21 183.06 156.204 183.077C156.204 183.089 156.204 183.101 156.204 183.112L156.178 183.218C156.178 183.229 156.175 183.238 156.169 183.244C156.169 183.25 156.169 183.259 156.169 183.271L156.134 183.376C156.122 183.399 156.11 183.423 156.099 183.446C156.093 183.47 156.084 183.493 156.072 183.517C156.072 183.522 156.069 183.528 156.063 183.534C156.063 183.534 156.063 183.537 156.063 183.543L156.02 183.622C156.008 183.651 155.993 183.678 155.976 183.701C155.958 183.719 155.943 183.739 155.932 183.763C155.92 183.774 155.914 183.783 155.914 183.789L155.809 183.947L155.765 184.009C155.753 184.021 155.741 184.035 155.729 184.053C155.724 184.07 155.715 184.085 155.703 184.097C155.68 184.132 155.659 184.158 155.642 184.176L155.501 184.352C155.489 184.363 155.483 184.372 155.483 184.378C155.472 184.39 155.457 184.404 155.439 184.422C155.428 184.439 155.413 184.454 155.396 184.466L155.343 184.519C155.325 184.548 155.302 184.571 155.272 184.589L155.185 184.677L155.141 184.712C155.076 184.765 155.021 184.8 154.974 184.817L154.921 184.835H154.859C154.812 184.835 154.771 184.817 154.736 184.782C154.607 184.683 154.481 184.58 154.358 184.475C154.241 184.369 154.115 184.267 153.98 184.167C153.939 184.132 153.898 184.1 153.857 184.07C153.734 183.977 153.614 183.892 153.497 183.815C153.491 183.815 153.488 183.812 153.488 183.807C153.459 183.777 153.444 183.751 153.444 183.728C153.444 183.704 153.459 183.669 153.488 183.622L154.833 181.574C154.833 181.568 154.836 181.562 154.842 181.557C154.883 181.504 154.927 181.483 154.974 181.495C154.974 181.495 154.979 181.498 154.991 181.504C154.997 181.504 155.003 181.507 155.009 181.513L155.07 181.539C155.082 181.551 155.094 181.56 155.105 181.565C155.117 181.565 155.129 181.571 155.141 181.583C155.152 181.589 155.164 181.595 155.176 181.601C155.188 181.606 155.199 181.615 155.211 181.627C155.234 181.639 155.258 181.653 155.281 181.671C155.316 181.694 155.352 181.718 155.387 181.741C155.422 181.759 155.457 181.782 155.492 181.812L155.527 181.838C155.58 181.879 155.63 181.92 155.677 181.961C155.724 182.002 155.771 182.046 155.817 182.093L155.923 182.216L156.002 182.321C156.043 182.38 156.075 182.438 156.099 182.497C156.11 182.515 156.122 182.541 156.134 182.576L156.16 182.655C156.166 182.661 156.169 182.667 156.169 182.673C156.169 182.679 156.172 182.688 156.178 182.699C156.178 182.717 156.181 182.729 156.187 182.734ZM157.988 198.777C158.463 198.977 158.773 198.985 158.92 198.804C158.938 198.786 159.11 198.531 159.438 198.039C159.526 197.898 159.588 197.828 159.623 197.828C159.682 197.828 159.711 197.857 159.711 197.916C159.723 197.986 159.708 198.104 159.667 198.268C159.626 198.432 159.547 198.701 159.43 199.076C159.312 199.445 159.128 199.791 158.876 200.113C158.624 200.436 158.328 200.564 157.988 200.5C157.842 200.184 157.771 199.885 157.777 199.604C157.777 199.322 157.848 199.047 157.988 198.777ZM160.168 191.14C160.215 191.31 160.212 191.485 160.159 191.667C160.112 191.849 160.021 192.039 159.887 192.238C159.805 192.373 159.717 192.496 159.623 192.607C159.535 192.713 159.441 192.815 159.342 192.915C159.312 192.95 159.266 192.994 159.201 193.047C159.137 193.1 159.069 193.149 158.999 193.196C158.929 193.243 158.861 193.278 158.797 193.302C158.732 193.319 158.686 193.311 158.656 193.275C158.445 193.105 158.237 192.933 158.032 192.757C157.827 192.581 157.602 192.417 157.355 192.265C157.314 192.235 157.297 192.209 157.303 192.186C157.303 192.156 157.317 192.115 157.347 192.062L158.753 189.918C158.794 189.859 158.835 189.833 158.876 189.839C158.917 189.839 158.961 189.854 159.008 189.883C159.131 189.953 159.254 190.032 159.377 190.12C159.5 190.208 159.614 190.305 159.72 190.41C159.825 190.51 159.916 190.621 159.992 190.744C160.074 190.861 160.133 190.993 160.168 191.14ZM162.849 190.003C163.616 190.46 164 191.125 164 191.998V192.394C164 193.278 163.587 194.406 162.761 195.777C162.187 196.639 161.41 197.204 160.432 197.474C160.355 197.491 160.265 197.5 160.159 197.5H160.133C160.01 197.5 159.928 197.441 159.887 197.324C159.887 197.049 160.432 196.504 161.521 195.689C162.324 195.039 162.737 194.597 162.761 194.362V194.143C162.761 193.562 162.356 192.988 161.548 192.42C162.233 190.926 162.667 190.12 162.849 190.003Z" fill="white"/>
<path d="M139.566 172.539C139.396 173.283 139.03 173.907 138.468 174.411C136.903 175.812 133.329 178.214 127.745 181.618C122.161 185.017 118.877 187.082 117.893 187.814C116.908 188.547 116.097 189.256 115.458 189.941C114.825 190.627 114.441 190.946 114.307 190.899C114.178 190.847 114.441 190.331 115.098 189.353C115.76 188.368 116.791 187.334 118.191 186.25C119.598 185.16 123.137 182.957 128.809 179.641C134.48 176.318 137.832 174.124 138.863 173.058C139.279 172.624 139.505 172.407 139.54 172.407C139.581 172.407 139.59 172.451 139.566 172.539ZM119.633 191.163L119.677 191.11C119.63 191.761 119.606 192.244 119.606 192.561C119.554 192.771 119.501 192.994 119.448 193.229C119.396 193.434 119.308 193.68 119.185 193.967C119.062 194.242 118.93 194.436 118.789 194.547C118.648 194.688 118.54 194.723 118.464 194.652C118.464 194.488 118.47 194.324 118.481 194.16C118.493 193.744 118.426 193.562 118.279 193.615C118.139 193.662 117.992 193.788 117.84 193.993C115.871 196.823 112.004 198.297 106.238 198.414C104.65 198.414 103.394 198.218 102.468 197.825C101.548 197.433 101.088 197.061 101.088 196.709C101.088 196.539 101.234 196.419 101.527 196.349C101.82 196.278 102.362 196.275 103.153 196.34C103.95 196.404 104.504 196.437 104.814 196.437C111.623 196.437 116.305 194.854 118.859 191.69C119.246 191.233 119.475 191.008 119.545 191.014C119.598 191.02 119.627 191.069 119.633 191.163ZM124.027 194.986C123.764 194.939 123.564 194.939 123.43 194.986C123.072 195.127 122.668 195.543 122.217 196.234C121.654 197.078 121.068 197.5 120.459 197.5C119.809 197.494 119.316 197.213 118.982 196.656C118.648 196.094 118.481 195.423 118.481 194.644C118.634 194.134 118.801 193.691 118.982 193.316C119.158 192.941 119.369 192.684 119.615 192.543C119.592 193.961 120.169 194.67 121.347 194.67C121.827 194.676 122.243 194.526 122.595 194.222C122.952 193.911 123.216 193.674 123.386 193.51C123.626 193.34 123.84 193.258 124.027 193.264C124.156 193.398 124.224 193.668 124.229 194.072C124.235 194.471 124.168 194.775 124.027 194.986ZM124.396 204.602C124.443 204.766 124.44 204.936 124.388 205.111C124.341 205.287 124.256 205.469 124.133 205.656C124.033 205.809 123.931 205.949 123.825 206.078C123.726 206.213 123.614 206.339 123.491 206.456C123.415 206.538 123.348 206.597 123.289 206.632C123.23 206.667 123.181 206.688 123.14 206.693C123.099 206.705 123.063 206.705 123.034 206.693C123.005 206.682 122.979 206.667 122.955 206.649C122.75 206.485 122.548 206.318 122.349 206.148C122.155 205.984 121.941 205.829 121.707 205.683C121.678 205.642 121.663 205.609 121.663 205.586C121.663 205.568 121.678 205.536 121.707 205.489L123.043 203.433C123.084 203.38 123.122 203.354 123.157 203.354C123.198 203.359 123.242 203.377 123.289 203.406C123.406 203.477 123.523 203.55 123.641 203.626C123.764 203.708 123.875 203.799 123.975 203.898C124.074 203.998 124.162 204.104 124.238 204.215C124.314 204.332 124.367 204.461 124.396 204.602ZM121.707 204.769C121.707 204.792 121.71 204.81 121.716 204.821C121.716 204.839 121.719 204.854 121.725 204.865C121.725 204.877 121.725 204.889 121.725 204.9C121.73 204.918 121.733 204.933 121.733 204.944V205.067C121.733 205.079 121.73 205.091 121.725 205.103C121.725 205.12 121.725 205.135 121.725 205.146L121.698 205.252C121.698 205.264 121.695 205.272 121.689 205.278C121.689 205.284 121.689 205.293 121.689 205.305L121.654 205.41C121.643 205.434 121.631 205.457 121.619 205.48C121.613 205.504 121.604 205.527 121.593 205.551C121.593 205.557 121.59 205.56 121.584 205.56C121.584 205.565 121.584 205.571 121.584 205.577L121.54 205.656C121.528 205.686 121.514 205.709 121.496 205.727C121.479 205.75 121.464 205.773 121.452 205.797C121.44 205.809 121.435 205.817 121.435 205.823L121.329 205.981L121.285 206.043C121.273 206.055 121.262 206.069 121.25 206.087C121.244 206.104 121.235 206.119 121.224 206.131C121.2 206.166 121.18 206.192 121.162 206.21L121.021 206.386C121.01 206.397 121.004 206.406 121.004 206.412C120.992 206.424 120.978 206.438 120.96 206.456C120.948 206.474 120.934 206.488 120.916 206.5L120.863 206.553C120.846 206.582 120.822 206.605 120.793 206.623L120.705 206.711L120.661 206.746C120.597 206.799 120.541 206.834 120.494 206.852L120.441 206.869H120.38C120.333 206.869 120.292 206.852 120.257 206.816C120.128 206.717 120.002 206.614 119.879 206.509C119.762 206.403 119.636 206.301 119.501 206.201C119.46 206.166 119.419 206.134 119.378 206.104C119.255 206.011 119.135 205.926 119.018 205.85C119.012 205.85 119.009 205.847 119.009 205.841C118.979 205.812 118.965 205.785 118.965 205.762C118.965 205.738 118.979 205.703 119.009 205.656L120.354 203.608C120.354 203.603 120.356 203.597 120.362 203.591C120.403 203.538 120.447 203.518 120.494 203.529C120.494 203.529 120.5 203.532 120.512 203.538C120.518 203.538 120.523 203.541 120.529 203.547L120.591 203.573C120.603 203.585 120.614 203.591 120.626 203.591C120.638 203.597 120.649 203.605 120.661 203.617C120.673 203.623 120.685 203.629 120.696 203.635C120.708 203.641 120.72 203.649 120.731 203.661C120.755 203.673 120.778 203.688 120.802 203.705C120.837 203.729 120.872 203.749 120.907 203.767C120.942 203.79 120.978 203.816 121.013 203.846L121.048 203.872C121.101 203.913 121.15 203.954 121.197 203.995C121.244 204.036 121.291 204.08 121.338 204.127L121.443 204.25L121.522 204.355C121.563 204.414 121.596 204.473 121.619 204.531C121.631 204.549 121.643 204.575 121.654 204.61L121.681 204.689C121.687 204.695 121.689 204.701 121.689 204.707C121.689 204.713 121.692 204.722 121.698 204.733C121.698 204.751 121.701 204.763 121.707 204.769ZM126.532 197.861C126.579 197.797 126.617 197.771 126.646 197.782C126.682 197.794 126.699 197.82 126.699 197.861C126.67 198.166 126.702 198.43 126.796 198.652C126.896 198.869 127.039 199.027 127.227 199.127C127.314 199.326 127.376 199.537 127.411 199.76C127.446 199.977 127.461 200.193 127.455 200.41C127.455 200.621 127.435 200.823 127.394 201.017C127.353 201.204 127.297 201.365 127.227 201.5C126.963 201.553 126.673 201.512 126.356 201.377C126.286 201.389 125.996 201.62 125.486 202.071C124.982 202.522 124.496 202.698 124.027 202.599C123.969 202.47 123.922 202.332 123.887 202.186C123.852 202.039 123.831 201.89 123.825 201.737C123.819 201.591 123.831 201.444 123.86 201.298C123.89 201.151 123.945 201.011 124.027 200.876C124.191 200.876 124.417 200.955 124.704 201.113C124.997 201.266 125.223 201.327 125.381 201.298C125.51 201.274 125.618 201.225 125.706 201.148C125.794 201.066 125.861 200.984 125.908 200.902C125.65 199.994 125.794 199.077 126.339 198.151L126.532 197.861ZM127.253 191.085C127.3 191.255 127.297 191.431 127.244 191.612C127.197 191.794 127.106 191.984 126.972 192.184C126.89 192.318 126.802 192.441 126.708 192.553C126.62 192.658 126.526 192.761 126.427 192.86C126.397 192.896 126.351 192.939 126.286 192.992C126.222 193.045 126.154 193.095 126.084 193.142C126.014 193.188 125.946 193.224 125.882 193.247C125.817 193.265 125.771 193.256 125.741 193.221C125.53 193.051 125.322 192.878 125.117 192.702C124.912 192.526 124.687 192.362 124.44 192.21C124.399 192.181 124.379 192.154 124.379 192.131C124.385 192.102 124.402 192.061 124.432 192.008L125.838 189.863C125.879 189.805 125.92 189.778 125.961 189.784C126.002 189.784 126.046 189.799 126.093 189.828C126.216 189.898 126.339 189.978 126.462 190.065C126.585 190.153 126.699 190.25 126.805 190.355C126.91 190.455 127.001 190.566 127.077 190.689C127.159 190.807 127.218 190.938 127.253 191.085ZM129.846 203.5C129.617 203.43 129.441 203.406 129.318 203.43C129.195 203.453 129.084 203.538 128.984 203.685C128.885 203.837 128.747 204.036 128.571 204.282C128.401 204.534 128.217 204.742 128.018 204.906C127.777 205.094 127.514 205.199 127.227 205.223C127.109 205.152 127.019 205.026 126.954 204.845C126.89 204.669 126.857 204.467 126.857 204.238C126.852 204.01 126.881 203.772 126.945 203.526C127.004 203.28 127.098 203.055 127.227 202.85C127.543 202.973 127.836 203.022 128.105 202.999C128.381 202.976 128.609 202.888 128.791 202.735C128.973 202.583 129.148 202.387 129.318 202.146C129.494 201.906 129.67 201.783 129.846 201.777C129.957 201.906 130.036 202.05 130.083 202.208C130.13 202.36 130.15 202.516 130.145 202.674C130.139 202.832 130.109 202.984 130.057 203.131C130.004 203.271 129.934 203.395 129.846 203.5ZM131.753 214.706C131.8 214.87 131.797 215.04 131.744 215.216C131.697 215.392 131.612 215.573 131.489 215.761C131.39 215.913 131.287 216.054 131.182 216.183C131.082 216.317 130.971 216.443 130.848 216.561C130.771 216.643 130.704 216.701 130.646 216.736C130.587 216.771 130.537 216.792 130.496 216.798C130.455 216.81 130.42 216.81 130.391 216.798C130.361 216.786 130.335 216.771 130.312 216.754C130.106 216.59 129.904 216.423 129.705 216.253C129.512 216.089 129.298 215.934 129.063 215.787C129.034 215.746 129.02 215.714 129.02 215.69C129.02 215.673 129.034 215.641 129.063 215.594L130.399 213.537C130.44 213.484 130.479 213.458 130.514 213.458C130.555 213.464 130.599 213.481 130.646 213.511C130.763 213.581 130.88 213.654 130.997 213.73C131.12 213.812 131.231 213.903 131.331 214.003C131.431 214.103 131.519 214.208 131.595 214.319C131.671 214.437 131.724 214.565 131.753 214.706ZM129.063 214.873C129.063 214.896 129.066 214.914 129.072 214.926C129.072 214.943 129.075 214.958 129.081 214.97C129.081 214.981 129.081 214.993 129.081 215.005C129.087 215.022 129.09 215.037 129.09 215.049V215.172C129.09 215.184 129.087 215.195 129.081 215.207C129.081 215.225 129.081 215.239 129.081 215.251L129.055 215.356C129.055 215.368 129.052 215.377 129.046 215.383C129.046 215.389 129.046 215.397 129.046 215.409L129.011 215.515C128.999 215.538 128.987 215.562 128.976 215.585C128.97 215.608 128.961 215.632 128.949 215.655C128.949 215.661 128.946 215.664 128.94 215.664C128.94 215.67 128.94 215.676 128.94 215.682L128.896 215.761C128.885 215.79 128.87 215.813 128.853 215.831C128.835 215.854 128.82 215.878 128.809 215.901C128.797 215.913 128.791 215.922 128.791 215.928L128.686 216.086L128.642 216.147C128.63 216.159 128.618 216.174 128.606 216.191C128.601 216.209 128.592 216.224 128.58 216.235C128.557 216.271 128.536 216.297 128.519 216.314L128.378 216.49C128.366 216.502 128.36 216.511 128.36 216.517C128.349 216.528 128.334 216.543 128.316 216.561C128.305 216.578 128.29 216.593 128.272 216.604L128.22 216.657C128.202 216.687 128.179 216.71 128.149 216.728L128.062 216.815L128.018 216.851C127.953 216.903 127.897 216.938 127.851 216.956L127.798 216.974H127.736C127.689 216.974 127.648 216.956 127.613 216.921C127.484 216.821 127.358 216.719 127.235 216.613C127.118 216.508 126.992 216.405 126.857 216.306C126.816 216.271 126.775 216.238 126.734 216.209C126.611 216.115 126.491 216.03 126.374 215.954C126.368 215.954 126.365 215.951 126.365 215.945C126.336 215.916 126.321 215.89 126.321 215.866C126.321 215.843 126.336 215.808 126.365 215.761L127.71 213.713C127.71 213.707 127.713 213.701 127.719 213.695C127.76 213.643 127.804 213.622 127.851 213.634C127.851 213.634 127.856 213.637 127.868 213.643C127.874 213.643 127.88 213.646 127.886 213.651L127.947 213.678C127.959 213.689 127.971 213.695 127.982 213.695C127.994 213.701 128.006 213.71 128.018 213.722C128.029 213.728 128.041 213.733 128.053 213.739C128.064 213.745 128.076 213.754 128.088 213.766C128.111 213.777 128.135 213.792 128.158 213.81C128.193 213.833 128.229 213.854 128.264 213.871C128.299 213.895 128.334 213.921 128.369 213.95L128.404 213.977C128.457 214.018 128.507 214.059 128.554 214.1C128.601 214.141 128.647 214.185 128.694 214.231L128.8 214.354L128.879 214.46C128.92 214.519 128.952 214.577 128.976 214.636C128.987 214.653 128.999 214.68 129.011 214.715L129.037 214.794C129.043 214.8 129.046 214.806 129.046 214.812C129.046 214.817 129.049 214.826 129.055 214.838C129.055 214.855 129.058 214.867 129.063 214.873ZM132.438 200.035L132.43 202.197L132.324 204.008C131.926 204.143 131.636 204.312 131.454 204.518L131.006 205.106C130.766 205.399 130.549 205.599 130.355 205.704C130.162 205.81 129.992 205.862 129.846 205.862C129.746 205.716 129.679 205.569 129.644 205.423C129.608 205.282 129.597 205.142 129.608 205.001C129.614 204.86 129.641 204.717 129.688 204.57C129.729 204.43 129.781 204.286 129.846 204.14C130.572 204.321 131.059 204.034 131.305 203.278C131.281 202.769 131.29 202.112 131.331 201.31C131.372 200.507 131.548 199.517 131.858 198.339C132.063 197.759 132.266 197.226 132.465 196.739C132.664 196.253 132.802 195.928 132.878 195.764C132.931 195.664 132.975 195.638 133.01 195.685C133.051 195.726 133.054 195.822 133.019 195.975C132.79 197.217 132.635 198.163 132.553 198.813C132.477 199.458 132.438 199.865 132.438 200.035ZM132.553 197.513C132.939 197.149 133.493 197.009 134.214 197.091C134.94 197.173 135.444 197.305 135.726 197.486C136.177 197.768 136.402 198.251 136.402 198.937C136.402 199.657 136.273 200.404 136.016 201.178C135.734 202.016 135.415 202.707 135.058 203.252C134.794 203.627 134.498 203.929 134.17 204.157C133.83 204.386 133.47 204.5 133.089 204.5C132.491 204.5 132.049 204.251 131.762 203.753C131.463 203.278 131.313 202.575 131.313 201.644C131.343 201.222 131.378 200.835 131.419 200.483C131.46 200.132 131.513 199.766 131.577 199.385C131.665 199.062 131.826 198.702 132.061 198.304C132.166 198.14 132.263 197.99 132.351 197.855C132.433 197.715 132.5 197.601 132.553 197.513ZM135.436 200.721C135.436 200.375 135.266 200.103 134.926 199.903C134.592 199.698 134.249 199.61 133.897 199.64C133.569 199.64 133.247 199.745 132.931 199.956C132.608 200.167 132.447 200.404 132.447 200.668C132.447 201.02 132.579 201.292 132.843 201.485C133.089 201.696 133.405 201.802 133.792 201.802C134.267 201.802 134.662 201.699 134.979 201.494C135.283 201.312 135.436 201.055 135.436 200.721ZM158.437 178.361C158.255 179.105 157.889 179.724 157.338 180.216C155.762 181.634 152.182 184.045 146.598 187.449C141.014 190.848 137.729 192.913 136.745 193.646C135.761 194.378 134.952 195.075 134.319 195.737C133.692 196.394 133.341 196.725 133.265 196.73C133.194 196.736 133.171 196.651 133.194 196.476C133.218 196.294 133.514 195.784 134.082 194.946C134.656 194.103 135.652 193.142 137.07 192.063C138.494 190.979 142.007 188.779 147.608 185.463C153.216 182.146 156.406 180.113 157.18 179.363C157.953 178.613 158.354 178.238 158.384 178.238C158.419 178.238 158.437 178.279 158.437 178.361ZM151.81 183.139C151.687 183.707 151.525 185.424 151.326 188.289C151.109 191.119 150.922 192.895 150.764 193.615C150.512 194.84 150.066 196.085 149.428 197.351C148.795 198.616 147.954 199.691 146.905 200.576C145.856 201.467 144.729 201.912 143.521 201.912C142.314 201.912 141.395 201.578 140.762 200.91C140.135 200.248 139.821 199.36 139.821 198.247C139.821 196.495 140.53 194.617 141.948 192.613C142.03 192.479 142.109 192.408 142.186 192.402C142.268 192.396 142.309 192.44 142.309 192.534C142.309 192.622 142.271 192.719 142.194 192.824C141.368 194.195 140.955 195.361 140.955 196.322C140.955 197.277 141.286 197.995 141.948 198.476C142.616 198.956 143.401 199.19 144.304 199.179C145.681 199.179 146.879 198.771 147.898 197.957C148.924 197.143 149.598 196.062 149.92 194.714C150.014 194.298 150.128 192.815 150.263 190.267C150.403 187.63 150.529 186.004 150.641 185.389C150.758 184.744 151.045 183.936 151.502 182.963C151.742 182.447 151.862 182.351 151.862 182.673C151.862 182.784 151.845 182.939 151.81 183.139ZM153.576 192.534C153.529 193.12 153.397 193.618 153.181 194.028C152.964 194.438 152.718 194.644 152.442 194.644C152.442 194.474 152.442 194.066 152.442 193.422C152.536 192.303 152.753 191.236 153.093 190.223C153.456 189.133 153.758 188.594 153.998 188.605C154.127 188.629 154.133 188.846 154.016 189.256C153.699 190.357 153.541 191.192 153.541 191.761C153.541 191.931 153.553 192.188 153.576 192.534ZM157.988 194.986C157.725 194.939 157.525 194.939 157.391 194.986C157.033 195.127 156.629 195.543 156.178 196.234C155.615 197.078 155.029 197.5 154.42 197.5C153.77 197.494 153.277 197.213 152.943 196.656C152.609 196.094 152.442 195.423 152.442 194.644C152.595 194.134 152.762 193.691 152.943 193.316C153.119 192.941 153.33 192.684 153.576 192.543C153.553 193.961 154.13 194.67 155.308 194.67C155.788 194.676 156.204 194.526 156.556 194.222C156.913 193.911 157.177 193.674 157.347 193.51C157.587 193.34 157.801 193.258 157.988 193.264C158.117 193.398 158.185 193.668 158.19 194.072C158.196 194.471 158.129 194.775 157.988 194.986ZM158.876 182.567C158.923 182.731 158.92 182.901 158.867 183.077C158.82 183.253 158.735 183.435 158.612 183.622C158.513 183.774 158.41 183.918 158.305 184.053C158.205 184.182 158.094 184.305 157.971 184.422C157.895 184.504 157.827 184.562 157.769 184.598C157.71 184.633 157.66 184.656 157.619 184.668C157.578 184.674 157.543 184.671 157.514 184.659C157.484 184.647 157.458 184.633 157.435 184.615C157.229 184.451 157.027 184.287 156.828 184.123C156.635 183.953 156.421 183.795 156.187 183.648C156.157 183.607 156.143 183.578 156.143 183.561C156.143 183.537 156.157 183.502 156.187 183.455L157.522 181.398C157.563 181.346 157.602 181.322 157.637 181.328C157.678 181.328 157.722 181.343 157.769 181.372C157.886 181.442 158.003 181.519 158.12 181.601C158.243 181.677 158.354 181.765 158.454 181.864C158.554 181.964 158.642 182.072 158.718 182.189C158.794 182.301 158.847 182.427 158.876 182.567ZM156.187 182.734C156.187 182.758 156.189 182.775 156.195 182.787C156.195 182.805 156.198 182.819 156.204 182.831C156.204 182.843 156.204 182.857 156.204 182.875C156.21 182.887 156.213 182.898 156.213 182.91V183.033C156.213 183.045 156.21 183.06 156.204 183.077C156.204 183.089 156.204 183.101 156.204 183.112L156.178 183.218C156.178 183.229 156.175 183.238 156.169 183.244C156.169 183.25 156.169 183.259 156.169 183.271L156.134 183.376C156.122 183.399 156.11 183.423 156.099 183.446C156.093 183.47 156.084 183.493 156.072 183.517C156.072 183.522 156.069 183.528 156.063 183.534C156.063 183.534 156.063 183.537 156.063 183.543L156.02 183.622C156.008 183.651 155.993 183.678 155.976 183.701C155.958 183.719 155.943 183.739 155.932 183.763C155.92 183.774 155.914 183.783 155.914 183.789L155.809 183.947L155.765 184.009C155.753 184.021 155.741 184.035 155.729 184.053C155.724 184.07 155.715 184.085 155.703 184.097C155.68 184.132 155.659 184.158 155.642 184.176L155.501 184.352C155.489 184.363 155.483 184.372 155.483 184.378C155.472 184.39 155.457 184.404 155.439 184.422C155.428 184.439 155.413 184.454 155.396 184.466L155.343 184.519C155.325 184.548 155.302 184.571 155.272 184.589L155.185 184.677L155.141 184.712C155.076 184.765 155.021 184.8 154.974 184.817L154.921 184.835H154.859C154.812 184.835 154.771 184.817 154.736 184.782C154.607 184.683 154.481 184.58 154.358 184.475C154.241 184.369 154.115 184.267 153.98 184.167C153.939 184.132 153.898 184.1 153.857 184.07C153.734 183.977 153.614 183.892 153.497 183.815C153.491 183.815 153.488 183.812 153.488 183.807C153.459 183.777 153.444 183.751 153.444 183.728C153.444 183.704 153.459 183.669 153.488 183.622L154.833 181.574C154.833 181.568 154.836 181.562 154.842 181.557C154.883 181.504 154.927 181.483 154.974 181.495C154.974 181.495 154.979 181.498 154.991 181.504C154.997 181.504 155.003 181.507 155.009 181.513L155.07 181.539C155.082 181.551 155.094 181.56 155.105 181.565C155.117 181.565 155.129 181.571 155.141 181.583C155.152 181.589 155.164 181.595 155.176 181.601C155.188 181.606 155.199 181.615 155.211 181.627C155.234 181.639 155.258 181.653 155.281 181.671C155.316 181.694 155.352 181.718 155.387 181.741C155.422 181.759 155.457 181.782 155.492 181.812L155.527 181.838C155.58 181.879 155.63 181.92 155.677 181.961C155.724 182.002 155.771 182.046 155.817 182.093L155.923 182.216L156.002 182.321C156.043 182.38 156.075 182.438 156.099 182.497C156.11 182.515 156.122 182.541 156.134 182.576L156.16 182.655C156.166 182.661 156.169 182.667 156.169 182.673C156.169 182.679 156.172 182.688 156.178 182.699C156.178 182.717 156.181 182.729 156.187 182.734ZM157.988 198.777C158.463 198.977 158.773 198.985 158.92 198.804C158.938 198.786 159.11 198.531 159.438 198.039C159.526 197.898 159.588 197.828 159.623 197.828C159.682 197.828 159.711 197.857 159.711 197.916C159.723 197.986 159.708 198.104 159.667 198.268C159.626 198.432 159.547 198.701 159.43 199.076C159.312 199.445 159.128 199.791 158.876 200.113C158.624 200.436 158.328 200.564 157.988 200.5C157.842 200.184 157.771 199.885 157.777 199.604C157.777 199.322 157.848 199.047 157.988 198.777ZM160.168 191.14C160.215 191.31 160.212 191.485 160.159 191.667C160.112 191.849 160.021 192.039 159.887 192.238C159.805 192.373 159.717 192.496 159.623 192.607C159.535 192.713 159.441 192.815 159.342 192.915C159.312 192.95 159.266 192.994 159.201 193.047C159.137 193.1 159.069 193.149 158.999 193.196C158.929 193.243 158.861 193.278 158.797 193.302C158.732 193.319 158.686 193.311 158.656 193.275C158.445 193.105 158.237 192.933 158.032 192.757C157.827 192.581 157.602 192.417 157.355 192.265C157.314 192.235 157.297 192.209 157.303 192.186C157.303 192.156 157.317 192.115 157.347 192.062L158.753 189.918C158.794 189.859 158.835 189.833 158.876 189.839C158.917 189.839 158.961 189.854 159.008 189.883C159.131 189.953 159.254 190.032 159.377 190.12C159.5 190.208 159.614 190.305 159.72 190.41C159.825 190.51 159.916 190.621 159.992 190.744C160.074 190.861 160.133 190.993 160.168 191.14ZM162.849 190.003C163.616 190.46 164 191.125 164 191.998V192.394C164 193.278 163.587 194.406 162.761 195.777C162.187 196.639 161.41 197.204 160.432 197.474C160.355 197.491 160.265 197.5 160.159 197.5H160.133C160.01 197.5 159.928 197.441 159.887 197.324C159.887 197.049 160.432 196.504 161.521 195.689C162.324 195.039 162.737 194.597 162.761 194.362V194.143C162.761 193.562 162.356 192.988 161.548 192.42C162.233 190.926 162.667 190.12 162.849 190.003Z" fill="url(#paint1_linear)"/>
<defs>
<linearGradient id="paint0_linear" x1="132" y1="0" x2="132" y2="264" gradientUnits="userSpaceOnUse">
<stop stop-color="white"/>
<stop offset="1" stop-color="white" stop-opacity="0"/>
</linearGradient>
<linearGradient id="paint1_linear" x1="132" y1="170.5" x2="132" y2="221.5" gradientUnits="userSpaceOnUse">
<stop stop-color="white"/>
<stop offset="1" stop-color="white" stop-opacity="0"/>
</linearGradient>
</defs>
</svg>
