<svg width="40" height="40" viewBox="0 0 40 40" fill="none" xmlns="http://www.w3.org/2000/svg">
<g clip-path="url(#clip0)">
<path d="M36.7467 24.4867L37.32 30L32.2533 32.2601L30 37.32L24.4867 36.7467L20 40L15.5133 36.7467L10 37.32L7.73991 32.2533L2.68001 30L3.25326 24.4867L0 20L3.25326 15.5133L2.68001 10L7.74675 7.73991L10 2.68001L15.5133 3.25326L20 0L24.4867 3.25326L30 2.68001L32.2601 7.74675L37.32 10L36.7467 15.5133L40 20L36.7467 24.4867Z" fill="#33BBFF"/>
<path d="M29.2004 14.8008L27.314 12.9141L16.0005 24.2272L12.2271 20.4606L10.3403 22.3405L16.0005 28.0007L29.2004 14.8008Z" fill="white"/>
</g>
<defs>
<clipPath id="clip0">
<rect width="40" height="40" fill="white"/>
</clipPath>
</defs>
</svg>
