<svg id="eqxj6zecnikh1" xmlns="http://www.w3.org/2000/svg" xmlns:xlink="http://www.w3.org/1999/xlink" viewBox="0 0 37.480000 42.800000" shape-rendering="geometricPrecision" text-rendering="geometricPrecision"><style><![CDATA[#eqxj6zecnikh4_ts {animation: eqxj6zecnikh4_ts__ts 500ms linear infinite alternate forwards}@keyframes eqxj6zecnikh4_ts__ts { 0% {transform: translate(18.650000px,29.384999px) scale(0,0);animation-timing-function: cubic-bezier(0.495000,-0.005000,0.495000,0.995000)} 24% {transform: translate(18.650000px,29.384999px) scale(1,1)} 100% {transform: translate(18.650000px,29.384999px) scale(1,1)} }#eqxj6zecnikh5_ts {animation: eqxj6zecnikh5_ts__ts 500ms linear infinite alternate forwards}@keyframes eqxj6zecnikh5_ts__ts { 0% {transform: translate(18.640000px,23.669998px) scale(0,0);animation-timing-function: cubic-bezier(0.495000,-0.005000,0.495000,0.995000)} 50% {transform: translate(18.640000px,23.669998px) scale(1,1)} 100% {transform: translate(18.640000px,23.669998px) scale(1,1)} }#eqxj6zecnikh6_ts {animation: eqxj6zecnikh6_ts__ts 500ms linear infinite alternate forwards}@keyframes eqxj6zecnikh6_ts__ts { 0% {transform: translate(18.655000px,18.860000px) scale(0,0);animation-timing-function: cubic-bezier(0.495000,-0.005000,0.495000,0.995000)} 74% {transform: translate(18.655000px,18.860000px) scale(1,1)} 100% {transform: translate(18.655000px,18.860000px) scale(1,1)} }#eqxj6zecnikh7_ts {animation: eqxj6zecnikh7_ts__ts 500ms linear infinite alternate forwards}@keyframes eqxj6zecnikh7_ts__ts { 0% {transform: translate(18.670000px,14.210000px) scale(0,0);animation-timing-function: cubic-bezier(0.495000,-0.005000,0.495000,0.995000)} 100% {transform: translate(18.670000px,14.210000px) scale(0.864444,0.864444)} }]]></style><path id="eqxj6zecnikh2" d="M24.440000,33.450000L18.740000,37.660000L13,33.440000L9.380000,35.600000L18.740000,42.800000L28.060000,35.600000Z" fill="rgb(236,28,36)" stroke="none" stroke-width="1"/><path id="eqxj6zecnikh3" d="M18.720000,0C14.927858,0.000623,11.227507,1.166582,8.120000,3.340000C4.990117,5.519365,2.591947,8.593764,1.240000,12.160000C-1.512543,19.466220,0.446006,27.711911,6.190000,33L7.860000,29.290000C4.827644,26.026873,3.377043,21.599095,3.890711,17.174241C4.404379,12.749388,6.830748,8.771675,10.530000,6.290000C15.492839,2.970810,21.967161,2.970810,26.930000,6.290000C29.385965,7.936805,31.302396,10.270607,32.440000,13C34.792327,18.527579,33.680400,24.921157,29.600000,29.330000L31.290000,33C34.117331,30.436344,36.107062,27.080633,37,23.370000C37.879172,19.640008,37.621439,15.732216,36.260000,12.150000C34.908215,8.578143,32.506050,5.499605,29.370000,3.320000C26.244730,1.146824,22.526555,-0.012269,18.720000,0Z" transform="matrix(1 0 0 1 -0.12076725500000 0)" fill="rgb(236,28,36)" stroke="none" stroke-width="1"/><g id="eqxj6zecnikh4_ts" transform="translate(18.650000,29.384999) scale(0,0)"><path id="eqxj6zecnikh4" d="M7.650000,34.390000L9.650000,29.900000L18.650000,24.380000L27.650000,29.900000L29.650000,34.390000L18.730000,27.820000Z" transform="translate(-18.650000,-29.384999)" fill="rgb(236,28,36)" stroke="none" stroke-width="1"/></g><g id="eqxj6zecnikh5_ts" transform="translate(18.640000,23.669998) scale(0,0)"><path id="eqxj6zecnikh5" d="M10.660000,27.210000L12.160000,24.010000L18.730000,20.130000L25,24L26.620000,27.200000L18.690000,22.460000Z" transform="translate(-18.640000,-23.669998)" fill="rgb(236,28,36)" stroke="none" stroke-width="1"/></g><g id="eqxj6zecnikh6_ts" transform="translate(18.655000,18.860000) scale(0,0)"><path id="eqxj6zecnikh6" d="M14.510000,18.740000L18.730000,16.120000L23,18.740000L24,21.600000L18.690000,18.250000L13.310000,21.600000Z" transform="translate(-18.655000,-18.860000)" fill="rgb(236,28,36)" stroke="none" stroke-width="1"/></g><g id="eqxj6zecnikh7_ts" transform="translate(18.670000,14.210000) scale(0,0)"><path id="eqxj6zecnikh7" d="M15.650000,16.280000L16.910000,13L18.730000,12.120000L20.490000,13L21.690000,16.300000L18.690000,14.300000Z" transform="translate(-18.670000,-14.210000)" fill="rgb(236,28,36)" stroke="none" stroke-width="1"/></g></svg>