<svg width="215" height="116" viewBox="0 0 215 116" fill="none" xmlns="http://www.w3.org/2000/svg">
<path d="M96.5199 109.227C96.7594 112.041 99.3706 113.966 102.985 113.966C106.446 113.966 108.926 112.041 108.926 109.409C108.926 107.21 107.438 105.912 104.012 105.029L101.161 104.282C96.8905 103.177 94.9862 101.337 94.9862 98.2443C94.9862 94.4562 98.3444 91.7505 102.894 91.7505C107.444 91.7505 110.688 94.4562 110.813 98.1816H108.618C108.413 95.5272 106.11 93.7727 102.826 93.7727C99.6272 93.7727 97.2611 95.5784 97.2611 98.1646C97.2611 100.181 98.6978 101.372 102.09 102.249L104.587 102.898C109.228 104.089 111.184 105.894 111.184 109.164C111.184 113.283 107.917 116 102.814 116C97.9795 116 94.5871 113.283 94.3477 109.244L96.5199 109.227Z" fill="#2F2F2F"/>
<path d="M114.125 109.227C114.365 112.041 116.976 113.966 120.585 113.966C124.046 113.966 126.526 112.041 126.526 109.409C126.526 107.21 125.038 105.912 121.611 105.029L118.76 104.282C114.484 103.177 112.58 101.337 112.58 98.2443C112.58 94.4562 115.944 91.7505 120.488 91.7505C125.032 91.7505 128.282 94.4562 128.407 98.1816H126.218C126.007 95.5272 123.703 93.7727 120.425 93.7727C117.147 93.7727 114.855 95.5784 114.855 98.1646C114.855 100.181 116.292 101.372 119.684 102.249L122.181 102.898C126.822 104.089 128.778 105.894 128.778 109.164C128.778 113.283 125.511 116 120.408 116C115.573 116 112.181 113.283 111.941 109.244L114.125 109.227Z" fill="#2F2F2F"/>
<path d="M135.123 103.81C135.123 96.4557 139.114 91.7505 145.386 91.7505C150.266 91.7505 154.12 94.9917 154.747 99.5772H152.552C152.231 97.9263 151.335 96.4423 150.023 95.3882C148.711 94.334 147.069 93.7779 145.386 93.8182C140.488 93.8182 137.335 97.7088 137.335 103.81C137.335 109.91 140.511 113.926 145.42 113.926C149.103 113.926 151.885 111.927 152.575 108.669H154.77C153.955 113.226 150.414 115.994 145.408 115.994C139.114 115.983 135.123 111.249 135.123 103.81Z" fill="#2F2F2F"/>
<path d="M170.416 115.635H156.67V92.1265H158.848V113.59H170.416V115.635Z" fill="#2F2F2F"/>
<path d="M172.184 115.635V92.1265H174.356V115.635H172.184Z" fill="#2F2F2F"/>
<path d="M176.447 103.81C176.447 96.4557 180.438 91.7505 186.71 91.7505C191.59 91.7505 195.45 94.9917 196.072 99.5772H193.882C193.559 97.9263 192.661 96.4429 191.349 95.389C190.036 94.3352 188.393 93.7788 186.71 93.8182C181.812 93.8182 178.659 97.7088 178.659 103.81C178.659 109.91 181.841 113.926 186.755 113.926C190.439 113.926 193.221 111.927 193.911 108.669H196.129C195.313 113.226 191.778 115.994 186.767 115.994C180.45 115.983 176.447 111.249 176.447 103.81Z" fill="#2F2F2F"/>
<path d="M198.004 115.635V92.1265H200.182V104.3H200.307L211.288 92.1265H214.053L204.566 102.534L215 115.635H212.2L203.027 104.089L200.176 107.227V115.635H198.004Z" fill="#2F2F2F"/>
<path d="M28.1655 92.1265H20.6738V115.635H22.8803V113.619V94.143H28.0457C33.7472 94.143 36.8943 97.6291 36.8943 103.878C36.8943 110.127 33.7301 113.562 28.0457 113.562H24.5508V115.635H28.1655C35.0927 115.635 39.1122 111.323 39.1122 103.889C39.1122 96.4557 35.0756 92.1265 28.1655 92.1265Z" fill="#2F2F2F"/>
<path d="M48.6616 92.1265H41.1699V115.635H43.365V113.619V94.143H48.5304C54.2319 94.143 57.3847 97.6291 57.3847 103.878C57.3847 110.127 54.2148 113.562 48.5304 113.562H45.0412V115.635H48.6559C55.5831 115.635 59.6026 111.323 59.6026 103.889C59.6026 96.4557 55.5717 92.1265 48.6616 92.1265Z" fill="#2F2F2F"/>
<path d="M72.2649 105.632C75.3494 104.818 77.2081 102.312 77.2081 98.9962C77.2081 94.8151 74.3574 92.1265 69.7962 92.1265H61.666V115.635H63.8554V105.991V104.02V94.1145H69.5568C72.9206 94.1145 74.9503 95.9487 74.9503 99.0589C74.9503 102.169 73.0004 104.02 69.6366 104.02H65.5259V105.991H69.9901L75.3038 115.635H77.8637L72.2649 105.632Z" fill="#2F2F2F"/>
<path d="M92.7972 102.591H83.293V104.579H92.7972V102.591Z" fill="#2F2F2F"/>
<path d="M93.3834 92.1265H79.4492V115.607H93.3834V113.59H81.6215V107.245V99.3437V94.143H93.3834V92.1265Z" fill="#2F2F2F"/>
<path d="M10.8213 92.1265H8.64334L0 115.607H2.32047L4.88041 108.412H12.8054L12.1155 106.493H5.53607L9.68099 94.8778H9.77792L17.1384 115.607H19.4418L10.8213 92.1265Z" fill="#2F2F2F"/>
<g style="mix-blend-mode:multiply">
<path d="M117.552 58.0116L107.54 65.3143L97.5002 57.9888L91.0918 61.737L107.54 74.2347L123.898 61.7313L117.552 58.0116Z" fill="url(#paint0_linear)"/>
</g>
<g style="mix-blend-mode:multiply">
<path d="M107.501 1.88646e-05C100.844 -0.00710453 94.3427 2.00331 88.854 5.76571C83.3654 9.52811 79.1483 14.8655 76.7596 21.0728C74.3709 27.2802 73.9231 34.0655 75.4753 40.5325C77.0276 46.9994 80.5068 52.8438 85.4534 57.2937L88.4238 50.8568C84.9098 47.1341 82.5636 42.4648 81.6749 37.4253C80.7862 32.3857 81.3939 27.1964 83.423 22.498C85.452 17.7995 88.8136 13.7974 93.0929 10.9856C97.3722 8.17391 102.382 6.67557 107.504 6.67557C112.625 6.67557 117.635 8.17391 121.914 10.9856C126.194 13.7974 129.555 17.7995 131.584 22.498C133.613 27.1964 134.221 32.3857 133.332 37.4253C132.444 42.4648 130.097 47.1341 126.583 50.8568L129.548 57.2994C134.494 52.8487 137.972 47.0039 139.524 40.5369C141.075 34.07 140.627 27.2849 138.239 21.0775C135.851 14.8702 131.634 9.53258 126.146 5.76944C120.658 2.0063 114.157 -0.00537937 107.501 1.88646e-05Z" fill="url(#paint1_linear)"/>
</g>
<g style="mix-blend-mode:multiply">
<path d="M93.3379 47.1827L95.9776 41.6401L107.512 34.9185L118.601 41.6401L121.446 47.1827L107.512 38.9685L93.3379 47.1827Z" fill="url(#paint2_linear)"/>
</g>
<g style="mix-blend-mode:multiply">
<path d="M100.106 32.4919L107.512 27.9519L115.015 32.4919L116.851 37.4648L107.512 31.6602L97.9961 37.4648L100.106 32.4919Z" fill="url(#paint3_linear)"/>
</g>
<g style="mix-blend-mode:multiply">
<path d="M102.102 28.2367L104.319 22.5062L107.512 20.9739L110.608 22.5062L112.712 28.2367L107.512 24.7107L102.102 28.2367Z" fill="url(#paint4_linear)"/>
</g>
<g style="mix-blend-mode:multiply">
<path d="M88.0527 59.6406L91.6503 51.8538L107.512 42.2839L123.356 51.8538L126.942 59.6406L107.512 48.248L88.0527 59.6406Z" fill="url(#paint5_linear)"/>
</g>
<defs>
<linearGradient id="paint0_linear" x1="85.4377" y1="53.809" x2="136.766" y2="94.7054" gradientUnits="userSpaceOnUse">
<stop stop-color="#F0505B"/>
<stop offset="0.421875" stop-color="#F43F4B" stop-opacity="0.913402"/>
<stop offset="0.708333" stop-color="#FD1625" stop-opacity="0.705263"/>
<stop offset="0.9999" stop-color="#FF0B1B" stop-opacity="0.65"/>
<stop offset="1" stop-color="#F0505B"/>
</linearGradient>
<linearGradient id="paint1_linear" x1="63.2172" y1="-14.7421" x2="202.943" y2="48.6273" gradientUnits="userSpaceOnUse">
<stop stop-color="#F0505B"/>
<stop offset="0.421875" stop-color="#F43F4B" stop-opacity="0.913402"/>
<stop offset="0.708333" stop-color="#FD1625" stop-opacity="0.705263"/>
<stop offset="0.9999" stop-color="#FF0B1B" stop-opacity="0.65"/>
<stop offset="1" stop-color="#F0505B"/>
</linearGradient>
<linearGradient id="paint2_linear" x1="88.4935" y1="31.7631" x2="128.046" y2="67.5301" gradientUnits="userSpaceOnUse">
<stop stop-color="#F0505B"/>
<stop offset="0.421875" stop-color="#F43F4B" stop-opacity="0.913402"/>
<stop offset="0.708333" stop-color="#FD1625" stop-opacity="0.705263"/>
<stop offset="0.9999" stop-color="#FF0B1B" stop-opacity="0.65"/>
<stop offset="1" stop-color="#F0505B"/>
</linearGradient>
<linearGradient id="paint3_linear" x1="94.7465" y1="25.5044" x2="124.672" y2="48.9072" gradientUnits="userSpaceOnUse">
<stop stop-color="#F0505B"/>
<stop offset="0.421875" stop-color="#F43F4B" stop-opacity="0.913402"/>
<stop offset="0.708333" stop-color="#FD1625" stop-opacity="0.705263"/>
<stop offset="0.9999" stop-color="#FF0B1B" stop-opacity="0.65"/>
<stop offset="1" stop-color="#F0505B"/>
</linearGradient>
<linearGradient id="paint4_linear" x1="100.273" y1="19.1053" x2="120.644" y2="30.8477" gradientUnits="userSpaceOnUse">
<stop stop-color="#F0505B"/>
<stop offset="0.421875" stop-color="#F43F4B" stop-opacity="0.913402"/>
<stop offset="0.708333" stop-color="#FD1625" stop-opacity="0.705263"/>
<stop offset="0.9999" stop-color="#FF0B1B" stop-opacity="0.65"/>
<stop offset="1" stop-color="#F0505B"/>
</linearGradient>
<linearGradient id="paint5_linear" x1="81.3502" y1="37.8184" x2="137.185" y2="87.1799" gradientUnits="userSpaceOnUse">
<stop stop-color="#F0505B"/>
<stop offset="0.421875" stop-color="#F43F4B" stop-opacity="0.913402"/>
<stop offset="0.708333" stop-color="#FD1625" stop-opacity="0.705263"/>
<stop offset="0.9999" stop-color="#FF0B1B" stop-opacity="0.65"/>
<stop offset="1" stop-color="#F0505B"/>
</linearGradient>
</defs>
</svg>
