<svg width="512" height="512" viewBox="0 0 512 512" fill="none" xmlns="http://www.w3.org/2000/svg">
<rect width="512" height="512" fill="white"/>
<rect width="512" height="512" fill="url(#paint0_linear)"/>
<path fill-rule="evenodd" clip-rule="evenodd" d="M238.724 212.667H225.561C218.433 212.667 212.666 218.484 212.666 225.648V238.925C212.666 246.086 218.434 251.906 225.561 251.906H238.724C245.851 251.906 251.619 246.086 251.619 238.925V225.648C251.619 218.484 245.852 212.667 238.724 212.667ZM225.561 218.714H238.724C242.501 218.714 245.573 221.812 245.573 225.648V238.925C245.573 242.758 242.499 245.859 238.724 245.859H225.561C221.786 245.859 218.713 242.758 218.713 238.925V225.648C218.713 221.812 221.784 218.714 225.561 218.714Z" fill="url(#paint1_linear)"/>
<path fill-rule="evenodd" clip-rule="evenodd" d="M286.442 212.667H273.274C266.147 212.667 260.379 218.484 260.379 225.648V238.925C260.379 246.086 266.148 251.906 273.274 251.906H286.442C293.565 251.906 299.333 246.085 299.333 238.925V225.648C299.333 218.485 293.566 212.667 286.442 212.667ZM273.274 218.714H286.442C290.215 218.714 293.286 221.812 293.286 225.648V238.925C293.286 242.758 290.213 245.859 286.442 245.859H273.274C269.499 245.859 266.426 242.758 266.426 238.925V225.648C266.426 221.812 269.498 218.714 273.274 218.714Z" fill="url(#paint2_linear)"/>
<path fill-rule="evenodd" clip-rule="evenodd" d="M225.561 260.095H238.724C245.853 260.095 251.619 265.913 251.619 273.079V286.353C251.619 293.516 245.852 299.334 238.724 299.334H225.561C218.433 299.334 212.666 293.516 212.666 286.353V273.079C212.666 265.913 218.432 260.095 225.561 260.095ZM238.724 266.141H225.561C221.784 266.141 218.713 269.24 218.713 273.079V286.353C218.713 290.189 221.784 293.287 225.561 293.287H238.724C242.501 293.287 245.573 290.189 245.573 286.353V273.079C245.573 269.24 242.501 266.141 238.724 266.141Z" fill="url(#paint3_linear)"/>
<path fill-rule="evenodd" clip-rule="evenodd" d="M286.442 260.095H273.274C266.146 260.095 260.379 265.913 260.379 273.079V286.353C260.379 293.516 266.147 299.334 273.274 299.334H286.442C293.566 299.334 299.333 293.516 299.333 286.353V273.079C299.333 265.914 293.567 260.095 286.442 260.095ZM273.274 266.141H286.442C290.215 266.141 293.286 269.241 293.286 273.079V286.353C293.286 290.188 290.215 293.287 286.442 293.287H273.274C269.498 293.287 266.426 290.189 266.426 286.353V273.079C266.426 269.24 269.497 266.141 273.274 266.141Z" fill="url(#paint4_linear)"/>
<defs>
<linearGradient id="paint0_linear" x1="256" y1="0" x2="256" y2="512" gradientUnits="userSpaceOnUse">
<stop stop-color="white"/>
<stop offset="1" stop-color="white" stop-opacity="0"/>
</linearGradient>
<linearGradient id="paint1_linear" x1="255.999" y1="212.667" x2="255.999" y2="299.334" gradientUnits="userSpaceOnUse">
<stop stop-color="#F18C8C"/>
<stop offset="1" stop-color="#EA6161" stop-opacity="0.5"/>
</linearGradient>
<linearGradient id="paint2_linear" x1="255.999" y1="212.667" x2="255.999" y2="299.334" gradientUnits="userSpaceOnUse">
<stop stop-color="#F18C8C"/>
<stop offset="1" stop-color="#EA6161" stop-opacity="0.5"/>
</linearGradient>
<linearGradient id="paint3_linear" x1="255.999" y1="212.667" x2="255.999" y2="299.334" gradientUnits="userSpaceOnUse">
<stop stop-color="#F18C8C"/>
<stop offset="1" stop-color="#EA6161" stop-opacity="0.5"/>
</linearGradient>
<linearGradient id="paint4_linear" x1="255.999" y1="212.667" x2="255.999" y2="299.334" gradientUnits="userSpaceOnUse">
<stop stop-color="#F18C8C"/>
<stop offset="1" stop-color="#EA6161" stop-opacity="0.5"/>
</linearGradient>
</defs>
</svg>
