<svg width="168" height="44" viewBox="0 0 168 44" fill="none" xmlns="http://www.w3.org/2000/svg">
<path d="M154.829 33.4515L149.13 37.6616L143.419 33.4355L139.77 35.6005L149.13 42.8006L158.439 35.5936L154.829 33.4515Z" fill="#EC1C24"/>
<path d="M149.109 2.06599e-05C145.318 0.00252286 141.619 1.16641 138.509 3.33502C135.38 5.51744 132.982 8.59357 131.629 12.161C130.269 15.7363 130.014 19.6376 130.896 23.3597C131.779 27.0818 133.759 30.4531 136.579 33.037L138.249 29.325C136.754 27.7126 135.625 25.7952 134.941 23.7048C134.257 21.6144 134.035 19.4006 134.289 17.2159C134.542 15.0313 135.266 12.9275 136.411 11.0495C137.556 9.17142 139.094 7.56372 140.919 6.33702C143.347 4.71728 146.201 3.8529 149.119 3.8529C152.038 3.8529 154.891 4.71728 157.319 6.33702C159.763 7.96529 161.678 10.2717 162.829 12.973C163.987 15.6815 164.335 18.6675 163.831 21.5696C163.327 24.4717 161.992 27.1655 159.989 29.325L161.679 33.041C164.503 30.4541 166.484 27.078 167.365 23.3511C168.246 19.6241 167.986 15.7185 166.619 12.141C165.268 8.57016 162.865 5.49288 159.729 3.31502C156.611 1.15124 152.905 -0.005638 149.109 2.06599e-05Z" fill="#EC1C24"/>
<path d="M141.049 27.2079L142.549 24.0079L149.119 20.1309L155.429 24.0079L157.049 27.2079L149.119 22.4719L141.049 27.2079Z" fill="#EC1C24"/>
<path d="M144.899 18.7362L149.119 16.1172L153.389 18.7362L154.429 21.6042L149.119 18.2542L143.699 21.6042L144.899 18.7362Z" fill="#EC1C24"/>
<path d="M146.029 16.2817L147.299 12.9757L149.119 12.0957L150.879 12.9757L152.079 16.2817L149.119 14.2487L146.029 16.2817Z" fill="#EC1C24"/>
<path d="M138.039 34.3918L140.089 29.9008L149.119 24.3848L158.129 29.9008L160.169 34.3918L149.119 27.8238L138.039 34.3918Z" fill="#EC1C24"/>
<path d="M117.66 6.32227H116.42V19.6223H117.66V6.32227Z" fill="#231F20"/>
<path d="M45.9103 23.2465C45.6742 23.2448 45.4447 23.3242 45.2603 23.4715C45.0718 23.6142 44.9406 23.8195 44.8903 24.0505C44.8305 23.7993 44.6811 23.5785 44.4702 23.4295C44.261 23.2817 44.0046 23.2166 43.7502 23.2465C43.4945 23.2753 43.2589 23.3991 43.0902 23.5935C42.9236 23.7886 42.832 24.0368 42.832 24.2935C42.832 24.5501 42.9236 24.7983 43.0902 24.9935C43.2592 25.1874 43.4947 25.3112 43.7502 25.3405C44.0046 25.3699 44.2608 25.3048 44.4702 25.1575C44.6811 25.0085 44.8305 24.7877 44.8903 24.5365C44.9318 24.7305 45.0291 24.9081 45.1703 25.0475C45.311 25.1861 45.4876 25.2828 45.6803 25.3265C45.8732 25.3695 46.0742 25.357 46.2603 25.2905C46.444 25.2198 46.606 25.1022 46.7302 24.9495C46.8484 24.7904 46.9241 24.6039 46.9502 24.4075C46.9676 24.2094 46.9332 24.0102 46.8502 23.8295C46.7634 23.6506 46.6283 23.4996 46.4602 23.3935C46.2955 23.2892 46.1052 23.2328 45.9103 23.2305V23.2465Z" fill="#231F20"/>
<path d="M108.25 6.32227H105.17V7.46326H108.2C111.43 7.46326 113.24 9.43627 113.24 12.9753C113.24 16.5143 111.41 18.4753 108.18 18.4753H105.17V19.6163H108.27C112.22 19.6163 114.5 17.1743 114.5 12.9633C114.5 8.75226 112.19 6.32227 108.25 6.32227Z" fill="#231F20"/>
<path d="M101.68 14.6862C101.712 15.1964 101.635 15.7078 101.453 16.1856C101.271 16.6634 100.988 17.0964 100.624 17.4553C100.26 17.8142 99.8224 18.0905 99.342 18.2657C98.8616 18.4408 98.3492 18.5105 97.8395 18.4702H97.6895V19.6192H97.8395C101.009 19.6192 102.93 17.6102 102.93 14.7622V6.32617H101.68V14.6862Z" fill="#231F20"/>
<path d="M84.601 14.6903C84.6326 15.2 84.5539 15.7106 84.3704 16.1872C84.1868 16.6639 83.9026 17.0953 83.5372 17.4522C83.1718 17.809 82.7339 18.0829 82.2531 18.2551C81.7722 18.4274 81.2599 18.4939 80.751 18.4503H77.2009C76.6991 18.4813 76.1964 18.4052 75.7262 18.2273C75.256 18.0493 74.8289 17.7734 74.4734 17.4178C74.1179 17.0623 73.8419 16.6353 73.6639 16.165C73.4859 15.6948 73.4099 15.1921 73.4409 14.6903V6.32227H72.2109V14.7583C72.2109 17.6023 74.0909 19.5793 77.2109 19.6153H80.751C83.931 19.6153 85.851 17.6063 85.851 14.7583V6.32227H84.601V14.6903Z" fill="#231F20"/>
<path d="M98.4495 6.32227H97.2295V12.1223C97.2785 12.4663 97.2495 12.817 97.1445 13.1483C97.0396 13.4796 96.8614 13.7831 96.6232 14.0361C96.385 14.2892 96.0929 14.4855 95.7686 14.6103C95.4442 14.7351 95.0959 14.7854 94.7495 14.7573C94.3833 14.768 94.0189 14.7023 93.6796 14.5643C93.3379 14.425 93.0282 14.2175 92.7695 13.9543V15.0263C93.4197 15.5664 94.2446 15.8508 95.0895 15.8263C95.5495 15.8512 96.0095 15.776 96.4376 15.6059C96.8658 15.4359 97.2518 15.1749 97.5693 14.8412C97.8869 14.5074 98.1282 14.1087 98.2767 13.6726C98.4252 13.2366 98.4774 12.7735 98.4296 12.3153L98.4495 6.32227Z" fill="#231F20"/>
<path d="M91.21 12.1288C91.2593 12.472 91.2309 12.822 91.1267 13.1528C91.0225 13.4836 90.8452 13.7867 90.608 14.0397C90.3709 14.2927 90.0798 14.4891 89.7565 14.6145C89.4331 14.7398 89.0857 14.7908 88.74 14.7638C88.371 14.7753 88.0037 14.7102 87.6611 14.5725C87.3186 14.4348 87.0083 14.2275 86.75 13.9638V15.0358C87.4038 15.5765 88.2319 15.8608 89.08 15.8358C89.5397 15.8598 89.9993 15.7841 90.427 15.6137C90.8547 15.4433 91.2405 15.1824 91.5579 14.8488C91.8752 14.5152 92.1166 14.1169 92.2654 13.6812C92.4142 13.2455 92.467 12.7828 92.42 12.3248V6.30078H91.2L91.21 12.1288Z" fill="#231F20"/>
<path d="M64.7693 12.2004L70.1693 6.31936H68.5792L63.1892 12.2194L63.8893 13.0954L65.7393 15.4014L67.6892 17.8114L68.1892 18.4744H60.1693C59.6719 18.4947 59.1758 18.4103 58.7131 18.2266C58.2505 18.0428 57.8316 17.7639 57.4836 17.4079C57.1357 17.0518 56.8665 16.6266 56.6935 16.1599C56.5205 15.6931 56.4474 15.1952 56.4792 14.6984V6.31836H55.2192V14.6824C55.2496 15.1653 55.1809 15.6493 55.017 16.1046C54.8531 16.5599 54.5976 16.9768 54.2664 17.3295C53.9351 17.6823 53.5352 17.9634 53.0911 18.1556C52.647 18.3478 52.1682 18.4469 51.6843 18.4469C51.2004 18.4469 50.7217 18.3478 50.2776 18.1556C49.8335 17.9634 49.4334 17.6823 49.1022 17.3295C48.7709 16.9768 48.5156 16.5599 48.3517 16.1046C48.1878 15.6493 48.1189 15.1653 48.1493 14.6824V9.91036H46.8893V14.6874C46.922 15.1888 46.848 15.6915 46.6721 16.1622C46.4963 16.633 46.2226 17.0611 45.8691 17.4183C45.5157 17.7755 45.0905 18.0537 44.6217 18.2345C44.1529 18.4154 43.6511 18.4947 43.1493 18.4674C42.2075 18.4886 41.2901 18.1658 40.5692 17.5594L36.2793 12.2044L41.6693 6.32336H40.0792L34.6992 12.2234L35.3993 13.0994L37.2493 15.4054L38.7593 17.2734C39.1843 17.9905 39.7907 18.583 40.5175 18.9914C41.2442 19.3997 42.0657 19.6094 42.8993 19.5994H43.3893C44.2204 19.6087 45.0393 19.3994 45.7642 18.9926C46.489 18.5858 47.0943 17.9957 47.5193 17.2814C47.9018 17.9383 48.4405 18.4907 49.0876 18.8895C49.7348 19.2883 50.4705 19.5211 51.2292 19.5674H51.3821H51.9211H52.1393C52.9993 19.5674 53.7035 19.1969 54.2664 18.7894C54.9368 18.304 55.2192 17.8754 55.843 17.2734C55.9993 17.5004 56.822 18.5926 57.4993 19.0004C58.1765 19.4081 58.9993 19.5954 59.8492 19.5954V19.6154H70.7092L64.7693 12.2004Z" fill="#231F20"/>
<path d="M115.79 0.0324112C114.714 -0.0187084 113.656 0.318287 112.808 0.982004C111.96 1.64572 111.379 2.59199 111.17 3.64842H112.36C112.604 2.93185 113.077 2.31533 113.706 1.89365C114.334 1.47196 115.084 1.26846 115.84 1.31442H120.36V0.0324112H115.79Z" fill="#231F20"/>
<path d="M37.7705 17.1902C37.413 17.5972 36.9733 17.9241 36.4805 18.1492C35.9907 18.3715 35.4584 18.4842 34.9205 18.4791H5.63049C5.12252 18.5158 4.61255 18.4434 4.13489 18.2667C3.65723 18.09 3.22291 17.8131 2.86108 17.4547C2.49926 17.0963 2.21832 16.6646 2.03711 16.1886C1.8559 15.7127 1.7787 15.2034 1.81055 14.6952V9.91016H0.560547V14.7632C0.560547 17.6232 2.48049 19.6082 5.63049 19.6202H35.0005C36.3329 19.6308 37.6157 19.1155 38.5704 18.1861L37.7705 17.1902Z" fill="#231F20"/>
<path d="M54.9297 39.1004C55.0697 40.7074 56.5596 41.8324 58.6096 41.8324C60.5996 41.8324 61.9896 40.7274 61.9896 39.2054C61.9896 37.9394 61.1396 37.1964 59.1996 36.6824L57.5597 36.2484C55.1397 35.6134 54.0497 34.5534 54.0497 32.7694C54.0497 30.5844 55.9697 29.0254 58.5497 29.0254C61.1297 29.0254 62.9897 30.5844 63.0597 32.7334H61.8097C61.6897 31.2034 60.3796 30.1904 58.5096 30.1904C56.6396 30.1904 55.3396 31.2314 55.3396 32.7214C55.3396 33.8864 56.1596 34.5694 58.0896 35.0794L59.5096 35.4534C62.1496 36.1364 63.2596 37.1804 63.2596 39.0684C63.2596 41.4424 61.4096 43.0014 58.4996 43.0014C55.7496 43.0014 53.8197 41.4344 53.6797 39.1014L54.9297 39.1004Z" fill="#231F20"/>
<path d="M64.9492 39.1004C65.0892 40.7074 66.5693 41.8324 68.6293 41.8324C70.5993 41.8324 72.0093 40.7274 72.0093 39.2054C72.0093 37.9394 71.1692 37.1964 69.2292 36.6824L67.6093 36.2484C65.1693 35.6134 64.0892 34.5534 64.0892 32.7694C64.0892 30.5844 65.9992 29.0254 68.5892 29.0254C71.1792 29.0254 73.0192 30.5844 73.0992 32.7334H71.8292C71.7092 31.2034 70.3993 30.1904 68.5293 30.1904C66.6593 30.1904 65.3593 31.2314 65.3593 32.7214C65.3593 33.8864 66.1793 34.5694 68.1093 35.0794L69.5293 35.4534C72.1693 36.1364 73.2793 37.1804 73.2793 39.0684C73.2793 41.4424 71.4193 43.0014 68.5193 43.0014C65.7693 43.0014 63.8392 41.4344 63.6992 39.1014L64.9492 39.1004Z" fill="#231F20"/>
<path d="M76.9004 35.9821C76.9004 31.7401 79.1904 29.0281 82.7604 29.0281C84.0498 28.9866 85.3088 29.4251 86.2935 30.2586C87.2781 31.0922 87.9184 32.2615 88.0903 33.5401H86.8403C86.6535 32.5933 86.1447 31.7403 85.4004 31.1261C84.6551 30.5222 83.7193 30.2032 82.7604 30.2261C79.9804 30.2261 78.1804 32.4681 78.1804 35.9871C78.1804 39.5061 79.9704 41.8121 82.7704 41.8121C83.6994 41.8796 84.6217 41.6108 85.3689 41.0547C86.1161 40.4986 86.6383 39.6923 86.8403 38.7831H88.1003C87.9069 40.0287 87.2504 41.1554 86.2623 41.9382C85.2742 42.7209 84.0272 43.1019 82.7704 43.0051C79.1804 42.9841 76.9004 40.2681 76.9004 35.9821Z" fill="#231F20"/>
<path d="M96.9899 42.7821H89.1699V29.2441H90.4099V41.6171H96.9899V42.7821Z" fill="#231F20"/>
<path d="M98 42.7821V29.2441H99.24V42.7821H98Z" fill="#231F20"/>
<path d="M100.43 35.9824C100.43 31.7404 102.71 29.0283 106.28 29.0283C107.57 28.9848 108.83 29.4226 109.815 30.2565C110.8 31.0904 111.44 32.2609 111.61 33.5404H110.36C110.181 32.5904 109.671 31.7349 108.92 31.1263C108.175 30.521 107.239 30.2018 106.28 30.2263C103.51 30.2263 101.7 32.4683 101.7 35.9873C101.7 39.5063 103.49 41.8123 106.29 41.8123C107.219 41.8828 108.143 41.6152 108.891 41.0586C109.639 40.502 110.16 39.694 110.36 38.7833H111.61C111.15 41.4183 109.14 42.9893 106.28 42.9893C102.7 42.9843 100.43 40.2684 100.43 35.9824Z" fill="#231F20"/>
<path d="M112.711 42.7821V29.2441H113.951V36.2621H114.021L120.251 29.2441H121.841L116.431 35.2301L122.381 42.7821H120.791L115.551 36.1541L113.931 37.9651V42.7861L112.711 42.7821Z" fill="#231F20"/>
<path d="M16.0295 29.2441H11.7695V42.7821H13.0195V30.4051H15.9695C19.1995 30.4051 20.9995 32.4141 20.9995 36.0291C20.9995 39.6441 19.1895 41.6171 15.9595 41.6171H13.9695V42.7821H16.0295C19.9695 42.7821 22.2595 40.2951 22.2595 36.0091C22.2595 31.7231 19.9595 29.2441 16.0295 29.2441Z" fill="#231F20"/>
<path d="M27.6998 29.2441H23.4199V42.7821H24.6699V30.4051H27.6199C30.8599 30.4051 32.6599 32.4141 32.6599 36.0291C32.6599 39.6441 30.8599 41.6171 27.6199 41.6171H25.6399V42.7821H27.6998C31.6398 42.7821 33.9199 40.2951 33.9199 36.0091C33.9199 31.7231 31.6298 29.2441 27.6998 29.2441Z" fill="#231F20"/>
<path d="M41.1296 37.0291C41.97 36.8173 42.7104 36.3193 43.2233 35.6206C43.7361 34.9219 43.9893 34.0664 43.9396 33.2011C43.9396 30.7911 42.2996 29.2441 39.7296 29.2441H35.0996V42.7821H36.3396V30.3891H39.5896C41.4996 30.3891 42.6597 31.4501 42.6597 33.2411C42.6864 33.6385 42.6248 34.0368 42.4795 34.4075C42.3342 34.7783 42.1086 35.1123 41.819 35.3856C41.5294 35.659 41.183 35.8649 40.8044 35.9886C40.4259 36.1123 40.0248 36.1507 39.6296 36.1011H37.3097V37.2381H39.8396L42.8596 42.7821H44.3196L41.1296 37.0291Z" fill="#231F20"/>
<path d="M52.8102 35.2793H47.4102V36.4243H52.8102V35.2793Z" fill="#231F20"/>
<path d="M53.1508 29.2441H45.2207V42.7821H53.1508V41.6171H46.4607V37.9611H46.4507V33.4061H46.4607V30.4061H53.1508V29.2441Z" fill="#231F20"/>
<path d="M6.16003 29.2441H4.92004L0 42.7821H1.31995L2.78003 38.6361H7.29004L6.90002 37.5281H3.15002L5.51001 30.8281H5.56006L9.75 42.7791H11.0601L6.16003 29.2441Z" fill="#231F20"/>
</svg>
