<svg width="106" height="32" viewBox="0 0 106 32" fill="none" xmlns="http://www.w3.org/2000/svg">
<path d="M96.623 24.3626L92.5265 27.3882L88.4228 24.3511L85.7997 25.907L92.5265 31.0815L99.2174 25.902L96.623 24.3626Z" fill="#ED303D"/>
<path d="M92.512 0.321548C89.7874 0.323346 87.1288 1.15981 84.894 2.71835C82.6449 4.2868 80.9216 6.49756 79.9495 9.06142C78.9719 11.6309 78.7883 14.4347 79.4226 17.1097C80.0569 19.7847 81.4797 22.2076 83.5069 24.0646L84.7071 21.3968C83.6322 20.238 82.8211 18.86 82.3297 17.3577C81.8383 15.8553 81.6783 14.2644 81.8607 12.6943C82.043 11.1242 82.5634 9.61226 83.386 8.26255C84.2087 6.91285 85.314 5.75743 86.626 4.87582C88.3709 3.71175 90.4216 3.09053 92.5192 3.09053C94.6168 3.09053 96.6674 3.71175 98.4123 4.87582C100.169 6.04603 101.545 7.70358 102.372 9.64498C103.204 11.5915 103.454 13.7375 103.092 15.8232C102.73 17.9088 101.771 19.8448 100.331 21.3968L101.546 24.0675C103.575 22.2083 104.999 19.782 105.632 17.1035C106.265 14.425 106.078 11.6181 105.096 9.04704C104.125 6.48074 102.398 4.26916 100.144 2.70397C97.9033 1.14891 95.2397 0.317481 92.512 0.321548Z" fill="#ED303D"/>
<path d="M86.7191 19.8753L87.7971 17.5755L92.5189 14.7892L97.0537 17.5755L98.218 19.8753L92.5189 16.4716L86.7191 19.8753Z" fill="#ED303D"/>
<path d="M89.4862 13.7869L92.5191 11.9047L95.5878 13.7869L96.3352 15.8481L92.5191 13.4405L88.6238 15.8481L89.4862 13.7869Z" fill="#ED303D"/>
<path d="M90.2986 12.0229L91.2112 9.64696L92.5193 9.01453L93.7842 9.64696L94.6465 12.0229L92.5193 10.5618L90.2986 12.0229Z" fill="#ED303D"/>
<path d="M84.556 25.0383L86.0294 21.8107L92.5191 17.8464L98.9944 21.8107L100.46 25.0383L92.5191 20.318L84.556 25.0383Z" fill="#ED303D"/>
<path d="M16.4594 17.6651C16.4423 17.5918 16.4005 17.5269 16.3411 17.4814C16.2818 17.4359 16.2085 17.4126 16.134 17.4156C15.8078 17.4169 15.4818 17.3979 15.1579 17.3587C14.8262 17.2983 14.5111 17.167 14.2339 16.9736C13.785 16.6719 13.36 16.3353 12.9628 15.9671C12.4552 15.5295 11.7914 14.86 10.9628 14.011L8.24271 11.2278L12.9671 9.47733L12.5333 7.56934L6.38593 9.89743V12.0286L9.88692 15.5645C10.0691 15.732 10.2165 15.9343 10.3207 16.1597C10.3849 16.3331 10.4158 16.5172 10.4118 16.7023C10.4141 16.7957 10.398 16.8887 10.3645 16.9758C10.331 17.0629 10.2807 17.1425 10.2166 17.2099C10.0152 17.3696 9.75984 17.4435 9.50515 17.4156H0C0.0216914 17.5119 0.047721 17.6038 0.0737506 17.6957C0.174117 18.0327 0.344153 18.3444 0.572652 18.6103C0.815797 18.8912 1.12022 19.1114 1.462 19.2536C1.87572 19.4196 2.31833 19.5 2.76348 19.4899H9.74809C10.3244 19.5008 10.8924 19.3492 11.388 19.0523C11.6242 18.9021 11.822 18.6978 11.9652 18.456C12.1085 18.2142 12.1931 17.9417 12.2122 17.6607C12.5531 18.0132 12.9185 18.3408 13.3055 18.6409C13.5871 18.8618 13.8963 19.0442 14.2252 19.1836C14.5034 19.2988 14.7949 19.3782 15.0928 19.4199C15.4313 19.4589 15.7717 19.4779 16.1123 19.4768C16.1885 19.4783 16.2627 19.4529 16.3222 19.4049C16.3816 19.3569 16.4225 19.2895 16.4377 19.2142C16.5014 18.9508 16.5291 18.6799 16.5201 18.409C16.5351 18.1594 16.5147 17.9089 16.4594 17.6651Z" fill="#2F2F2F"/>
<path d="M22.3985 17.4157H21.917C21.5834 17.4223 21.2561 17.3244 20.9799 17.1356C20.8396 17.0249 20.7295 16.8801 20.6597 16.7149C20.5899 16.5496 20.5627 16.3691 20.5808 16.1904V14.0023H18.6546V16.1904C18.6546 17 18.2425 17.4069 17.4139 17.4069H16.1124C16.0369 17.4052 15.9631 17.43 15.9037 17.4771C15.8444 17.5242 15.8031 17.5907 15.787 17.6651C15.7214 17.9282 15.6937 18.1993 15.7046 18.4703C15.6948 18.7197 15.7226 18.969 15.787 19.2099C15.804 19.2835 15.8456 19.349 15.9049 19.3953C15.9642 19.4415 16.0375 19.4657 16.1124 19.4637H17.4139C17.8131 19.4769 18.2107 19.4053 18.5809 19.2537C18.9984 19.0445 19.3455 18.7157 19.5787 18.3084C19.8007 18.726 20.1529 19.0582 20.5808 19.2537C20.9948 19.4186 21.4372 19.4989 21.8823 19.49H22.4202C22.7022 19.49 22.854 19.1311 22.854 18.4222C22.854 17.7133 22.6805 17.4157 22.3985 17.4157Z" fill="#2F2F2F"/>
<path d="M19.7306 21.5643H19.6352H16.9672V23.3979H19.6352H19.7306H21.544V21.5643H19.7306Z" fill="#2F2F2F"/>
<path d="M27.6217 17.4157H27.331C26.9919 17.4236 26.6586 17.3258 26.3766 17.1356C26.2355 17.0254 26.1245 16.8808 26.054 16.7155C25.9834 16.5502 25.9556 16.3695 25.9731 16.1904V7.87573H24.0816V16.1904C24.0816 17 23.6478 17.4069 22.8235 17.4069H22.3897C22.3142 17.4052 22.2404 17.43 22.1811 17.4771C22.1217 17.5242 22.0804 17.5907 22.0643 17.6651C21.9988 17.9282 21.971 18.1993 21.9819 18.4703C21.9722 18.7196 22 18.969 22.0643 19.2099C22.0813 19.2835 22.123 19.349 22.1822 19.3952C22.2415 19.4415 22.3148 19.4657 22.3897 19.4637H22.8235C23.2198 19.474 23.614 19.4025 23.9819 19.2537C24.3983 19.0524 24.7391 18.7209 24.9536 18.3084C25.1786 18.7301 25.5377 19.0631 25.9731 19.2537C26.3879 19.4158 26.8298 19.4961 27.2746 19.49H27.6434C27.9167 19.49 28.0512 19.1311 28.0512 18.4222C28.0512 17.7133 27.895 17.4157 27.6217 17.4157Z" fill="#2F2F2F"/>
<path d="M34.8491 15.5908C34.7204 15.3378 34.5663 15.0988 34.3893 14.8775C34.1532 14.5712 33.8997 14.279 33.6301 14.0022L30.9013 11.2278L35.63 9.47733L35.1962 7.56934L29.0662 9.89744V12.0286L32.5672 15.5645C32.7535 15.7248 32.9018 15.9252 33.001 16.1509C33.0689 16.3267 33.1042 16.5136 33.1052 16.7023C33.1074 16.7957 33.0913 16.8887 33.0578 16.9758C33.0243 17.0629 32.974 17.1425 32.9099 17.2099C32.7147 17.3686 32.4651 17.4426 32.2158 17.4156H27.6216C27.5464 17.4132 27.4728 17.4378 27.414 17.4851C27.3552 17.5324 27.315 17.5993 27.3006 17.6738C27.2331 17.9366 27.2039 18.2078 27.2138 18.479C27.2051 18.7286 27.2343 18.978 27.3006 19.2186C27.3159 19.2923 27.3564 19.3581 27.4152 19.4046C27.4739 19.451 27.547 19.475 27.6216 19.4724H32.4414C32.8018 19.4745 33.1608 19.4274 33.5086 19.3324C33.8251 19.2495 34.1207 19.1004 34.3763 18.8948C34.6249 18.688 34.8224 18.4259 34.9533 18.1289C35.0935 17.7715 35.157 17.3882 35.1398 17.0043C35.1405 16.7621 35.1187 16.5203 35.0747 16.2822C35.0302 16.0427 34.9543 15.8102 34.8491 15.5908Z" fill="#2F2F2F"/>
<path d="M53.955 14.0023V16.1904C53.9672 16.3542 53.9466 16.5188 53.8944 16.6744C53.8422 16.83 53.7596 16.9735 53.6513 17.0962C53.5347 17.204 53.3978 17.2871 53.2488 17.3405C53.0997 17.3939 52.9416 17.4165 52.7837 17.4069C52.4907 17.4105 52.2055 17.3116 51.9768 17.1269C51.8513 17.0081 51.7544 16.862 51.6934 16.6997C51.6325 16.5374 51.6093 16.3632 51.6254 16.1904V14.0023H49.7556V16.1904C49.7556 17 49.2914 17.4069 48.363 17.4069C48.0199 17.42 47.6828 17.3134 47.4086 17.105C47.2796 16.9964 47.1781 16.8584 47.1125 16.7024C47.0468 16.5464 47.019 16.3769 47.0311 16.2079V14.0023H45.157V19.0217C45.16 19.4032 45.1103 19.7832 45.0095 20.1508C44.9161 20.4954 44.7488 20.8151 44.5193 21.0873C44.2759 21.3658 43.9714 21.5831 43.6299 21.7218C43.2077 21.8901 42.7562 21.9704 42.3024 21.9581H41.4998C41.0572 21.9705 40.6161 21.9008 40.1984 21.7524C39.8666 21.6324 39.5687 21.4327 39.3307 21.1704C39.1087 20.9107 38.9471 20.6042 38.8578 20.2733C38.754 19.8899 38.7043 19.4936 38.7103 19.0961V14.0023H36.8752V19.1705C36.8752 20.6672 37.2585 21.8458 38.0249 22.7064C38.4371 23.1444 38.9391 23.4864 39.4958 23.7086C40.0525 23.9308 40.6505 24.0279 41.2482 23.993H42.4152C43.072 24.0051 43.7235 23.8721 44.3241 23.6035C44.8721 23.3557 45.3627 22.9949 45.7644 22.5445C46.1533 22.0914 46.4549 21.569 46.6537 21.0041C46.8621 20.4157 46.9678 19.7953 46.9661 19.1705V18.8905C47.1344 19.0774 47.3398 19.2265 47.5691 19.3281C47.844 19.4422 48.1395 19.4973 48.4367 19.49C48.8401 19.4885 49.2393 19.4083 49.6124 19.2537C50.0486 19.0591 50.4107 18.7275 50.6449 18.3084C50.864 18.7267 51.2152 19.0593 51.6427 19.2537C52.0255 19.4113 52.4353 19.4916 52.8488 19.49C53.2505 19.5154 53.6532 19.4579 54.0321 19.321C54.411 19.184 54.7583 18.9705 55.0526 18.6935C55.3306 18.3744 55.5429 18.0027 55.677 17.6C55.811 17.1972 55.8642 16.7716 55.8335 16.3479V14.0023H53.955Z" fill="#2F2F2F"/>
<path d="M58.0071 14.0023V19.1705C58.0071 19.5204 57.9499 19.8678 57.8379 20.1989C57.728 20.5351 57.5441 20.8418 57.3 21.096C57.0315 21.3731 56.7056 21.5868 56.3456 21.7218C55.8934 21.8908 55.4133 21.971 54.9313 21.9581H54.1504L54.2458 23.993H55.4128C56.0224 23.9978 56.6259 23.871 57.1828 23.621C57.7221 23.3782 58.2075 23.0284 58.6101 22.5927C59.0167 22.1456 59.3374 21.6262 59.5559 21.061C59.786 20.4579 59.9022 19.8167 59.8986 19.1705V14.0023H58.0071Z" fill="#2F2F2F"/>
<path d="M69.1346 15.9455C68.9555 15.5246 68.7077 15.1371 68.4014 14.7989L65.1607 11.0223L63.6944 12.4052L66.8483 16.0286C67.0336 16.214 67.1448 16.4617 67.1607 16.7244C67.1607 17.1839 66.857 17.4159 66.254 17.4159H61.5253L61.6207 19.4726H66.5663C66.9788 19.4786 67.3894 19.415 67.7811 19.2845C68.1016 19.1727 68.3967 18.9971 68.6487 18.7681C68.8805 18.5567 69.0615 18.2948 69.178 18.0023C69.3006 17.7053 69.3654 17.3874 69.3689 17.0658C69.3653 16.6804 69.2857 16.2995 69.1346 15.9455Z" fill="#2F2F2F"/>
<path d="M71.256 7.00057C71.0262 6.99636 70.7966 7.01542 70.5706 7.05746C70.397 7.08953 70.2326 7.15975 70.089 7.26314C69.9466 7.37165 69.8247 7.50504 69.7289 7.65699C69.6089 7.85476 69.5031 8.06097 69.4123 8.27402L68.8396 9.56061L70.024 10.1426L70.4144 9.26741C70.4405 9.17422 70.4851 9.08737 70.5455 9.01214C70.6059 8.9369 70.6809 8.87486 70.7658 8.82979C70.9479 8.77108 71.1387 8.74444 71.3298 8.75102H74.9262L75 7.00057H71.256ZM71.4252 10.6853V19.4725H73.3167V10.6853H71.4252Z" fill="#2F2F2F"/>
</svg>
