<svg width="64" height="64" viewBox="0 0 64 64" fill="none" xmlns="http://www.w3.org/2000/svg">
<g clip-path="url(#clip0)">
<path d="M40.9016 48.3242L33.2216 53.8683L25.5416 48.3242L20.6543 51.1607L33.2216 60.5729L45.7452 51.1607L40.9016 48.3242Z" fill="#ED313E"/>
<path d="M33.2218 4.57227C19.3018 4.57227 8 15.7035 8 29.4134C8 36.7196 11.2291 43.2952 16.3345 47.8079L18.6036 42.9514C15.2 39.3842 13.1055 34.6567 13.1055 29.4134C13.1055 18.4971 22.0945 9.64364 33.1782 9.64364C44.2618 9.64364 53.2509 18.4971 53.2509 29.4134C53.2509 34.6567 51.1564 39.4272 47.7964 42.9514L50.0655 47.8079C55.1709 43.2522 58.4 36.6766 58.4 29.4134C58.4 15.7035 47.0982 4.57227 33.2218 4.57227Z" fill="#ED313E"/>
<path d="M22.3564 40.1582L24.4074 35.9893L33.2219 30.918L41.6874 35.9893L43.8692 40.1582L33.2219 33.9694L22.3564 40.1582Z" fill="#ED313E"/>
<path d="M27.5491 29.071L33.2218 25.6758L38.9382 29.071L40.3782 32.8531L33.2218 28.4693L25.9346 32.8531L27.5491 29.071Z" fill="#ED313E"/>
<path d="M29.0762 25.8898L30.778 21.5491L33.2216 20.3887L35.578 21.5491L37.1925 25.8898L33.2216 23.2252L29.0762 25.8898Z" fill="#ED313E"/>
<path d="M18.3418 49.5711L21.0909 43.6832L33.2218 36.4629L45.3527 43.6832L48.1018 49.5711L33.2218 40.9756L18.3418 49.5711Z" fill="#ED313E"/>
</g>
<defs>
<clipPath id="clip0">
<rect width="50.4" height="56" fill="white" transform="translate(8 4.57227)"/>
</clipPath>
</defs>
</svg>
