<svg width="209" height="258" viewBox="0 0 209 258" fill="none" xmlns="http://www.w3.org/2000/svg">
<path d="M93.3423 257.999C144.894 257.999 186.685 251.913 186.685 244.406C186.685 236.898 144.894 230.812 93.3423 230.812C41.7908 230.812 0 236.898 0 244.406C0 251.913 41.7908 257.999 93.3423 257.999Z" fill="#EBEBEB"/>
<path d="M76.5562 78.336H5.4375L11.7377 0H70.2569L76.5562 78.336Z" fill="#E9E9E9"/>
<path d="M42.9309 78.3363H39.0649V243.954H42.9309V78.3363Z" fill="#CBCBCB"/>
<path d="M56.7737 243.954H25.2222C25.222 243.512 25.3089 243.075 25.4778 242.667C25.6466 242.259 25.8942 241.889 26.2063 241.576C26.5185 241.264 26.889 241.016 27.2969 240.847C27.7048 240.679 28.1419 240.592 28.5834 240.592H53.4143C54.306 240.592 55.1611 240.946 55.7917 241.576C56.4222 242.207 56.7764 243.062 56.7764 243.954H56.7737Z" fill="#CBCBCB"/>
<path d="M39.0649 84.4244L42.9309 80.7306V78.3363H39.0649V84.4244Z" fill="#E0E0E0"/>
<path d="M207.701 94.0759C207.717 92.4666 207.359 90.8754 206.656 89.4278C206.052 88.3676 204.449 85.5501 184.435 85.5501V84.9084C204.825 84.9084 206.438 87.7468 207.213 89.1107C207.969 90.6469 208.356 92.3385 208.342 94.0506L207.701 94.0759Z" fill="#CBCBCB"/>
<path d="M206.975 105.19L206.35 105.044C206.825 103.03 207.193 100.992 207.452 98.9392L208.086 99.0171C207.826 101.093 207.455 103.153 206.975 105.19Z" fill="#CBCBCB"/>
<path d="M205.262 90.2219C202.574 85.4959 164.704 87.1407 157.684 89.1553C148.182 91.8867 143.91 116.42 143.185 122.338C143.185 122.338 148.761 116.48 153.682 115.003C156.025 115.819 181.847 120.336 186.662 121.618C192.153 123.084 197.99 121.6 200.677 116.826C203.364 112.052 208.068 95.1573 205.262 90.2219Z" fill="#CBCBCB"/>
<path d="M196.771 97.0554C196.694 97.0553 196.618 97.0498 196.542 97.0391C178.63 94.4853 157.9 96.2996 157.692 96.3186C157.268 96.3567 156.846 96.2248 156.519 95.9518C156.192 95.6789 155.987 95.2873 155.949 94.8632C155.911 94.4391 156.043 94.0172 156.316 93.6904C156.589 93.3636 156.981 93.1586 157.405 93.1205C157.616 93.1033 178.719 91.2536 196.997 93.8609C197.399 93.9186 197.764 94.1261 198.018 94.4419C198.273 94.7576 198.399 95.158 198.37 95.5626C198.341 95.9673 198.161 96.3461 197.864 96.6228C197.568 96.8996 197.177 97.0538 196.772 97.0545L196.771 97.0554Z" fill="white"/>
<path d="M194.156 105.645C194.062 105.645 193.969 105.636 193.877 105.62C180.946 103.421 167.823 102.567 154.717 103.071C154.504 103.088 154.29 103.062 154.088 102.995C153.885 102.928 153.698 102.821 153.537 102.682C153.376 102.542 153.245 102.371 153.151 102.18C153.057 101.988 153.002 101.78 152.989 101.567C152.976 101.354 153.006 101.141 153.076 100.94C153.147 100.739 153.257 100.554 153.399 100.395C153.542 100.237 153.715 100.109 153.908 100.018C154.101 99.9275 154.31 99.8762 154.523 99.8673C167.88 99.3481 181.254 100.217 194.431 102.459C194.826 102.529 195.18 102.744 195.425 103.061C195.669 103.379 195.786 103.777 195.751 104.176C195.717 104.575 195.535 104.948 195.241 105.219C194.946 105.491 194.56 105.643 194.16 105.645H194.156Z" fill="white"/>
<path d="M183.563 114.443C183.413 114.443 183.265 114.422 183.121 114.381C173.31 111.636 163.138 110.401 152.956 110.719C152.745 110.733 152.534 110.705 152.335 110.637C152.135 110.569 151.951 110.462 151.793 110.323C151.473 110.042 151.278 109.645 151.251 109.22C151.224 108.796 151.366 108.377 151.647 108.058C151.928 107.738 152.325 107.543 152.75 107.516C163.301 107.144 173.845 108.419 184.004 111.294C184.376 111.401 184.696 111.638 184.907 111.963C185.118 112.287 185.204 112.677 185.151 113.06C185.097 113.443 184.907 113.794 184.615 114.048C184.324 114.302 183.95 114.442 183.564 114.443H183.563Z" fill="white"/>
<path d="M110.548 195.896L90.3171 243.701H87.9346L103.178 189.072L110.548 195.896Z" fill="#CBCBCB"/>
<path d="M139.375 195.896L159.605 243.701H161.987L146.745 189.072L139.375 195.896Z" fill="#CBCBCB"/>
<path d="M167.909 185.496C176.036 192.512 159.27 210.828 132.989 212.774C106.708 214.719 84.8546 197.248 69.8664 166.918C54.8781 136.588 58.2475 86.0092 97.4413 112.064C131.873 134.953 121.904 184.796 121.904 184.796L167.909 185.496Z" fill="#E9E9E9"/>
</svg>
