<svg width="191" height="150" viewBox="0 0 191 150" fill="none" xmlns="http://www.w3.org/2000/svg">
<path d="M95.5 150C148.243 150 191 147.09 191 143.501C191 139.912 148.243 137.002 95.5 137.002C42.7568 137.002 0 139.912 0 143.501C0 147.09 42.7568 150 95.5 150Z" fill="#E6E6E6"/>
<path d="M38.1226 31.8174L52.9268 117.431C63.16 121.961 73.6754 125.912 87.2349 123.639L151.619 110.55L129.035 11.9501L38.1226 31.8174Z" fill="#FAFAFA"/>
<path d="M32.7613 28.2809L47.5634 113.893L81.8722 120.102L146.257 107.009L128.782 10.7137L32.7613 28.2809Z" fill="#E6E6E6"/>
<path d="M57.1191 105.262L47.5613 113.895C47.5613 113.895 54.2178 118.893 61.5322 120.145C68.253 121.413 75.1542 121.399 81.8696 120.102C81.8696 120.102 66.1476 118.742 57.1191 105.262Z" fill="#979797"/>
<path d="M32.5619 52.6035L68.6909 23.708L62.6527 16.0964L25.6092 44.6543L32.5619 52.6035Z" fill="#979797"/>
<path d="M143.586 30.7649L103.589 7.48553L98.6315 15.8381L138.64 40.0931L143.586 30.7649Z" fill="#979797"/>
<path d="M123.675 43.0901C123.721 43.3355 107.415 46.5341 87.261 50.232C67.1072 53.9299 50.7249 56.7297 50.6798 56.4799C50.6348 56.23 66.9367 53.0355 87.0974 49.3368C107.258 45.638 123.629 42.8424 123.675 43.0901Z" fill="#979797"/>
<path d="M125.775 56.2792C125.82 56.5261 109.516 59.7249 89.3625 63.4228C69.2094 67.1208 52.8257 69.919 52.7811 69.6729C52.7365 69.4269 69.0357 66.2284 89.1964 62.5296C109.357 58.8308 125.729 56.0331 125.775 56.2792Z" fill="#979797"/>
<path d="M128.33 67.8459C128.375 68.0927 112.069 71.2914 91.9152 74.9892C71.7614 78.6871 55.3784 81.4854 55.3338 81.2393C55.2892 80.9933 71.5907 77.795 91.7514 74.0962C111.912 70.3974 128.283 67.5996 128.33 67.8459Z" fill="#979797"/>
<path d="M130.318 79.0689C130.365 79.3144 114.059 82.513 93.9059 86.211C73.7528 89.9089 57.3689 92.7086 57.3222 92.4609C57.2755 92.2131 73.5776 89.0164 93.7383 85.3176C113.899 81.6188 130.273 78.8213 130.318 79.0689Z" fill="#979797"/>
<path d="M161.086 70.6277C157.295 70.8772 153.795 73.0408 151.378 75.9664C149.043 78.9773 147.43 82.482 146.664 86.2113C144.981 93.3506 146.404 101.676 148.644 108.658C156.246 105.684 160.735 97.3632 162.746 92.9995C165.925 86.103 167.474 71.7125 161.085 70.6277" fill="#979797"/>
<path d="M137.849 117.576C140.171 114.03 140.078 109.198 138.046 105.48C136.975 103.646 135.548 102.044 133.85 100.765C132.152 99.4865 130.215 98.5579 128.153 98.0332C126.26 97.5148 124.077 97.3399 122.479 98.477C121.764 99.0544 121.215 99.8122 120.892 100.672C120.568 101.532 120.481 102.462 120.639 103.367C120.982 105.175 121.797 106.86 123.002 108.253C126.893 113.184 131.566 117.249 137.851 117.576" fill="#979797"/>
<path d="M137.727 141.267C137.87 140.783 137.971 140.287 138.026 139.785C138.199 138.728 138.423 137.363 138.693 135.725C139.196 132.312 140.011 127.458 139.12 122.144C138.446 117.601 136.574 113.318 133.694 109.734C132.808 108.669 131.799 107.712 130.688 106.883C130.388 106.658 130.076 106.449 129.754 106.256C129.535 106.122 129.415 106.059 129.404 106.074C130.866 107.235 132.206 108.541 133.402 109.972C136.14 113.556 137.926 117.773 138.592 122.231C139.468 127.434 138.728 132.242 138.319 135.671C138.094 137.389 137.917 138.788 137.819 139.755C137.74 140.255 137.71 140.761 137.727 141.267Z" fill="#CBCBCB"/>
<path d="M158.936 81.4832C158.819 81.6692 158.721 81.867 158.645 82.0733L157.906 83.8036C157.271 85.3113 156.382 87.5017 155.307 90.2204C153.156 95.654 150.289 103.203 147.311 111.608C144.333 120.014 141.814 127.689 140.069 133.266C139.195 136.053 138.507 138.316 138.052 139.886C137.84 140.628 137.67 141.231 137.537 141.696C137.467 141.904 137.418 142.119 137.393 142.338C137.497 142.143 137.58 141.939 137.64 141.727C137.798 141.267 137.999 140.677 138.249 139.946C138.785 138.333 139.523 136.106 140.427 133.381C142.264 127.837 144.84 120.189 147.814 111.785C150.788 103.381 153.598 95.8206 155.659 90.3542C156.671 87.6646 157.498 85.4711 158.097 83.8798C158.363 83.1559 158.577 82.5687 158.745 82.1137C158.831 81.9109 158.895 81.6996 158.936 81.4832Z" fill="#CBCBCB"/>
<path d="M146.374 125.334C148.565 121.426 151.657 118.096 155.395 115.618C159.133 113.14 163.409 111.586 167.869 111.084C170.136 110.85 172.88 111.149 173.956 113.153C175.031 115.158 173.749 117.614 172.253 119.335C169.066 122.87 164.9 125.384 160.282 126.561C155.664 127.738 150.8 127.525 146.303 125.948" fill="#979797"/>
<path d="M164.599 117.256C164.122 117.241 163.646 117.272 163.176 117.35C162.62 117.398 162.067 117.479 161.521 117.594C160.885 117.731 160.142 117.824 159.358 118.068C158.487 118.287 157.63 118.553 156.789 118.865C155.816 119.206 154.864 119.6 153.936 120.047C151.809 121.079 149.805 122.348 147.964 123.829C146.147 125.341 144.511 127.057 143.088 128.943C142.474 129.77 141.909 130.631 141.395 131.522C140.933 132.29 140.517 133.084 140.149 133.901C139.832 134.568 139.551 135.25 139.306 135.946C139.099 136.463 138.927 136.993 138.79 137.532C138.635 137.982 138.525 138.445 138.461 138.915C138.576 138.951 139.06 136.977 140.488 134.063C140.875 133.269 141.304 132.495 141.774 131.747C142.298 130.88 142.868 130.042 143.482 129.236C144.902 127.4 146.518 125.724 148.302 124.237C150.113 122.782 152.074 121.524 154.152 120.485C155.06 120.033 155.991 119.629 156.942 119.275C157.824 118.907 158.682 118.668 159.457 118.427C162.587 117.539 164.615 117.37 164.599 117.256Z" fill="#CBCBCB"/>
<path fill-rule="evenodd" clip-rule="evenodd" d="M16.8516 78.6035C14.367 78.6033 11.9382 79.3382 9.87221 80.7153C7.80627 82.0924 6.19602 84.0497 5.24511 86.3398C4.29419 88.6299 4.04531 91.1499 4.52994 93.5811C5.01457 96.0123 6.21094 98.2455 7.96777 99.9984C9.7246 101.751 11.963 102.945 14.3998 103.429C16.8367 103.912 19.3625 103.664 21.658 102.716C23.9535 101.767 25.9155 100.161 27.2959 98.0995C28.6763 96.0384 29.4131 93.6153 29.4131 91.1365C29.4131 87.8126 28.0896 84.6249 25.7339 82.2746C23.3782 79.9242 20.1832 78.6037 16.8516 78.6035ZM1.49805 91.1365C1.49805 88.1069 2.39852 85.1453 4.08559 82.6263C5.77266 80.1073 8.17056 78.144 10.9761 76.9846C13.7815 75.8252 16.8686 75.5219 19.8469 76.1129C22.8252 76.704 25.561 78.1629 27.7082 80.3051C29.8554 82.4473 31.3177 85.1767 31.9101 88.1481C32.5026 91.1195 32.1985 94.1994 31.0364 96.9984C29.8744 99.7973 27.9065 102.19 25.3816 103.873C22.8567 105.556 19.8882 106.454 16.8516 106.454C12.7796 106.454 8.87435 104.84 5.995 101.968C3.11565 99.0952 1.49805 95.199 1.49805 91.1365Z" fill="#979797"/>
<path fill-rule="evenodd" clip-rule="evenodd" d="M20.4122 82.5205C20.0862 82.4332 19.7389 82.4786 19.4468 82.6468C19.1546 82.8151 18.9416 83.0923 18.8544 83.4175L17.0867 93.6609L12.2836 92.8158C11.9576 92.8872 11.6728 93.0837 11.4909 93.363C11.3089 93.6422 11.2444 93.9818 11.3111 94.3084C11.3779 94.635 11.5706 94.9225 11.8476 95.1088C12.1247 95.2951 12.464 95.3654 12.7922 95.3043L18.3652 95.9927C18.5966 95.9455 18.8102 95.8349 18.9821 95.6734C19.1539 95.5118 19.2773 95.3056 19.3383 95.0779L21.3095 84.0753C21.3964 83.7507 21.3508 83.4047 21.1826 83.1132C21.0144 82.8217 20.7374 82.6086 20.4122 82.5205Z" fill="#979797"/>
</svg>
