<svg width="357" height="377" viewBox="0 0 357 377" fill="none" xmlns="http://www.w3.org/2000/svg">
<g clip-path="url(#clip0)">
<path d="M231.31 335.391H310.57" stroke="black" stroke-miterlimit="10"/>
<path d="M14.4299 327.029H212.15" stroke="black" stroke-miterlimit="10"/>
<path d="M324.51 334.871H356.74" stroke="black" stroke-miterlimit="10"/>
<path d="M69.3 342.711H278.34" stroke="black" stroke-miterlimit="10"/>
<path d="M106.72 219.801C99.41 221.191 92.21 224.941 88.33 231.301C82.18 241.401 85.8601 254.851 81.33 265.771C79.08 271.201 74.98 275.591 71.52 280.341C62.68 292.461 58.1 309.641 66.09 322.331C72.16 331.961 83.71 336.471 94.7 339.451C100.7 341.081 106.79 342.441 112.99 342.911C124.92 343.811 136.84 341.361 148.42 338.321C160.22 335.221 172.67 330.921 179.85 321.061C185.63 313.121 187.02 302.701 186.07 292.921C183.87 270.321 170.6 250.521 157.53 231.961C151.29 223.101 145.36 219.481 134.38 219.091C125.42 218.761 115.49 218.131 106.72 219.801Z" fill="white" stroke="black" stroke-miterlimit="10"/>
<path d="M175.02 287.66C168.98 295.56 159.48 300.23 149.77 302.33C140.06 304.43 130.01 304.23 120.07 304.01" fill="white"/>
<path d="M175.02 287.66C168.98 295.56 159.48 300.23 149.77 302.33C140.06 304.43 130.01 304.23 120.07 304.01" stroke="black" stroke-miterlimit="10"/>
<path d="M99.5801 228.021C94.4401 231.151 93.0001 237.871 92.4101 243.861C91.8301 249.851 91.6101 255.911 90.3301 261.791C89.0501 267.671 86.5801 273.491 82.1901 277.611" fill="white"/>
<path d="M99.5801 228.021C94.4401 231.151 93.0001 237.871 92.4101 243.861C91.8301 249.851 91.6101 255.911 90.3301 261.791C89.0501 267.671 86.5801 273.491 82.1901 277.611" stroke="black" stroke-miterlimit="10"/>
<path d="M171.58 267.34C172.71 270.93 173.84 274.52 174.96 278.11L171.58 267.34Z" fill="white"/>
<path d="M171.58 267.34C172.71 270.93 173.84 274.52 174.96 278.11" stroke="black" stroke-miterlimit="10"/>
<path d="M151.68 223.271C151.57 222.501 151.02 222.431 150.49 222.631C150.1 222.681 149.77 223.001 149.5 223.391C149.47 223.431 149.43 223.461 149.39 223.501C149.43 223.391 149.46 223.291 149.5 223.191C149.62 222.871 149.09 222.641 148.94 222.951C148.54 223.771 148 224.891 148.23 225.831C148.26 225.951 148.31 226.061 148.37 226.161C148.34 226.551 148.41 226.911 148.7 227.141C149.06 227.411 149.43 227.381 149.78 227.171C149.95 227.161 150.12 227.081 150.22 226.941C150.42 226.671 150.59 226.391 150.73 226.101C150.77 226.041 150.81 225.971 150.85 225.901C151.2 225.461 151.48 224.931 151.58 224.471C151.62 224.311 151.63 224.111 151.61 223.921C151.68 223.661 151.7 223.431 151.68 223.271Z" fill="white"/>
<path d="M179.91 297.98C181.2 303.14 180.32 308.82 177.5 313.34L179.91 297.98Z" fill="white"/>
<path d="M179.91 297.98C181.2 303.14 180.32 308.82 177.5 313.34" stroke="black" stroke-miterlimit="10"/>
<path d="M153.37 221.29C153.44 221.24 151.27 219.45 151.11 219.32C149.85 218.33 148.5 217.62 146.9 217.37C146.38 217.29 145.89 217.34 145.37 217.28C144.71 217.2 144.05 217.17 143.39 217.17C142.06 217.17 140.74 217.31 139.42 217.44C139.01 217.48 138.59 217.52 138.18 217.51C137.98 217.51 137.79 217.49 137.59 217.51C137.09 217.55 136.64 217.8 136.16 217.94C135.66 218.08 135.12 218.07 134.61 218.17C133.36 218.39 132.12 218.62 130.87 218.82C129.81 218.99 128.75 219.14 127.68 219.25C126.76 219.34 125.9 219.5 124.97 219.46C123.27 219.4 121.56 219.28 119.86 219.3C118.2 219.32 116.51 219.53 115.01 220.28C113.68 220.94 112.45 221.8 111.35 222.79C111.07 223.04 110.81 223.3 110.54 223.55C111.11 224.29 111.54 225.18 111.89 225.9C112.93 228.02 113.95 230.34 114.26 232.69C114.83 236.95 114.18 241.36 113.12 245.67C113.07 246.73 113.06 247.78 113.06 248.84C113.28 251.62 113.26 254.44 113.3 257.24C113.3 261 113.2 262.53 111.57 265.87C109.81 269.48 108.19 273.18 106.5 276.82C106.38 277.07 106.27 277.34 106.32 277.61C106.39 277.94 106.69 278.16 106.97 278.35C110.81 280.81 115.53 281.45 120.09 281.62C126.57 281.86 133.09 281.29 139.43 279.91C142.59 279.22 146.14 277.98 147.3 274.95C147.79 273.68 147.77 272.29 147.74 270.93C147.57 262.84 147.35 254.72 147.48 246.65C145.91 242.86 144.68 238.88 145.08 234.74C145.44 231.04 146.98 227.19 149.61 224.5C150.11 224 151.6 222.65 153.37 221.29Z" fill="black"/>
<path d="M123.63 214.751C123.91 215.221 124.24 215.651 124.69 215.951C124.92 216.101 125.17 216.221 125.39 216.381C125.87 216.741 125.81 217.221 125.93 217.751C126.02 218.161 126.12 218.661 125.7 218.901C125.53 219.001 125.33 219.041 125.13 219.071C124.37 219.201 123.6 219.221 122.84 219.321C123.12 219.941 123.51 220.561 123.87 221.131C124.27 221.771 124.74 222.371 125.31 222.891C126.22 223.721 127.64 224.601 128.92 224.601C131.25 224.901 133.61 223.861 135.29 222.271C136.55 221.081 137.33 219.271 137.3 217.531C136.68 217.641 135.83 217.821 135.21 217.691C134.73 217.591 134.6 217.101 134.53 216.661C134.19 214.461 133.78 212.271 133.3 210.101C133.06 209.001 132.8 207.901 132.53 206.811C132.28 205.821 131.91 204.941 131.53 203.991C130.96 202.581 130.23 201.081 128.85 200.461C127.21 199.721 123.77 200.541 122.26 201.571C118.79 203.931 120.88 208.311 122.04 211.331C122.4 212.281 122.82 213.201 123.29 214.101C123.4 214.341 123.51 214.551 123.63 214.751Z" fill="#FFD3C1"/>
<path d="M109.94 365.052C109.54 361.752 109.14 358.452 108.74 355.152C108.69 354.702 108.31 354.292 107.81 354.442C104.31 355.512 100.77 356.172 97.1901 356.872C96.4501 357.022 96.5601 358.092 97.2101 358.252C97.3801 359.632 97.6401 360.992 97.9001 362.352C98.0701 363.242 98.5601 364.732 97.9501 365.552C97.5601 366.072 96.6201 366.432 96.0901 366.732C93.8701 368.022 91.5201 369.422 89.6001 371.142C88.4801 372.142 87.4401 373.812 88.4601 375.272C89.4901 376.742 91.4701 376.052 92.8701 375.702C95.9201 374.942 98.9601 374.132 101.98 373.272C103.56 372.822 105.13 372.362 106.7 371.882C107.62 371.602 108.95 371.442 109.74 370.852C111.29 369.702 110.13 366.612 109.94 365.052Z" fill="black"/>
<path d="M126.82 360.311C127.56 360.951 128.88 361.211 129.77 361.551C131.3 362.141 132.84 362.721 134.38 363.281C137.33 364.361 140.3 365.391 143.29 366.361C144.67 366.811 146.59 367.651 147.72 366.251C148.85 364.861 147.93 363.121 146.88 362.051C145.09 360.191 142.85 358.631 140.73 357.181C140.23 356.831 139.31 356.411 138.96 355.871C138.41 355.011 139.01 353.561 139.24 352.691C139.6 351.351 139.96 350.011 140.23 348.651C140.89 348.531 141.08 347.471 140.35 347.271C136.82 346.311 133.35 345.401 129.93 344.081C129.44 343.891 129.04 344.271 128.95 344.721C128.31 347.981 127.68 351.251 127.04 354.511C126.75 356.061 125.37 359.051 126.82 360.311Z" fill="black"/>
<path d="M166.82 309.52C166.2 301.12 162.29 293.36 158.46 285.86C156.42 281.88 153.76 276.71 149.39 274.81C145.35 273.05 140.03 275.98 135.9 276.71C127.16 278.26 118.17 278.08 109.36 277C101.52 276.04 96.9501 278.62 90.9901 282.98C87.0401 285.87 83.2701 289.03 79.8401 292.53C77.3701 295.05 72.8201 298.55 72.0701 302.19C71.4901 305 72.3401 307.88 73.1901 310.62C78.0501 326.24 83.4601 341.69 89.3901 356.94C89.7401 357.83 89.3101 358.17 88.9201 358.3C88.7201 358.37 90.9801 362.52 91.0701 362.73L112.85 356.63L111.98 349.66L110.54 350.31C110.54 350.31 103.65 330.88 100.21 321.16C99.5701 319.35 96.4301 313.69 97.0001 311.93C97.4901 310.41 102.68 308.48 104.11 307.63C109.72 304.32 115.19 300.8 120.52 297.06C121.61 296.29 122.79 295.64 124.05 295.2C127.57 293.97 129.19 295.08 131.36 296.74C133.06 298.04 134.97 299.27 136.81 300.57C140.71 303.32 139.17 305.24 137.74 309.39C136.24 313.72 134.67 318.02 133.01 322.29C131.74 325.56 130.4 328.81 129.12 332.08C128.47 333.74 127.83 335.4 127.23 337.07C126.68 338.59 126.38 340.12 125.88 341.63C125.13 341.72 124.37 341.65 123.66 341.42C123.61 341.87 122.56 345.25 122.15 346.68C124.38 347.5 126.91 347.95 129.14 348.54C131.64 349.2 134.16 349.79 136.65 350.48C139.34 351.23 141.96 352.24 144.63 353.08C145.2 353.26 145.79 353.4 146.38 353.54C147.02 352.71 147.65 351.87 148.24 351C148.89 350.03 149.46 349.01 150.08 348.03C149.91 348.01 149.79 347.86 149.68 347.73C149.44 347.42 149.21 347.11 148.97 346.8C148.93 346.75 148.89 346.69 148.89 346.63C148.89 346.59 148.91 346.54 148.94 346.51C151.11 342.6 153.13 338.36 155.74 334.71C157.74 331.92 159.48 328.96 160.76 325.77C162.33 321.84 165.22 318.21 166.36 313.97C166.73 312.52 166.93 311 166.82 309.52Z" fill="#ED313E"/>
<path d="M149.59 250.82C149.7 251.25 149.82 251.68 149.92 252.1C150.5 254.35 149.94 256.59 150.36 258.85C150.7 260.65 150.84 262.68 151.6 264.39C152.14 265.59 152.97 266.63 153.72 267.72C153.85 267.91 153.95 268.22 153.74 268.31C153.4 268.46 151.92 266.43 151.63 266.08C150.75 265.01 149.72 264.21 148.58 263.44C148.2 263.18 147.81 262.92 147.37 262.75C145.98 262.22 144.33 262.06 143.14 261.09C142.64 260.68 142.26 260.14 141.75 259.73C140.94 259.07 139.88 258.8 138.91 258.39C137.41 257.75 136.09 256.74 134.75 255.81C134.19 255.42 133.61 255.04 132.96 254.85C131.75 254.5 130.45 255.08 130.19 256.39C130.08 256.97 130.18 257.56 130.34 258.12C130.53 258.77 130.8 259.39 131.14 259.98C132.34 262.03 134.38 263.49 135.58 265.53C135.91 266.09 136.17 266.69 136.52 267.24C137.3 268.51 138.46 269.48 139.57 270.45C140.72 271.46 141.63 272.5 142.55 273.71C144.48 276.23 146.57 278.68 149.07 280.65C150.69 281.93 152.49 282.99 154.44 283.68C156.1 284.26 157.86 284.56 159.62 284.57C161.59 284.57 163.69 283.98 164.49 282.09C165.41 279.92 165.98 277.64 166.1 275.28C166.26 272.18 166.28 269 166.13 265.89C166.03 263.79 165.82 261.69 165.61 259.6C165.39 257.43 165.18 255.26 164.96 253.09C164.77 251.17 164.58 249.25 164.19 247.36C163.2 242.57 155.7 224.67 149.52 235.39C146.82 240.09 148.28 245.82 149.59 250.82Z" fill="#FFD3C1"/>
<path d="M110.44 251.102C110.42 251.192 110.41 251.292 110.39 251.382C110.33 251.872 110.34 252.372 110.36 252.862C110.51 256.852 110.42 261.782 107.68 264.972C107.27 265.452 105.96 266.402 105.84 267.002C105.64 268.022 106.59 267.212 106.96 266.712C107.77 265.622 108.75 264.632 109.92 263.942C110.77 263.442 111.7 263.102 112.58 262.662C116.35 260.772 119.87 258.472 123.62 256.562C124.77 255.972 128.69 253.432 129.1 256.082C129.43 258.222 126.29 260.702 125.06 262.142C124.68 262.582 124.32 263.052 124.09 263.582C123.9 264.032 123.82 264.522 123.69 264.992C122.87 267.962 119.87 270.052 117.75 272.102C115.28 274.482 112.7 276.762 109.85 278.672C107.36 280.342 100.16 284.892 97.0201 283.292C93.9801 281.752 93.7001 274.172 93.7601 271.352C93.8401 267.232 94.6801 263.182 95.2601 259.102C95.9701 254.112 96.3001 248.962 98.3901 244.382C99.3101 242.382 100.51 240.362 102.06 238.782C103.32 237.502 105.13 235.602 106.98 235.452C108.47 235.322 110 236.092 110.79 237.362C111.71 238.832 111.6 240.702 111.46 242.432C111.26 244.932 111.23 247.622 110.68 250.062C110.6 250.422 110.5 250.762 110.44 251.102Z" fill="#FFD3C1"/>
<path d="M162.49 240.321C160.75 233.771 158.44 227.131 154.02 222.031C152.06 223.511 150.33 225.001 149.93 225.441C147.33 228.311 145.94 232.341 145.86 236.161C145.78 239.841 147.02 243.401 148.46 246.771C148.65 246.641 148.87 246.541 149.08 246.441C153.19 244.681 157.4 243.141 161.69 241.841C161.99 241.751 162.3 241.641 162.47 241.391C162.67 241.081 162.58 240.671 162.49 240.321Z" fill="black"/>
<path d="M113.42 237.45C113.63 234.21 113.25 231.45 112.04 228.43C111.66 227.49 110.98 225.39 109.96 224.08C103.83 230.2 99.96 238.27 96.24 246.14C101.24 247.14 106.23 248.14 111.23 249.14C112.3 245.31 113.16 241.42 113.42 237.45Z" fill="black"/>
<path d="M130.13 200.221C129.51 199.531 128.69 199.031 127.73 198.901C126.44 198.721 125.12 198.891 123.83 198.891C122.22 198.881 120.74 198.241 119.17 198.191C117.78 198.151 116.45 199.001 116.57 200.551C116.65 201.531 117.38 202.211 117.93 202.981C119.07 204.601 119.74 206.371 120 208.341C120.01 208.401 120.01 208.461 120.02 208.521C120.15 209.281 121.48 209.111 121.38 208.341C121.37 208.281 121.36 208.221 121.35 208.161C121.2 207.271 121.32 206.461 121.64 205.751C124.05 205.361 126.84 202.411 129.25 202.671C129.38 202.731 129.51 202.791 129.63 202.871C130.79 203.601 131.13 204.911 131.47 206.181C131.72 207.081 133 206.691 132.85 205.801C132.48 203.681 131.82 201.281 130.13 200.221Z" fill="black"/>
<path d="M133.77 204.98C133 204.26 131.39 204.78 130.77 205.49C130.38 205.93 130.22 206.74 130.49 207.2C130.47 207.99 130.98 208.73 131.79 208.91C132.7 209.11 133.94 208.72 134.44 207.9C135.03 206.98 134.52 205.67 133.77 204.98Z" fill="#FFD3C1"/>
<path d="M122.69 208.11C122.72 207.97 122.69 207.82 122.55 207.75C121.95 207.45 121.29 207.34 120.66 207.67C120.04 208 119.71 208.67 119.83 209.35C120.06 210.66 121.44 211.87 122.71 210.97C123.75 210.25 123.55 208.83 122.69 208.11Z" fill="#FFD3C1"/>
<path d="M127.53 253.042C127.25 253.002 126.99 253.062 126.75 253.172C125.72 253.332 124.9 254.652 124.34 255.402C123.96 255.912 123.54 256.462 123.69 257.132C123.81 257.692 124.27 258.052 124.85 257.992C125.07 257.972 125.34 257.842 125.38 257.582C125.39 257.542 125.39 257.502 125.4 257.462C125.42 257.362 125.4 257.262 125.36 257.172C125.8 257.002 126.11 256.512 126.35 256.092C126.79 255.312 127.26 254.602 127.9 253.962C128.28 253.592 127.97 253.092 127.53 253.042Z" fill="#ED926E"/>
<path d="M132.09 261.7H127.59C126.67 261.7 125.92 260.95 125.92 260.03V246.82C125.92 245.9 126.67 245.15 127.59 245.15H132.09C133.01 245.15 133.76 245.9 133.76 246.82V260.03C133.76 260.96 133.01 261.7 132.09 261.7Z" fill="white"/>
<path d="M129.44 253.89C130.41 253.77 131.39 253.85 132.36 253.92C133.12 253.98 133.98 254.09 134.42 254.71C134.76 255.18 134.75 255.81 134.72 256.39C134.69 256.96 134.66 257.55 134.44 258.07C133.85 259.41 132.2 259.89 130.75 260C129.29 260.11 127.72 260.04 126.5 260.85C126.08 261.13 125.65 261.52 125.16 261.43C124.66 261.35 124.37 260.81 124.24 260.32C123.28 256.81 126.19 254.28 129.44 253.89Z" fill="#ED926E"/>
<path d="M134.53 253.73C134.49 253.68 134.4 253.71 134.42 253.77C135.06 255.3 134.46 257.52 133.67 258.89C133.59 259.03 133.79 259.21 133.91 259.07C134.91 257.88 135.53 255.08 134.53 253.73Z" fill="black"/>
<path d="M129.84 246.58C128.9 246.58 128.9 248.04 129.84 248.04C130.78 248.04 130.78 246.58 129.84 246.58Z" fill="black"/>
<path d="M132.41 206.24C132.13 206.06 131.83 206.46 132.06 206.7C132.22 206.86 132.26 207.06 132.3 207.28C132.32 207.4 132.43 207.48 132.53 207.51C132.59 207.53 132.65 207.52 132.71 207.51C132.86 207.49 132.95 207.32 132.96 207.19C132.98 206.76 132.76 206.46 132.41 206.24Z" fill="black"/>
<path d="M121.3 209.71C121.16 209.53 121.14 209.35 121.24 209.17C121.34 208.89 120.87 208.68 120.75 208.96C120.57 209.38 120.52 210.28 121.25 210.08C121.43 210.04 121.44 209.81 121.3 209.71Z" fill="black"/>
<path d="M90.66 357.201C97.17 354.701 103.73 352.351 110.35 350.141" stroke="black" stroke-miterlimit="10"/>
<path d="M148.91 346.99C146.88 345.44 144.38 344.66 141.91 343.99C137.24 342.73 132.49 341.78 127.69 341.16" stroke="black" stroke-miterlimit="10"/>
<path d="M143.75 294.791C141.3 298.421 139.87 303.021 138.58 307.161C138.54 307.291 138.74 307.341 138.78 307.221C140.29 303.001 142.5 299.101 144.13 294.951C144.22 294.721 143.87 294.601 143.75 294.791Z" fill="black"/>
<path d="M93.14 305.1C92.97 304.89 92.6 305.12 92.69 305.36C93.29 307.05 94.33 308.58 95.11 310.2C96.09 312.24 96.97 314.34 97.72 316.48C97.78 316.64 98.03 316.58 97.98 316.41C96.84 312.74 95.58 308.14 93.14 305.1Z" fill="black"/>
<path d="M163.23 310.521C163.06 310.251 162.62 310.291 162.54 310.611C162.3 311.531 161.75 312.191 160.78 312.391C159.72 312.611 158.69 311.911 158.78 310.781C158.81 310.471 158.31 310.411 158.24 310.711C157.9 312.201 159.17 313.361 160.63 313.281C161.77 313.201 164.07 311.901 163.23 310.521Z" fill="black"/>
<path d="M78.04 306.971C77.44 307.161 77.17 307.731 76.46 307.701C76.08 307.691 75.72 307.511 75.45 307.231C75.27 307.041 75.11 306.431 74.92 306.371C74.98 306.341 75.04 306.301 75.05 306.221C75.05 306.201 75.06 306.181 75.06 306.171C75.09 306.011 75.02 305.891 74.87 305.831C74.85 305.821 74.82 305.811 74.8 305.801C74.71 305.761 74.57 305.811 74.51 305.881C73.77 306.681 75 308.071 75.72 308.381C76.59 308.751 78.42 308.511 78.52 307.341C78.52 307.091 78.25 306.901 78.04 306.971Z" fill="black"/>
<path d="M163.52 277.13C163.49 276.74 162.97 276.66 162.84 277.04C162.53 277.9 162.42 278.93 161.68 279.56C161.03 280.12 159.75 280.15 159.42 279.21C159.29 278.85 158.76 278.99 158.85 279.37C159.14 280.52 160.46 280.99 161.53 280.65C162.9 280.22 163.63 278.47 163.52 277.13Z" fill="black"/>
<path d="M99.26 279.44C98.68 279.45 98.12 279.71 97.57 279.37C97.02 279.03 96.89 278.34 97.08 277.76C97.22 277.36 96.61 277.22 96.46 277.59C96.12 278.42 96.37 279.43 97.09 279.99C97.73 280.48 99.05 280.7 99.48 279.83C99.57 279.66 99.47 279.43 99.26 279.44Z" fill="black"/>
<path opacity="0.15" d="M319.53 232.88H191.28C177.69 232.88 166.67 221.1 166.67 206.57L148.95 210.86L166.67 181.51V46.81C166.67 32.28 177.69 20.5 191.28 20.5H319.53C333.12 20.5 344.14 32.28 344.14 46.81V206.57C344.14 221.1 333.12 232.88 319.53 232.88Z" fill="#ED313E"/>
<path d="M318.08 228.49H192.03C180.45 228.49 171.07 219.11 171.07 207.53V46.1299C171.07 34.5499 180.45 25.1699 192.03 25.1699H318.08C329.66 25.1699 339.04 34.5499 339.04 46.1299V207.53C339.05 219.1 329.66 228.49 318.08 228.49Z" fill="white" stroke="black" stroke-miterlimit="10"/>
<path d="M302.18 89.4305C304.47 89.1105 306.7 88.5405 308.79 87.5505C315.91 84.1705 317.53 75.5705 317.58 68.4505C317.64 60.9905 317.5 50.2705 311.87 44.8105C308.04 41.1005 302.7 39.3005 297.4 38.7005C292.1 38.1005 286.75 38.5905 281.42 38.8405C276.63 39.0705 271.83 39.1105 267.03 39.1505C248.36 39.3105 229.68 39.4805 211.01 39.6405C204.35 39.7005 197.8 39.6905 191.24 40.9505C184.05 42.3405 181.59 45.4805 180.92 53.0205C180.21 61.0505 175.76 88.7405 186.81 90.0605C199.6 91.5805 212.54 90.6805 225.45 90.5505C248.2 90.3305 270.95 90.1005 293.7 89.8805C296.52 89.8605 299.4 89.8205 302.18 89.4305Z" fill="#E6E6E6"/>
<path d="M244.15 62.4601C244.17 62.1001 243.95 61.7401 243.52 61.8001C229.51 61.4201 215.32 61.6501 201.31 62.1201C200.87 62.1301 200.87 62.7901 201.31 62.8101C215.32 63.2801 229.51 63.5101 243.52 63.1301C243.96 63.1801 244.17 62.8201 244.15 62.4601Z" fill="white"/>
<path d="M243.97 67.48C236.84 67.25 229.67 67.46 222.53 67.47C215.48 67.48 208.08 66.88 201.09 67.79C200.65 67.85 200.65 68.42 201.09 68.48C208.08 69.38 215.48 68.79 222.53 68.8C229.67 68.81 236.84 69.02 243.97 68.79C244.82 68.75 244.78 67.39 243.97 67.48Z" fill="white"/>
<path d="M244.17 72.9216C240.67 72.4616 236.93 72.7916 233.4 72.8016C229.81 72.8016 226.22 72.8016 222.63 72.8116C215.55 72.8316 208.12 72.2516 201.09 73.1216C200.5 73.1916 200.5 73.9716 201.09 74.0416C208.12 74.9016 215.55 74.3316 222.63 74.3516C226.05 74.3616 229.47 74.3616 232.89 74.3616C236.59 74.3616 240.51 74.7216 244.17 74.2416C245.02 74.1216 245.02 73.0316 244.17 72.9216Z" fill="white"/>
<path d="M237.74 83.8411C237.54 82.9311 236.47 82.6311 235.65 82.6311C234.84 82.6211 233.82 82.8811 233.49 83.7011C233.12 84.6211 233.85 85.4611 234.7 85.7111C234.76 85.7311 234.81 85.7211 234.86 85.7111C235.44 85.8711 236.13 85.8611 236.55 85.7111C237.31 85.4511 237.92 84.6611 237.74 83.8411Z" fill="white"/>
<path d="M244.01 83.8411C243.81 82.9311 242.74 82.6311 241.92 82.6311C241.11 82.6211 240.09 82.8811 239.76 83.7011C239.39 84.6211 240.12 85.4611 240.97 85.7111C241.03 85.7311 241.08 85.7211 241.13 85.7111C241.71 85.8711 242.4 85.8611 242.82 85.7111C243.58 85.4511 244.19 84.6611 244.01 83.8411Z" fill="white"/>
<path d="M229.14 82.7619C228.21 82.6619 226.72 83.1019 226.4 84.1119C226.25 84.5919 226.49 85.2819 226.9 85.7019C226.92 85.7219 226.94 85.7319 226.96 85.7519C227.12 85.9019 227.3 86.0119 227.49 86.0519C228.01 86.2419 228.65 86.2619 229.12 86.2619C230.11 86.2619 231.54 85.9119 231.46 84.6319C231.4 83.5319 230.1 82.8719 229.14 82.7619Z" fill="white"/>
<path d="M212.59 55.581C212.3 55.041 212 54.511 211.71 53.971C211.87 53.861 212.02 53.741 212.18 53.631C212.75 53.221 212.42 52.331 211.7 52.481C211.46 52.531 211.21 52.561 210.97 52.611C210.85 52.381 210.72 52.161 210.6 51.931C210.42 51.591 209.9 51.601 209.72 51.931C209.54 52.251 209.37 52.571 209.2 52.891C208.55 52.971 207.9 53.041 207.24 53.081C206.66 53.121 206.33 53.951 206.92 54.251C207.38 54.481 207.84 54.691 208.3 54.901C208.11 55.041 207.91 55.181 207.72 55.321C207.03 55.761 207.71 56.881 208.36 56.411L209.61 55.501C210.38 55.831 211.15 56.151 211.93 56.451C212.43 56.651 212.82 56.011 212.59 55.581Z" fill="black"/>
<path d="M221.52 53.0215C221.18 53.0115 220.83 53.0115 220.49 53.0115H220.48C220.4 53.0115 220.33 53.0115 220.25 53.0115C220.06 52.6215 219.79 52.0315 219.34 51.9115C218.76 51.7515 218.51 52.4015 218.3 52.8115C218.27 52.8715 218.23 52.9415 218.19 53.0115C217.56 52.9815 216.85 52.9115 216.33 53.2415C216 53.4515 215.96 53.9615 216.33 54.1715C216.38 54.2515 216.45 54.3215 216.56 54.3715C216.81 54.4915 217.08 54.5815 217.34 54.6715C217.35 54.6815 217.36 54.6815 217.38 54.6915C217.26 54.9115 217.16 55.1415 217.08 55.3715C216.94 55.5015 216.82 55.6515 216.71 55.8415C216.47 56.2615 216.97 56.8415 217.41 56.5415C217.77 56.2915 218.14 56.0615 218.51 55.8215C218.71 55.7215 218.91 55.6215 219.11 55.5115C219.63 55.7415 220.15 55.9715 220.66 56.1915C220.98 56.3315 221.28 56.1915 221.44 55.9715C221.45 55.9615 221.46 55.9415 221.47 55.9315C221.48 55.9215 221.49 55.9015 221.5 55.8915C221.62 55.7115 221.65 55.5015 221.51 55.3015H221.52C221.37 55.0015 221.2 54.7115 221.03 54.4215C221.32 54.2315 221.61 54.0415 221.87 53.8415C222.21 53.5615 221.9 53.0315 221.52 53.0215Z" fill="black"/>
<path d="M232.1 55.581C231.81 55.041 231.51 54.511 231.22 53.971C231.38 53.861 231.53 53.741 231.69 53.631C232.26 53.221 231.93 52.331 231.21 52.481C230.97 52.531 230.72 52.561 230.48 52.611C230.36 52.381 230.23 52.161 230.11 51.931C229.93 51.591 229.41 51.601 229.23 51.931C229.05 52.251 228.88 52.571 228.71 52.891C228.06 52.971 227.41 53.041 226.75 53.081C226.17 53.121 225.84 53.951 226.43 54.251C226.89 54.481 227.35 54.691 227.81 54.901C227.62 55.041 227.42 55.181 227.23 55.321C226.54 55.761 227.22 56.881 227.87 56.411L229.12 55.501C229.89 55.831 230.66 56.151 231.44 56.451C231.94 56.651 232.33 56.011 232.1 55.581Z" fill="black"/>
<path d="M241.03 53.0215C240.69 53.0115 240.34 53.0115 240 53.0115H239.99C239.91 53.0115 239.84 53.0115 239.76 53.0115C239.57 52.6215 239.3 52.0315 238.85 51.9115C238.27 51.7515 238.02 52.4015 237.81 52.8115C237.78 52.8715 237.74 52.9415 237.7 53.0115C237.07 52.9815 236.36 52.9115 235.84 53.2415C235.51 53.4515 235.47 53.9615 235.84 54.1715C235.89 54.2515 235.96 54.3215 236.07 54.3715C236.32 54.4915 236.59 54.5815 236.85 54.6715C236.86 54.6815 236.87 54.6815 236.89 54.6915C236.77 54.9115 236.67 55.1415 236.59 55.3715C236.45 55.5015 236.33 55.6515 236.22 55.8415C235.98 56.2615 236.48 56.8415 236.92 56.5415C237.28 56.2915 237.65 56.0615 238.02 55.8215C238.22 55.7215 238.42 55.6215 238.62 55.5115C239.14 55.7415 239.66 55.9715 240.17 56.1915C240.49 56.3315 240.79 56.1915 240.95 55.9715C240.96 55.9615 240.97 55.9415 240.98 55.9315C240.99 55.9215 241 55.9015 241.01 55.8915C241.13 55.7115 241.16 55.5015 241.02 55.3015H241.03C240.88 55.0015 240.71 54.7115 240.54 54.4215C240.83 54.2315 241.12 54.0415 241.38 53.8415C241.72 53.5615 241.41 53.0315 241.03 53.0215Z" fill="black"/>
<path d="M326.48 144.219C328.1 143.219 329.44 141.869 330.3 139.999C331.5 137.419 331.84 134.529 332 131.689C332.37 124.989 331.8 117.809 330.58 111.239C329.91 107.669 326.97 104.859 323.65 103.409C316.38 100.239 307.2 101.479 299.49 101.449C290.65 101.419 281.81 101.409 272.96 101.449C262.03 101.489 251.1 101.579 240.18 101.729C234.72 101.799 229.25 101.959 223.79 101.979C218.59 102.009 213.69 100.039 208.37 100.639C203.74 101.159 199.09 103.339 196.6 107.289C194.9 109.999 194.35 113.259 193.85 116.419C193.29 119.939 192.72 123.509 193.01 127.059C193.97 138.999 204.05 147.039 215.69 147.299C221.39 147.429 227.09 147.559 232.78 147.689C258.31 148.279 283.91 148.539 309.4 147.189C314.56 146.939 321.75 147.129 326.48 144.219Z" fill="#E6E6E6"/>
<path d="M297.44 118.7C297.45 118.36 297.25 118.01 296.84 118.07C283.41 117.7 269.82 117.92 256.39 118.37C255.97 118.38 255.97 119.01 256.39 119.03C269.81 119.48 283.41 119.7 296.84 119.33C297.25 119.39 297.45 119.04 297.44 118.7Z" fill="white"/>
<path d="M297.26 123.508C290.43 123.288 283.55 123.488 276.72 123.498C269.97 123.508 262.88 122.938 256.18 123.798C255.76 123.848 255.76 124.398 256.18 124.458C262.88 125.328 269.97 124.758 276.72 124.758C283.56 124.768 290.43 124.968 297.26 124.748C298.08 124.728 298.04 123.418 297.26 123.508Z" fill="white"/>
<path d="M297.46 128.719C294.1 128.279 290.52 128.599 287.14 128.599C283.7 128.599 280.26 128.599 276.82 128.609C270.03 128.629 262.91 128.079 256.18 128.899C255.61 128.969 255.61 129.709 256.18 129.779C262.92 130.609 270.04 130.059 276.82 130.069C280.1 130.079 283.37 130.079 286.65 130.079C290.19 130.079 293.95 130.429 297.46 129.959C298.27 129.869 298.27 128.829 297.46 128.719Z" fill="white"/>
<path d="M291.29 139.19C291.09 138.32 290.08 138.03 289.29 138.03C288.52 138.02 287.54 138.27 287.22 139.06C286.87 139.95 287.57 140.74 288.38 140.99C288.44 141.01 288.49 141 288.54 140.99C289.1 141.14 289.75 141.13 290.16 140.99C290.88 140.73 291.47 139.97 291.29 139.19Z" fill="white"/>
<path d="M297.3 139.19C297.1 138.32 296.09 138.03 295.3 138.03C294.53 138.02 293.55 138.27 293.23 139.06C292.88 139.95 293.58 140.74 294.39 140.99C294.45 141.01 294.5 141 294.55 140.99C295.11 141.14 295.76 141.13 296.17 140.99C296.9 140.73 297.48 139.97 297.3 139.19Z" fill="white"/>
<path d="M283.06 138.159C282.17 138.059 280.74 138.479 280.43 139.449C280.28 139.909 280.51 140.569 280.91 140.969C280.93 140.989 280.95 140.999 280.97 141.019C281.12 141.159 281.29 141.269 281.48 141.309C281.98 141.489 282.59 141.509 283.05 141.509C284 141.509 285.37 141.169 285.29 139.949C285.22 138.889 283.97 138.249 283.06 138.159Z" fill="white"/>
<path d="M267.2 112.109C266.92 111.599 266.64 111.079 266.36 110.569C266.51 110.459 266.66 110.349 266.81 110.239C267.36 109.839 267.04 108.989 266.35 109.139C266.12 109.189 265.88 109.219 265.65 109.259C265.53 109.039 265.41 108.829 265.29 108.609C265.11 108.289 264.62 108.289 264.44 108.609C264.27 108.909 264.1 109.219 263.94 109.529C263.32 109.609 262.69 109.669 262.06 109.709C261.51 109.739 261.19 110.549 261.76 110.829C262.2 111.049 262.64 111.249 263.08 111.449C262.89 111.589 262.71 111.719 262.52 111.859C261.86 112.279 262.51 113.349 263.13 112.899L264.33 112.029C265.06 112.349 265.8 112.659 266.56 112.939C267.04 113.129 267.42 112.509 267.2 112.109Z" fill="black"/>
<path d="M275.75 109.65C275.42 109.64 275.09 109.64 274.76 109.64H274.75C274.68 109.64 274.61 109.64 274.53 109.64C274.35 109.27 274.09 108.7 273.66 108.59C273.1 108.43 272.86 109.06 272.67 109.45C272.64 109.51 272.6 109.58 272.57 109.64C271.97 109.61 271.28 109.54 270.79 109.86C270.48 110.06 270.44 110.55 270.79 110.75C270.84 110.83 270.9 110.89 271.01 110.94C271.25 111.05 271.5 111.14 271.76 111.23C271.77 111.24 271.78 111.24 271.8 111.25C271.69 111.47 271.59 111.68 271.51 111.9C271.38 112.03 271.26 112.17 271.16 112.35C270.93 112.75 271.41 113.3 271.83 113.02C272.17 112.78 272.53 112.56 272.88 112.33C273.07 112.23 273.26 112.13 273.45 112.04C273.95 112.26 274.44 112.48 274.94 112.7C275.25 112.83 275.53 112.7 275.69 112.49C275.7 112.48 275.71 112.47 275.72 112.45C275.73 112.44 275.74 112.42 275.74 112.41C275.85 112.24 275.89 112.03 275.75 111.84H275.76C275.61 111.55 275.45 111.28 275.29 111C275.57 110.82 275.84 110.64 276.09 110.44C276.41 110.17 276.12 109.66 275.75 109.65Z" fill="black"/>
<path d="M285.89 112.109C285.61 111.599 285.33 111.079 285.05 110.569C285.2 110.459 285.35 110.349 285.5 110.239C286.05 109.839 285.73 108.989 285.04 109.139C284.81 109.189 284.57 109.219 284.34 109.259C284.22 109.039 284.1 108.829 283.98 108.609C283.8 108.289 283.31 108.289 283.13 108.609C282.96 108.909 282.79 109.219 282.63 109.529C282.01 109.609 281.38 109.669 280.75 109.709C280.2 109.739 279.88 110.549 280.45 110.829C280.89 111.049 281.33 111.249 281.77 111.449C281.58 111.589 281.4 111.719 281.21 111.859C280.55 112.279 281.2 113.349 281.82 112.899L283.02 112.029C283.75 112.349 284.49 112.659 285.25 112.939C285.74 113.129 286.11 112.509 285.89 112.109Z" fill="black"/>
<path d="M294.44 109.65C294.11 109.64 293.78 109.64 293.45 109.64H293.44C293.37 109.64 293.3 109.64 293.22 109.64C293.04 109.27 292.78 108.7 292.35 108.59C291.79 108.43 291.55 109.06 291.36 109.45C291.33 109.51 291.29 109.58 291.26 109.64C290.66 109.61 289.97 109.54 289.48 109.86C289.17 110.06 289.13 110.55 289.48 110.75C289.53 110.83 289.59 110.89 289.7 110.94C289.94 111.05 290.19 111.14 290.45 111.23C290.46 111.24 290.47 111.24 290.49 111.25C290.38 111.47 290.28 111.68 290.2 111.9C290.07 112.03 289.95 112.17 289.85 112.35C289.62 112.75 290.1 113.3 290.52 113.02C290.86 112.78 291.22 112.56 291.57 112.33C291.76 112.23 291.95 112.13 292.14 112.04C292.64 112.26 293.13 112.48 293.63 112.7C293.94 112.83 294.22 112.7 294.38 112.49C294.39 112.48 294.4 112.47 294.41 112.45C294.42 112.44 294.43 112.42 294.43 112.41C294.54 112.24 294.58 112.03 294.44 111.84H294.45C294.3 111.55 294.14 111.28 293.98 111C294.26 110.82 294.53 110.64 294.78 110.44C295.1 110.17 294.81 109.66 294.44 109.65Z" fill="black"/>
<path d="M319.39 177.639C318.81 173.729 319.05 169.389 317.15 165.849C316.03 163.769 314.48 161.189 312.39 159.989C309.86 158.539 306.9 158.099 304.01 157.719C287.48 155.549 271.16 155.849 254.61 155.249C237.66 154.629 220.59 155.309 203.67 156.519C202.79 156.579 201.91 156.649 201.03 156.719C198.08 156.949 195.07 157.209 192.33 158.329C187.5 160.309 184.04 164.789 182.2 169.669C180.35 174.549 179.93 179.829 179.69 185.039C179.18 196.069 190.08 201.479 199.96 201.709C205.78 201.839 211.61 201.969 217.43 202.099C243.52 202.689 269.68 202.949 295.73 201.599C300.03 201.379 304.14 200.669 308.39 200.129C310.25 199.889 311.91 199.869 313.41 199.429C314.81 199.019 316.08 198.249 317.25 196.629C321.1 191.249 320.3 183.779 319.39 177.639Z" fill="#E6E6E6"/>
<path d="M252.34 174.019C252.36 173.659 252.14 173.299 251.71 173.359C237.7 172.979 223.51 173.209 209.5 173.679C209.06 173.689 209.06 174.349 209.5 174.369C223.51 174.839 237.7 175.069 251.71 174.689C252.14 174.739 252.35 174.379 252.34 174.019Z" fill="white"/>
<path d="M252.15 179.039C245.02 178.809 237.85 179.019 230.71 179.029C223.66 179.039 216.26 178.439 209.27 179.349C208.83 179.409 208.83 179.979 209.27 180.039C216.26 180.939 223.66 180.349 230.71 180.359C237.85 180.369 245.02 180.579 252.15 180.349C253 180.319 252.97 178.949 252.15 179.039Z" fill="white"/>
<path d="M252.36 184.48C248.86 184.02 245.12 184.35 241.59 184.36C238 184.36 234.41 184.36 230.82 184.37C223.74 184.39 216.31 183.81 209.28 184.68C208.69 184.75 208.69 185.53 209.28 185.6C216.31 186.46 223.74 185.89 230.82 185.91C234.24 185.92 237.66 185.92 241.08 185.92C244.78 185.92 248.7 186.28 252.36 185.8C253.2 185.68 253.2 184.59 252.36 184.48Z" fill="white"/>
<path d="M245.92 195.4C245.72 194.49 244.65 194.19 243.83 194.19C243.02 194.18 242 194.44 241.67 195.26C241.3 196.18 242.03 197.02 242.88 197.27C242.94 197.29 242.99 197.28 243.04 197.27C243.62 197.43 244.31 197.42 244.73 197.27C245.5 197.01 246.11 196.22 245.92 195.4Z" fill="white"/>
<path d="M252.19 195.4C251.99 194.49 250.92 194.19 250.1 194.19C249.29 194.18 248.27 194.44 247.94 195.26C247.57 196.18 248.3 197.02 249.15 197.27C249.21 197.29 249.26 197.28 249.31 197.27C249.89 197.43 250.58 197.42 251 197.27C251.77 197.01 252.38 196.22 252.19 195.4Z" fill="white"/>
<path d="M237.33 194.319C236.4 194.219 234.91 194.659 234.59 195.669C234.44 196.149 234.68 196.839 235.09 197.259C235.11 197.279 235.13 197.289 235.15 197.309C235.31 197.459 235.49 197.569 235.68 197.609C236.2 197.799 236.84 197.819 237.31 197.819C238.3 197.819 239.73 197.469 239.65 196.189C239.58 195.089 238.28 194.429 237.33 194.319Z" fill="white"/>
<path d="M220.78 167.149C220.49 166.609 220.19 166.079 219.9 165.539C220.06 165.429 220.21 165.309 220.37 165.199C220.94 164.789 220.61 163.899 219.89 164.049C219.65 164.099 219.4 164.129 219.16 164.179C219.04 163.949 218.91 163.729 218.79 163.499C218.61 163.159 218.09 163.169 217.91 163.499C217.73 163.819 217.56 164.139 217.39 164.459C216.74 164.539 216.09 164.609 215.43 164.649C214.85 164.689 214.52 165.519 215.11 165.819C215.57 166.049 216.03 166.259 216.49 166.469C216.3 166.609 216.1 166.749 215.91 166.889C215.22 167.329 215.9 168.449 216.55 167.979L217.8 167.069C218.57 167.399 219.34 167.719 220.12 168.019C220.62 168.209 221.01 167.569 220.78 167.149Z" fill="black"/>
<path d="M229.7 164.58C229.36 164.57 229.01 164.57 228.67 164.57H228.66C228.58 164.57 228.51 164.57 228.43 164.57C228.24 164.18 227.97 163.59 227.52 163.47C226.94 163.31 226.69 163.96 226.48 164.37C226.45 164.43 226.41 164.5 226.37 164.57C225.74 164.54 225.03 164.47 224.51 164.8C224.18 165.01 224.14 165.52 224.51 165.73C224.56 165.81 224.63 165.88 224.74 165.93C224.99 166.05 225.26 166.14 225.52 166.23C225.53 166.24 225.54 166.24 225.56 166.25C225.44 166.47 225.34 166.7 225.26 166.93C225.12 167.06 225 167.21 224.89 167.4C224.65 167.82 225.15 168.4 225.59 168.1C225.95 167.85 226.32 167.62 226.69 167.38C226.89 167.28 227.09 167.18 227.29 167.07C227.81 167.3 228.33 167.53 228.84 167.75C229.16 167.89 229.46 167.75 229.62 167.53C229.63 167.52 229.64 167.5 229.65 167.49C229.66 167.48 229.67 167.46 229.68 167.45C229.8 167.27 229.83 167.06 229.69 166.86H229.7C229.55 166.56 229.38 166.27 229.21 165.98C229.5 165.79 229.79 165.6 230.05 165.4C230.39 165.13 230.09 164.59 229.7 164.58Z" fill="black"/>
<path d="M240.28 167.149C239.99 166.609 239.69 166.079 239.4 165.539C239.56 165.429 239.71 165.309 239.87 165.199C240.44 164.789 240.11 163.899 239.39 164.049C239.15 164.099 238.9 164.129 238.66 164.179C238.54 163.949 238.41 163.729 238.29 163.499C238.11 163.159 237.59 163.169 237.41 163.499C237.23 163.819 237.06 164.139 236.89 164.459C236.24 164.539 235.59 164.609 234.93 164.649C234.35 164.689 234.02 165.519 234.61 165.819C235.07 166.049 235.53 166.259 235.99 166.469C235.8 166.609 235.6 166.749 235.41 166.889C234.72 167.329 235.4 168.449 236.05 167.979L237.3 167.069C238.07 167.399 238.84 167.719 239.62 168.019C240.12 168.209 240.51 167.569 240.28 167.149Z" fill="black"/>
<path d="M249.21 164.58C248.87 164.57 248.52 164.57 248.18 164.57H248.17C248.09 164.57 248.02 164.57 247.94 164.57C247.75 164.18 247.48 163.59 247.03 163.47C246.45 163.31 246.2 163.96 245.99 164.37C245.96 164.43 245.92 164.5 245.88 164.57C245.25 164.54 244.54 164.47 244.02 164.8C243.69 165.01 243.65 165.52 244.02 165.73C244.07 165.81 244.14 165.88 244.25 165.93C244.5 166.05 244.77 166.14 245.03 166.23C245.04 166.24 245.05 166.24 245.07 166.25C244.95 166.47 244.85 166.7 244.77 166.93C244.63 167.06 244.51 167.21 244.4 167.4C244.16 167.82 244.66 168.4 245.1 168.1C245.46 167.85 245.83 167.62 246.2 167.38C246.4 167.28 246.6 167.18 246.8 167.07C247.32 167.3 247.84 167.53 248.35 167.75C248.67 167.89 248.97 167.75 249.13 167.53C249.14 167.52 249.15 167.5 249.16 167.49C249.17 167.48 249.18 167.46 249.19 167.45C249.31 167.27 249.34 167.06 249.2 166.86H249.21C249.06 166.56 248.89 166.27 248.72 165.98C249.01 165.79 249.3 165.6 249.56 165.4C249.9 165.13 249.59 164.59 249.21 164.58Z" fill="black"/>
<path d="M8.36002 287.08C9.26002 284.6 11.15 282.54 11.8 279.99C12.78 276.15 10.77 271.85 12.37 268.22C13.39 265.91 15.69 264.38 16.8 262.11C18.13 259.41 17.56 256.2 17.76 253.19C18.05 248.89 20.07 244.72 23.28 241.84C24.31 240.91 25.53 240.08 26.91 239.91C29.82 239.54 32.35 242.3 32.91 245.18C33.46 248.06 32.6 251 31.89 253.84C31.18 256.69 30.63 259.77 31.76 262.48C33.39 266.4 38.28 269.03 37.99 273.27C37.82 275.81 35.75 277.77 34.78 280.12C33.47 283.31 34.27 286.96 33.73 290.37C33.15 294.09 30.88 297.51 27.68 299.5C19.56 304.54 4.29002 298.32 8.36002 287.08Z" fill="#41BFB9"/>
<path d="M4.63999 291.45C4.18999 289.36 4.21999 287.23 4.03999 285.11C3.82999 282.7 3.70999 280.28 3.91999 277.87C4.06999 276.2 4.36999 274.54 4.48999 272.86C4.71999 269.46 4.13999 266.02 2.81999 262.88C1.93999 260.79 0.71999 258.82 0.23999 256.6C-0.33001 253.96 0.19999 251.18 1.23999 248.69C1.90999 247.08 2.78999 245.55 3.34999 243.9C4.82999 239.47 3.83999 234.65 3.85999 229.99C3.86999 228.2 4.02999 226.37 4.82999 224.77C5.37999 223.66 6.47999 222.61 7.69999 222.82C8.98999 223.05 9.69999 224.61 10.27 225.63C11.09 227.07 11.43 228.87 11.71 230.49C12.28 233.85 12.23 237.28 12.01 240.67C11.64 246.16 10.22 250.89 12.84 256.21C13.56 257.68 14.49 259.05 15.11 260.56C16.01 262.77 16.22 265.25 15.7 267.57C15.28 269.48 14.37 271.33 14.54 273.28C14.76 275.85 16.75 277.85 18.14 280.02C21.15 284.73 21.44 290.64 21.05 296.06C20.78 299.89 18.08 305.54 13.19 303.39C8.81999 301.48 5.58999 295.87 4.63999 291.45Z" fill="black"/>
<path d="M11.94 283.16C10.67 275.27 9.85004 267.32 9.39004 259.34C9.37004 259.08 8.97004 259.08 8.98004 259.34C9.32004 267.09 10.08 274.81 11.26 282.48C12.46 290.32 13.83 298.42 16.31 305.97C16.39 306.21 16.74 306.11 16.69 305.87C15.12 298.27 13.17 290.82 11.94 283.16Z" fill="white"/>
<path d="M3.14994 296.12C2.77994 296.12 2.48994 296.44 2.52994 296.81C2.63994 297.75 2.74994 299.33 2.75994 299.54C2.86994 301.1 3.09994 300.88 4.19994 300.87C4.50994 300.87 4.77994 301.1 4.82994 301.41C5.33994 304.85 5.44994 308.17 5.67994 311.66C5.98994 316.39 6.37994 321.16 6.97994 325.89C6.97994 325.91 6.98994 325.93 6.98994 325.94C7.08994 326.38 7.17994 326.83 7.23994 327.28C7.28994 327.59 7.53994 327.82 7.85994 327.82C11.3599 327.82 14.8599 327.79 18.3599 327.78C20.3399 327.77 22.3299 327.77 24.3099 327.76C25.8399 327.75 27.4399 327.87 28.9599 327.62C29.4299 327.54 30.3199 321.34 30.4599 320.63C30.9299 318.21 31.3699 315.79 31.7999 313.36C32.5499 309.17 33.1499 304.89 34.0599 300.74C34.1199 300.47 34.3499 300.28 34.6299 300.25C35.3099 300.18 35.5299 299.89 35.5399 298.99C35.5499 298.26 35.5599 297.52 35.6199 296.79C35.6499 296.42 35.3699 296.1 34.9999 296.1H3.14994V296.12Z" fill="black"/>
<path d="M20.43 270.001C20.18 269.731 19.75 269.651 19.44 269.471C19.06 269.251 18.74 268.961 18.49 268.611C18.26 268.301 17.75 268.571 17.96 268.921C18.22 269.351 18.55 269.731 18.96 270.031C19.32 270.291 19.84 270.631 20.3 270.491C20.51 270.421 20.57 270.161 20.43 270.001Z" fill="black"/>
<path d="M21.25 260.759C20.79 260.439 20.29 260.189 19.77 259.979C19.45 259.849 19.22 260.389 19.53 260.539C19.99 260.749 20.43 261.009 20.84 261.309C21.18 261.569 21.49 262.039 21.94 262.059C22.07 262.069 22.2 261.939 22.19 261.809C22.17 261.319 21.62 261.009 21.25 260.759Z" fill="black"/>
<path d="M28.7699 262.281C28.2699 262.661 27.7199 263.021 27.3599 263.541C27.1799 263.791 27.5199 264.021 27.7399 263.921C28.2899 263.671 28.7299 263.201 29.1799 262.801C29.4499 262.561 29.0699 262.051 28.7699 262.281Z" fill="black"/>
<path d="M29.59 264.859C29.13 265.049 28.72 265.279 28.34 265.609C28.04 265.869 27.57 266.289 27.62 266.729C27.64 266.849 27.74 266.969 27.87 266.919C28.23 266.799 28.42 266.409 28.69 266.159C29.02 265.839 29.41 265.609 29.83 265.429C30.14 265.289 29.91 264.729 29.59 264.859Z" fill="black"/>
<path d="M30.59 248.92L29.52 250.07C29.21 250.4 28.85 250.73 28.71 251.17C28.64 251.38 28.88 251.51 29.05 251.43C29.47 251.24 29.76 250.82 30.05 250.48C30.37 250.1 30.7 249.73 31.02 249.35C31.27 249.05 30.86 248.63 30.59 248.92Z" fill="black"/>
<path d="M22.91 249.4C22.69 248.91 22.17 248.53 21.79 248.16C21.49 247.87 21.04 248.32 21.33 248.62C21.7 249 22.08 249.51 22.57 249.74C22.8 249.84 23.01 249.63 22.91 249.4Z" fill="black"/>
<path d="M26.83 244.141C26.67 243.721 25.98 243.901 26.14 244.331C26.33 244.831 26.26 245.321 26.38 245.831C26.44 246.071 26.78 246.111 26.9 245.901C27.2 245.381 27.03 244.661 26.83 244.141Z" fill="black"/>
<path d="M31.08 279.06C30.32 279.8 29.51 280.52 28.71 281.22C28.43 281.47 28.79 281.88 29.09 281.72C30.1 281.19 30.94 280.54 31.75 279.73C32.18 279.3 31.51 278.64 31.08 279.06Z" fill="black"/>
<path d="M30.64 286.241C30 286.621 29.26 286.961 28.77 287.521C28.61 287.701 28.76 287.981 29.01 287.931C29.74 287.771 30.4 287.291 31.04 286.911C31.46 286.651 31.07 285.981 30.64 286.241Z" fill="black"/>
<path d="M35.6 300.209C30.61 299.359 25.14 299.869 20.09 299.949C14.66 300.029 9.23 300.229 3.8 300.509C3.19 300.539 3.18 301.499 3.8 301.469C9.08 301.169 14.37 300.979 19.66 300.879C24.87 300.779 30.37 301.349 35.53 300.669C35.77 300.629 35.88 300.259 35.6 300.209Z" fill="white"/>
<path d="M26.01 248.35C24.03 264.62 23.3 280.99 20.8 297.21C20.73 297.69 21.46 297.89 21.53 297.41C23.8 281.19 25.8 264.72 26.5 248.35C26.51 248.03 26.04 248.05 26.01 248.35Z" fill="black"/>
<path d="M302.36 267.111C302.39 267.021 302.42 266.931 302.45 266.841C303.8 262.411 303.6 257.451 301.59 253.251C301 252.011 300.27 250.831 299.84 249.531C298.26 244.791 300.85 239.451 299.4 234.681C298.38 231.321 295.25 228.691 291.76 228.281C288.27 227.861 284.61 229.671 282.83 232.701C280.87 236.021 280.93 240.651 277.84 242.961C276.4 244.031 274.55 244.351 272.95 245.151C270.08 246.571 268.09 249.611 267.94 252.811C267.78 256.151 269.47 259.591 268.37 262.751C267.6 264.981 265.6 266.521 264.26 268.461C262.28 271.311 261.76 275.121 262.91 278.391C263.67 280.541 265.08 282.421 265.86 284.571C267.93 290.271 260.8 292.401 263.29 298.101C266.39 305.171 270.67 316.351 280.58 311.961C284.97 310.021 287.77 305.341 288.29 300.561C288.53 298.331 288.38 295.911 289.62 294.041C290.99 291.971 293.74 291.141 295.07 289.041C297.12 285.801 294.83 281.451 295.78 277.731C296.76 273.841 300.96 271.241 302.36 267.111Z" fill="black"/>
<path d="M259.89 297.112C257.87 293.472 256.63 288.942 258.43 285.182C258.75 284.512 259.17 283.872 259.33 283.142C259.64 281.782 259.02 280.412 258.45 279.142C256.45 274.662 254.97 269.322 257.29 265.002C257.81 264.042 258.5 263.172 258.85 262.142C259.29 260.862 259.17 259.472 258.98 258.132C258.5 254.572 257.64 251.052 257.48 247.462C257.32 243.872 257.93 240.092 260.1 237.222C261.52 235.342 263.95 233.882 266.17 234.662C268.13 235.352 269.16 237.472 269.82 239.442C270.92 242.752 271.55 246.222 271.67 249.712C271.73 251.442 271.68 253.222 272.23 254.862C273.72 259.282 279.17 261.612 280.18 266.172C280.96 269.682 278.78 273.322 279.45 276.852C280.23 280.912 284.65 284.272 283.53 288.252C283.01 290.102 281.37 291.422 280.55 293.162C278.7 297.042 281.28 301.702 280.39 305.912C277.7 318.702 262.64 302.082 259.89 297.112Z" fill="#41BFB9"/>
<path d="M291.45 304.601C291.43 304.401 291.3 304.251 291.09 304.241C290.97 304.231 290.88 304.241 290.79 304.261C290.19 304.051 289.56 304.101 288.92 304.151C288.39 304.091 287.86 304.081 287.35 304.161C286.7 304.121 286.03 304.091 285.48 304.321C285.36 304.371 285.26 304.471 285.21 304.591L265.08 305.101C263.5 304.931 261.9 304.961 260.31 305.081C260.04 305.101 259.78 305.301 259.79 305.601C259.83 306.491 259.88 307.371 260 308.261C260.08 308.801 260.07 309.891 260.56 310.291C260.76 310.451 261.04 310.541 261.35 310.591L261.49 311.641C261.64 315.081 262.19 318.561 262.62 321.951C262.85 323.811 263.1 325.671 263.36 327.531C263.63 329.471 263.78 331.571 264.3 333.471C264.16 333.481 264.03 333.521 263.93 333.581C263.69 333.721 263.55 333.941 263.51 334.181C263.45 334.271 263.41 334.381 263.41 334.501C263.39 334.741 263.51 334.981 263.79 335.041C263.83 335.051 263.88 335.061 263.93 335.061C267.6 335.071 271.28 335.031 274.95 335.021C276.79 335.011 278.62 335.011 280.46 335.001C282.07 334.991 283.78 335.141 285.35 334.761C285.59 334.701 285.59 334.321 285.35 334.271C285.26 334.251 285.17 334.231 285.07 334.211C285.36 333.571 285.39 332.591 285.52 332.041C286.14 329.361 286.76 326.691 287.39 324.011C288.5 319.261 289.86 314.471 290.58 309.631C290.8 309.531 290.99 309.371 291.12 309.091C291.36 308.601 291.34 307.891 291.39 307.371C291.46 306.441 291.52 305.521 291.45 304.601Z" fill="black"/>
<path d="M274.32 304.24C273.2 298.34 272.11 292.43 271.07 286.52C268.99 274.7 267.31 262.81 265.22 250.99C265.18 250.78 264.82 250.83 264.85 251.04C266.17 262.76 268.22 274.43 270.22 286.04C271.24 291.96 272.3 297.87 273.41 303.77C274.52 309.64 275.43 315.65 277.03 321.41C277.11 321.68 277.58 321.64 277.54 321.34C276.77 315.61 275.4 309.93 274.32 304.24Z" fill="black"/>
<path d="M264.39 292.791C264.11 292.551 263.78 292.601 263.42 292.531C263.04 292.461 262.7 292.311 262.33 292.201C262.09 292.131 261.87 292.471 262.08 292.641C262.39 292.901 262.78 293.081 263.17 293.211C263.53 293.331 264 293.491 264.34 293.261C264.47 293.161 264.54 292.921 264.39 292.791Z" fill="black"/>
<path d="M263.91 290.071C263.68 290.151 263.3 290.371 263.13 290.041C263.02 289.811 262.62 289.911 262.64 290.171C262.67 290.571 262.87 290.891 263.27 291.031C263.66 291.171 264.2 291.101 264.39 290.691C264.53 290.381 264.29 289.941 263.91 290.071Z" fill="black"/>
<path d="M262.34 270.781C262.21 270.321 261.76 270.291 261.34 270.211C260.8 270.101 260.27 270.002 259.73 269.882C259.28 269.782 259.1 270.432 259.54 270.572C260.06 270.732 260.58 270.912 261.1 271.072C261.5 271.202 261.92 271.401 262.26 271.061C262.34 270.981 262.37 270.881 262.34 270.781Z" fill="black"/>
<path d="M263.79 243.621C263.54 243.471 263.28 243.761 263.41 244.001C263.66 244.471 263.82 244.901 263.95 245.411C264.07 245.861 264.81 245.781 264.78 245.301C264.74 244.631 264.36 243.961 263.79 243.621Z" fill="black"/>
<path d="M265.75 242.531C265.58 242.021 264.78 242.231 264.94 242.751C265.13 243.391 265.36 244.151 265.9 244.591C266.15 244.791 266.53 244.611 266.45 244.271C266.32 243.661 265.95 243.121 265.75 242.531Z" fill="black"/>
<path d="M274.57 267.011C273.94 267.631 273.36 268.541 273.58 269.461C273.63 269.691 273.98 269.741 274.09 269.531C274.45 268.861 274.62 268.161 275.16 267.601C275.53 267.221 274.95 266.631 274.57 267.011Z" fill="black"/>
<path d="M282.25 252.221C281.93 251.261 281.07 250.431 280.29 249.831C279.99 249.611 279.61 250.101 279.89 250.341C280.24 250.651 280.57 250.981 280.84 251.361C281.11 251.731 281.28 252.141 281.52 252.521C281.62 252.671 281.79 252.751 281.97 252.701C282 252.691 282.04 252.681 282.06 252.661C282.21 252.571 282.31 252.391 282.25 252.221Z" fill="white"/>
<path d="M282.82 248.781C282.42 248.381 281.98 248.021 281.55 247.641C281.23 247.351 280.8 247.791 281.08 248.111C281.45 248.541 281.81 248.981 282.2 249.391C282.59 249.801 283.22 249.171 282.82 248.781Z" fill="white"/>
<path d="M291.05 233.572C290.84 234.022 290.68 234.482 290.61 234.972C290.55 235.372 290.43 235.942 290.79 236.222C290.96 236.362 291.16 236.332 291.29 236.162C291.52 235.852 291.37 235.442 291.37 235.072C291.38 234.632 291.46 234.222 291.6 233.802C291.72 233.482 291.2 233.252 291.05 233.572Z" fill="white"/>
<path d="M296.8 259.94C296.28 259.78 295.72 259.81 295.22 260.04C294.78 260.24 294.22 260.68 294.25 261.22C294.26 261.49 294.54 261.67 294.79 261.53C295.09 261.36 295.27 261.05 295.58 260.88C295.89 260.7 296.24 260.63 296.6 260.71C297.08 260.81 297.28 260.1 296.8 259.94Z" fill="white"/>
<path d="M296.88 262.531C296.57 262.531 296.28 262.581 296 262.701C295.67 262.841 295.6 263.001 295.44 263.311C295.32 263.541 295.56 263.741 295.78 263.651C295.86 263.611 295.97 263.631 296.06 263.601C296.15 263.571 296.23 263.511 296.32 263.471C296.5 263.381 296.69 263.331 296.89 263.321C297.38 263.281 297.39 262.531 296.88 262.531Z" fill="white"/>
<path d="M297.33 265.001C296.99 264.931 296.65 264.821 296.3 264.931C296.14 264.981 296.06 265.201 296.2 265.321C296.48 265.561 296.8 265.601 297.15 265.671C297.57 265.761 297.76 265.091 297.33 265.001Z" fill="white"/>
<path d="M291.11 286.611C290.42 286.561 289.77 286.431 289.17 286.061C288.82 285.841 288.5 286.391 288.85 286.611C289.55 287.061 290.36 287.301 291.18 287.111C291.48 287.051 291.39 286.631 291.11 286.611Z" fill="white"/>
<path d="M291.52 285.081C290.89 284.991 290.27 284.941 289.69 284.681C289.37 284.541 289.09 284.991 289.41 285.161C290.07 285.501 290.79 285.711 291.52 285.541C291.74 285.481 291.76 285.111 291.52 285.081Z" fill="white"/>
<path d="M292.25 309.351C286.99 309.011 281.6 309.451 276.34 309.571C271.04 309.691 265.73 309.781 260.43 309.921C259.78 309.941 259.78 310.951 260.43 310.931C265.73 310.801 271.04 310.611 276.34 310.461C281.61 310.311 287.02 310.471 292.25 309.861C292.57 309.831 292.59 309.371 292.25 309.351Z" fill="white"/>
<path opacity="0.15" d="M82.12 212.56H62.64H41.78H27.31C17.94 212.56 10.35 204.97 10.35 195.6V84.9502C10.35 75.5802 17.94 67.9902 27.31 67.9902H78.58C87.95 67.9902 95.54 75.5802 95.54 84.9502V177.44L108.34 203.23L95.54 199.14C95.54 206.55 89.53 212.56 82.12 212.56Z" fill="#ED313E"/>
<path d="M78.57 208.261H27.31C20.74 208.261 15.41 202.931 15.41 196.361V84.2008C15.41 77.6308 20.74 72.3008 27.31 72.3008H78.57C85.14 72.3008 90.47 77.6308 90.47 84.2008V196.361C90.48 202.931 85.15 208.261 78.57 208.261Z" fill="white" stroke="black" stroke-miterlimit="10"/>
<path d="M79.14 143.318C61.83 142.938 44.31 143.148 27 143.618V144.378C44.31 144.838 61.83 145.058 79.14 144.678C79.18 144.678 79.21 144.668 79.25 144.668V143.338C79.21 143.328 79.18 143.318 79.14 143.318Z" fill="black"/>
<path d="M52.66 147.397C44.23 147.407 35.41 146.877 27 147.607V148.537C35.41 149.267 44.24 148.737 52.66 148.747C61.51 148.757 70.4 148.957 79.25 148.747V147.407C70.41 147.187 61.51 147.387 52.66 147.397Z" fill="black"/>
<path d="M66.38 151.118C61.85 151.118 57.33 151.118 52.8 151.128C44.33 151.148 35.46 150.628 27.01 151.328V152.488C35.47 153.188 44.33 152.678 52.8 152.688C57.11 152.698 61.42 152.698 65.74 152.698C70.17 152.698 74.85 153.028 79.26 152.628V151.158C75.04 150.818 70.6 151.118 66.38 151.118Z" fill="black"/>
<path d="M52.66 158.587C44.23 158.597 35.41 158.067 27 158.797V159.727C35.41 160.457 44.24 159.927 52.66 159.937C61.51 159.947 70.4 160.147 79.25 159.937V158.597C70.41 158.367 61.51 158.577 52.66 158.587Z" fill="black"/>
<path d="M66.38 162.307C61.85 162.307 57.33 162.307 52.8 162.317C44.33 162.337 35.46 161.817 27.01 162.517V163.677C35.47 164.377 44.33 163.867 52.8 163.877C57.11 163.887 61.42 163.887 65.74 163.887C70.17 163.887 74.85 164.217 79.26 163.817V162.347C75.04 161.997 70.6 162.307 66.38 162.307Z" fill="black"/>
<path d="M35.9006 133.659C35.46 132.883 35.0363 132.107 34.5956 131.331C34.8329 131.166 35.0532 131.001 35.2905 130.836C36.1379 130.241 35.6464 128.954 34.5787 129.168C34.2228 129.234 33.85 129.284 33.4941 129.35C33.3076 129.02 33.1212 128.689 32.9348 128.359C32.6636 127.88 31.901 127.88 31.6298 128.359C31.3756 128.821 31.1044 129.284 30.8502 129.746C29.8842 129.862 28.9182 129.961 27.9352 130.027C27.0879 130.076 26.5794 131.282 27.4607 131.711C28.1386 132.041 28.8335 132.339 29.5114 132.652C29.2232 132.85 28.9351 133.065 28.647 133.263C27.6132 133.891 28.6301 135.525 29.5961 134.832L31.4603 133.511C32.5958 133.99 33.7483 134.452 34.9007 134.881C35.6633 135.195 36.2396 134.27 35.9006 133.659Z" fill="#ED313E"/>
<path d="M49.2578 129.667C48.7384 129.65 48.2189 129.65 47.6994 129.65H47.6821C47.5609 129.65 47.457 129.65 47.3358 129.65C47.0414 129.079 46.6258 128.205 45.9678 128.036C45.0847 127.801 44.7037 128.759 44.392 129.365C44.3401 129.465 44.2881 129.566 44.2189 129.667C43.2665 129.634 42.1756 129.516 41.3963 130.003C40.8942 130.323 40.8422 131.063 41.3963 131.365C41.4656 131.483 41.5695 131.584 41.7427 131.668C42.1236 131.836 42.5219 131.97 42.9202 132.122C42.9375 132.139 42.9548 132.139 42.9721 132.155C42.7989 132.492 42.6431 132.828 42.5046 133.164C42.2968 133.366 42.1063 133.584 41.9505 133.853C41.5868 134.475 42.3487 135.316 43.0067 134.879C43.5435 134.509 44.115 134.173 44.6691 133.82C44.9635 133.668 45.2751 133.517 45.5695 133.366C46.3487 133.702 47.1453 134.055 47.9245 134.375C48.4094 134.576 48.8596 134.375 49.1193 134.038C49.1366 134.022 49.154 134.005 49.1713 133.988C49.1886 133.971 49.1886 133.937 49.2059 133.921C49.3791 133.668 49.4483 133.349 49.2232 133.046C49.2232 133.046 49.2232 133.046 49.2405 133.046C48.9981 132.609 48.7557 132.172 48.4959 131.752C48.9288 131.483 49.3617 131.197 49.76 130.894C50.2968 130.474 49.8466 129.684 49.2578 129.667Z" fill="#ED313E"/>
<path d="M64.9006 133.659C64.46 132.883 64.0363 132.107 63.5956 131.331C63.8329 131.166 64.0702 131.001 64.2905 130.836C65.1379 130.241 64.6464 128.954 63.5787 129.168C63.2228 129.234 62.85 129.284 62.4941 129.35C62.3076 129.02 62.1212 128.689 61.9348 128.359C61.6636 127.88 60.901 127.88 60.6298 128.359C60.3756 128.821 60.1044 129.284 59.8502 129.746C58.8842 129.862 57.9182 129.961 56.9352 130.027C56.0879 130.076 55.5794 131.282 56.4607 131.711C57.1386 132.041 57.8335 132.339 58.5114 132.652C58.2232 132.85 57.9351 133.065 57.647 133.263C56.6132 133.891 57.6301 135.525 58.5961 134.832L60.4603 133.511C61.5958 133.99 62.7483 134.452 63.9007 134.881C64.6633 135.195 65.2396 134.27 64.9006 133.659Z" fill="#ED313E"/>
<path d="M78.261 129.667C77.7414 129.65 77.2217 129.65 76.702 129.65H76.6847C76.5634 129.65 76.4595 129.65 76.3382 129.65C76.0437 129.079 75.628 128.205 74.9697 128.036C74.0863 127.801 73.7052 128.759 73.3933 129.365C73.3414 129.465 73.2894 129.566 73.2201 129.667C72.2674 129.634 71.176 129.516 70.3965 130.003C69.8941 130.323 69.8422 131.063 70.3965 131.365C70.4658 131.483 70.5697 131.584 70.7429 131.668C71.1241 131.836 71.5225 131.97 71.9209 132.122C71.9382 132.139 71.9556 132.139 71.9729 132.155C71.7996 132.492 71.6437 132.828 71.5052 133.164C71.2973 133.366 71.1067 133.584 70.9508 133.853C70.587 134.475 71.3493 135.316 72.0075 134.879C72.5445 134.509 73.1162 134.173 73.6705 133.82C73.965 133.668 74.2768 133.517 74.5713 133.366C75.3508 133.702 76.1477 134.055 76.9272 134.375C77.4122 134.576 77.8626 134.375 78.1225 134.038C78.1398 134.022 78.1571 134.005 78.1744 133.988C78.1918 133.971 78.1918 133.937 78.2091 133.921C78.3823 133.668 78.4516 133.349 78.2264 133.046C78.2264 133.046 78.2264 133.046 78.2437 133.046C78.0185 132.609 77.7587 132.172 77.4989 131.752C77.9319 131.483 78.365 131.197 78.7634 130.894C79.3004 130.474 78.8327 129.684 78.261 129.667Z" fill="#ED313E"/>
<path d="M42.15 216.01C42.34 216.99 42.55 217.97 42.78 218.94" stroke="black" stroke-miterlimit="10"/>
<path d="M44.3201 224.529C48.6801 238.329 56.9301 250.909 67.8801 260.379" stroke="black" stroke-miterlimit="10" stroke-dasharray="5.79 5.79"/>
<path d="M70.1 262.23C70.88 262.86 71.67 263.47 72.48 264.06" stroke="black" stroke-miterlimit="10"/>
<path d="M243.52 239.76C236.86 257.53 221.22 271.67 202.87 276.5" stroke="black" stroke-miterlimit="10" stroke-dasharray="6 6"/>
<path d="M160.56 91.6699C142.63 100.88 128.28 116.86 121.03 135.67C113.78 154.48 113.69 175.95 120.8 194.82" stroke="black" stroke-miterlimit="10" stroke-dasharray="6 6"/>
<path d="M59.46 61.6801C63.47 41.7701 77.62 25.1201 94.56 14.5801C113.24 2.95015 136.05 -1.51985 157.81 1.34015C170.19 2.97015 182.29 7.00015 193 13.4501" stroke="black" stroke-miterlimit="10" stroke-dasharray="6 6"/>
</g>
<defs>
<clipPath id="clip0">
<rect width="356.74" height="376.17" fill="white"/>
</clipPath>
</defs>
</svg>
