<?xml version="1.0" standalone="no"?>
<!DOCTYPE svg PUBLIC "-//W3C//DTD SVG 1.1//EN" "http://www.w3.org/Graphics/SVG/1.1/DTD/svg11.dtd" >
<svg xmlns="http://www.w3.org/2000/svg">
<defs>
  <font id="address-click-front" horiz-adv-x="544">
    <font-face font-family="address-click-front"
      units-per-em="545" ascent="545"
      descent="0" />
    <missing-glyph horiz-adv-x="0" />
    <glyph glyph-name="2user"
      unicode="&#xEA01;"
      horiz-adv-x="512" d="M204.617 458.6718C143.862 458.6718 95.0914 409.894 95.0914 349.146C95.0914 288.382 143.858 239.6 204.617 239.6C265.379 239.6 314.163 288.385 314.163 349.146C314.163 409.891 265.375 458.6718 204.617 458.6718zM204.617 426.6718C247.703 426.6718 282.163 392.217 282.163 349.146C282.163 306.058 247.706 271.6 204.617 271.6C161.533 271.6 127.091 306.052 127.091 349.146C127.091 392.222 161.536 426.6718 204.617 426.6718zM428.097 349.5180000000001C428.097 397.188 389.439 435.8541 341.761 435.8541C332.924 435.8541 325.761 428.6906 325.761 419.8541C325.761 411.0180000000001 332.924 403.854 341.761 403.854C371.764 403.854 396.097 379.516 396.097 349.5180000000001C396.097 319.507 371.772 295.182 341.761 295.182C332.924 295.182 325.761 288.019 325.761 279.182C325.761 270.346 332.924 263.182 341.761 263.182C389.445 263.182 428.097 301.834 428.097 349.5180000000001zM411.723 213.466C399.89 216.089 387.576 217.865 375.191 218.707C366.375 219.307 358.742 212.646 358.142 203.83C357.542 195.014 364.203 187.381 373.019 186.781C383.805 186.047 394.532 184.501 405.143 182.152C421.71 178.852 432.6840000000001 173.372 435.651 167.145C437.887 162.44 437.887 156.925 435.644 152.204C432.6960000000001 146.001 421.78 140.531 405.378 137.157C396.722 135.377 391.149 126.917 392.929 118.262C394.709 109.607 403.169 104.033 411.825 105.814C437.313 111.056 455.961 120.4 464.546 138.47C470.92 151.88 470.92 167.485 464.545 180.898C455.911 199.013 437.068 208.424 411.723 213.466zM42.6748 127.611C42.6748 183.601 101.503 203.6 204.616 203.6L211.438 203.571C310.519 202.708 366.579 182.697 366.579 128.038C366.579 74.536 312.851 53.897 218.102 52.168L204.616 52.048C101.27 52.048 42.6748 71.693 42.6748 127.611zM334.579 128.038C334.579 156.789 290.407 171.6 204.616 171.6C118.913 171.6 74.6748 156.561 74.6748 127.611C74.6748 98.844 118.807 84.048 204.616 84.048C290.326 84.048 334.579 99.089 334.579 128.038z" />
    <glyph glyph-name="3user"
      unicode="&#xEA02;"
      horiz-adv-x="512" d="M254.674 438.6667C200.156 438.6667 156.365 394.876 156.365 340.357C156.365 285.823 200.152 242.028 254.674 242.028C309.1960000000001 242.028 352.984 285.823 352.984 340.357C352.984 394.876 309.193 438.6667 254.674 438.6667zM254.674 406.6670000000001C291.519 406.6670000000001 320.984 377.203 320.984 340.357C320.984 303.495 291.522 274.028 254.674 274.028C217.827 274.028 188.365 303.495 188.365 340.357C188.365 377.203 217.829 406.6670000000001 254.674 406.6670000000001zM134.189 418.573C143.026 418.573 150.189 411.41 150.189 402.573C150.189 393.736 143.026 386.573 134.189 386.573C108.837 386.573 88.2763 366.021 88.2763 340.68C88.2763 315.338 108.837 294.786 134.189 294.786C143.026 294.786 150.189 287.623 150.189 278.786C150.189 269.95 143.026 262.786 134.189 262.786C91.1674 262.786 56.2763 297.6620000000001 56.2763 340.68C56.2763 383.697 91.1674 418.573 134.189 418.573zM453.273 340.68C453.273 383.697 418.382 418.573 375.36 418.573C366.523 418.573 359.36 411.41 359.36 402.573C359.36 393.736 366.523 386.573 375.36 386.573C400.712 386.573 421.273 366.021 421.273 340.68C421.273 315.338 400.712 294.786 375.36 294.786C366.523 294.786 359.36 287.623 359.36 278.786C359.36 269.95 366.523 262.786 375.36 262.786C418.382 262.786 453.273 297.6620000000001 453.273 340.68zM437.246 222.827C427.001 225.139 416.054 226.7200000000001 404.9220000000001 227.487C396.1070000000001 228.0950000000001 388.467 221.442 387.859 212.626C387.251 203.811 393.905 196.171 402.7200000000001 195.563C412.246 194.906 421.582 193.559 430.659 191.516C444.774 188.746 453.977 184.155 456.261 179.368C457.979 175.755 457.979 171.507 456.245 167.851C453.991 163.113 444.865 158.544 430.949 155.683C422.293 153.903 416.7200000000001 145.444 418.499 136.788C420.279 128.133 428.739 122.559 437.394 124.339C460.396 129.069 477.245 137.503 485.15 154.121C491.011 166.477 491.011 180.807 485.151 193.13C477.19 209.812 460.051 218.363 437.246 222.827zM121.687 212.626C121.079 221.442 113.44 228.0950000000001 104.624 227.487C93.4927 226.7200000000001 82.545 225.139 71.8618 222.735L67.4577 221.803C47.2417 217.184 31.8188 208.696 24.4158 193.132C18.5309 180.819 18.5309 166.464 24.422 154.108C32.2924 137.507 49.1409 129.071 72.152 124.339C80.8075 122.559 89.267 128.133 91.0468 136.788C92.8267 145.444 87.2529 153.903 78.5975 155.683C64.6863 158.543 55.5689 163.109 53.322 167.848C51.5715 171.52 51.5715 175.742 53.3005 179.36C55.5829 184.158 64.7767 188.747 78.4488 191.423L85.5576 192.879C92.6442 194.189 99.6814 195.071 106.826 195.563C115.641 196.171 122.295 203.811 121.687 212.626zM110.232 145.397C110.232 196.297 162.882 214.197 254.673 214.197L261.176 214.167C349.132 213.34 399.114 195.399 399.114 145.768C399.114 97.305 351.337 78.749 267.515 77.092L254.673 76.968C162.671 76.968 110.232 94.553 110.232 145.397zM367.114 145.768C367.114 169.46 329.129 182.197 254.673 182.197C180.29 182.197 142.232 169.258 142.232 145.397C142.232 121.702 180.205 108.968 254.673 108.968C329.034 108.968 367.114 121.919 367.114 145.768z" />
    <glyph glyph-name="a-to-z"
      unicode="&#xEA03;"
      horiz-adv-x="512" d="M115.1 484.1C113.4 489 108.8 492.4 103.6 492.4H76.6C71.4 492.4 66.8 489.1 65.1 484.1L2.3 295.6C0.2 289.3 3.6 282.4 10 280.3C16.4 278.1 23.2 281.6 25.3 288L37.5 324.7H142.6L154.8 288C156.5 282.9 161.2 279.7 166.3 279.7C167.6 279.7 168.9 279.9 170.1 280.3C176.4 282.4 179.9 289.3 177.8 295.6L115.1 484.1zM45.6 348.8L85.4 468.1H94.9L134.7 348.8H45.6zM157.4 214.4H22.8C16.1 214.4 10.7 209 10.7 202.3C10.7 195.6 16.1 190.1999999999999 22.8 190.1999999999999H139.5L13.3 30.3C11.6 28.2 10.7 25.5 10.7 22.8V13.8C10.7 7.1 16.1 1.7 22.8 1.7H157.4C164.1 1.7 169.5 7.1 169.5 13.8S164.1 25.9 157.4 25.9H40.7L166.9 185.8000000000001C168.6 187.9000000000001 169.5 190.6000000000001 169.5 193.3000000000001V202.3000000000001C169.5 209 164.1 214.4 157.4 214.4zM506.7 130.1C502 134.8 494.3 134.8 489.6 130.1L402.7 43.1V498.1C402.7 504.8 397.3 510.2 390.5999999999999 510.2S378.4999999999999 504.8 378.4999999999999 498.1V43L291.3999999999999 130.1C286.6999999999999 134.8 278.9999999999999 134.8 274.2999999999999 130.1C269.5999999999999 125.4 269.5999999999999 117.7000000000001 274.2999999999999 113L381.9999999999999 5.3C384.2999999999999 3 387.2999999999999 1.8 390.5999999999999 1.8S396.8999999999999 3.1 399.1999999999999 5.3L506.7 113C511.5 117.7 511.5 125.4 506.7 130.1z" />
    <glyph glyph-name="academy"
      unicode="&#xEA04;"
      horiz-adv-x="512" d="M498.1 486H352.8C310.4 486 274 461.4 256 425.9C238 461.4 201.6 486 159.2 486H13.9C7.2 486 1.8 480.6 1.8 473.9V110.8C1.8 104.1 7.2 98.6999999999999 13.9 98.6999999999999H183.4C216.8 98.6999999999999 243.9 71.5999999999999 243.9 38.1999999999999C243.9 31.4999999999999 249.3 26.0999999999999 256 26.0999999999999S268.1 31.4999999999999 268.1 38.1999999999999C268.1 71.5999999999999 295.2000000000001 98.6999999999999 328.6 98.6999999999999H498.1C504.8 98.6999999999999 510.2 104.0999999999999 510.2 110.8V473.9C510.2 480.6 504.8 486 498.1 486zM243.9 97.4C228.5 113.1 207.1 122.9 183.4 122.9H26V461.8H159.2C205.9 461.8 243.9 423.8 243.9 377.1V97.4zM486 122.8H328.6C304.9000000000001 122.8 283.5 113 268.1 97.3V377C268.1 423.7 306.1 461.7 352.8 461.7H486V122.8z" />
    <glyph glyph-name="activity-2"
      unicode="&#xEA05;"
      horiz-adv-x="512" d="M358.853 414.264C358.853 444.678 383.585 469.3334 414.094 469.3334C444.602 469.3334 469.334 444.678 469.334 414.264C469.334 383.85 444.602 359.195 414.094 359.195C383.585 359.195 358.853 383.85 358.853 414.264zM438.328 414.2649C438.328 427.6064 427.479 438.4219 414.096 438.4219C400.713 438.4219 389.864 427.6064 389.864 414.2649C389.864 400.923 400.713 390.108 414.096 390.108C427.479 390.108 438.328 400.923 438.328 414.2649zM331.258 308.476C336.502 315.224 346.241 316.4550000000001 353.01 311.227C359.163 306.474 360.743 298.0180000000001 357.04 291.451L355.769 289.543L295.219 211.637C290.429 205.474 281.895 203.916 275.301 207.664L273.386 208.949L215.113 254.576L162.797 186.778C158.051 180.628 149.574 179.024 142.973 182.694L141.055 183.954C134.886 188.686 133.276 197.136 136.958 203.716L138.222 205.629L200.096 285.798C204.877 291.992 213.432 293.569 220.042 289.815L221.962 288.528L280.252 242.87L331.258 308.476zM324.769 436.523C324.769 445.0592000000001 317.827 451.9792 309.265 451.9792H159.024L154.182 451.8986C86.9371 449.6465 42.666 400.414 42.666 330.511V163.947L42.7402 158.973C44.8127 89.862 90.1732 42.667 159.024 42.667H336.891L341.735 42.747C409.004 44.992 453.249 94.077 453.249 163.947V309.006L453.107 311.1040000000001C452.081 318.648 445.594 324.463 437.745 324.463C429.182 324.463 422.241 317.543 422.241 309.006V163.947L422.155 159.15C420.281 106.948 387.679 73.579 336.891 73.579H159.024L154.419 73.67C104.341 75.662 73.6744 110.314 73.6744 163.947V330.511L73.7598 335.312C75.6362 387.568 108.28 421.0668 159.024 421.0668H309.265L311.3690000000001 421.2079C318.936 422.2313000000001 324.769 428.6981 324.769 436.523z" />
    <glyph glyph-name="activity-state"
      unicode="&#xEA06;"
      horiz-adv-x="512" d="M358.853 414.2637C358.853 444.6776 383.585 469.333 414.093 469.333C444.602 469.333 469.334 444.6776 469.334 414.2637C469.334 383.85 444.602 359.194 414.093 359.194C383.585 359.194 358.853 383.85 358.853 414.2637zM438.325 414.2646C438.325 427.6061 427.476 438.4215 414.093 438.4215C400.71 438.4215 389.861 427.6061 389.861 414.2646C389.861 400.923 400.71 390.108 414.093 390.108C427.476 390.108 438.325 400.923 438.325 414.2646zM331.258 308.476C336.503 315.223 346.242 316.4550000000001 353.01 311.227C359.164 306.474 360.7440000000001 298.0180000000001 357.04 291.45L355.77 289.5420000000001L295.2200000000001 211.636C290.43 205.473 281.896 203.916 275.301 207.664L273.387 208.948L215.114 254.576L162.798 186.778C158.051 180.628 149.575 179.023 142.974 182.693L141.056 183.953C134.886 188.686 133.277 197.136 136.958 203.716L138.222 205.629L200.097 285.798C204.878 291.992 213.432 293.569 220.043 289.814L221.962 288.527L280.252 242.87L331.258 308.476zM324.77 436.5226C324.77 445.0589 317.828 451.9788 309.265 451.9788H159.025L154.183 451.8982C86.9377 449.6461 42.6667 400.413 42.6667 330.51V163.946L42.7408 158.973C44.8134 89.861 90.1738 42.667 159.025 42.667H336.891L341.735 42.747C409.004 44.992 453.25 94.077 453.25 163.946V309.006L453.108 311.103C452.081 318.648 445.5950000000001 324.462 437.745 324.462C429.183 324.462 422.241 317.5420000000001 422.241 309.006V163.946L422.156 159.149C420.282 106.948 387.68 73.579 336.891 73.579H159.025L154.419 73.67C104.342 75.662 73.675 110.313 73.675 163.946V330.51L73.7605 335.312C75.6368 387.567 108.281 421.0664 159.025 421.0664H309.265L311.3690000000001 421.2075C318.937 422.231 324.77 428.6978000000001 324.77 436.5226z" />
    <glyph glyph-name="activity"
      unicode="&#xEA07;"
      horiz-adv-x="512" d="M192 469.3334C201.183 469.3334 209.335 463.4575 212.239 454.7462L320 131.462L363.762 262.746C366.665 271.458 374.818 277.333 384 277.333H469.333C481.116 277.333 490.667 267.7820000000001 490.667 256C490.667 244.218 481.116 234.667 469.333 234.667H399.376L340.239 57.254C337.335 48.543 329.183 42.667 320 42.667C310.818 42.667 302.665 48.543 299.762 57.254L192 380.538L148.239 249.254C145.335 240.543 137.183 234.667 128 234.667H42.6668C30.8848 234.667 21.3335 244.218 21.3335 256C21.3335 267.7820000000001 30.8848 277.333 42.6668 277.333H112.624L171.762 454.7462C174.665 463.4575 182.818 469.3334 192 469.3334z" />
    <glyph glyph-name="add-ads"
      unicode="&#xEA08;"
      horiz-adv-x="512" d="M450 389.4H285.3L385.9 490C390.6 494.7 390.6 502.4 385.9 507.1C381.2 511.8 373.5 511.8 368.8 507.1L256 394.4L143.3 507.1C138.6 511.8 130.9 511.8 126.2 507.1C121.5 502.4 121.5 494.7 126.2 490L226.8 389.4H62C28.6 389.4 1.4 362.2000000000001 1.4 328.8V62C1.4 28.6 28.6 1.4 62 1.4H450C483.4 1.4 510.6 28.6 510.6 62V328.8C510.7 362.2 483.5 389.4 450 389.4zM486.4 62C486.4 41.9 470.1 25.6 450 25.6H62C41.9 25.6 25.6 41.9 25.6 62V328.8C25.6 348.9 41.9 365.2000000000001 62 365.2000000000001H450C470.1 365.2000000000001 486.4 348.9 486.4 328.8V62zM353 207.5H268.1V292.4C268.1 299.1 262.7000000000001 304.5 256 304.5C249.3 304.5 243.9 299.1 243.9 292.4V207.5H159C152.3 207.5 146.9 202.1 146.9 195.4C146.9 188.7 152.3 183.3 159 183.3H243.9V98.4C243.9 91.7 249.3 86.3 256 86.3C262.7 86.3 268.1 91.6999999999999 268.1 98.4V183.3H353C359.7 183.3 365.1 188.6999999999999 365.1 195.4C365.1 202.1 359.7 207.5 353 207.5z" />
    <glyph glyph-name="add-brand"
      unicode="&#xEA09;"
      horiz-adv-x="512" d="M449.8 486.1H62.2C28.8 486.1 1.6 459 1.6 425.6V280.2C1.6 140 115.7 25.9 256 25.9C396.3 25.9 510.4 140 510.4 280.3V425.6C510.4 459 483.2 486.1 449.8 486.1zM486.1 280.2C486.1 153.3 382.9000000000001 50.1 256 50.1S25.9 153.3 25.9 280.2V425.6C25.9 445.6 42.2 461.9 62.2 461.9H449.8C469.8 461.9 486.1 445.6 486.1 425.6V280.2zM328.7 268.1H268.1V328.7C268.1 335.4 262.7 340.8 256 340.8S243.9 335.4 243.9 328.7V268.1H183.3C176.6 268.1 171.2 262.7 171.2 256S176.6 243.9 183.3 243.9H243.9V183.3C243.9 176.6 249.3 171.1999999999999 256 171.1999999999999S268.1 176.5999999999999 268.1 183.3V243.9H328.7C335.4 243.9 340.8 249.3 340.8 256S335.4 268.1 328.7 268.1z" />
    <glyph glyph-name="add-img"
      unicode="&#xEA0A;"
      horiz-adv-x="512" d="M132.3 302.1C163.7 302.1 189.2 327.6 189.2 359S163.7 415.9 132.3 415.9S75.4 390.3 75.4 359S101 302.1 132.3 302.1zM132.3 395.2C152.3 395.2 168.5 379 168.5 359S152.3 322.8 132.3 322.8S96.1 339 96.1 359S112.4 395.2 132.3 395.2zM437.6 242.4V457.3C437.6 474.4 423.7000000000001 488.3 406.6 488.3H34C16.9 488.3 3 474.4 3 457.3V84.8C3 67.7 16.9 53.8 34 53.8H318.3C338.7 34.6 366 22.8 396.2000000000001 22.8C459.0000000000001 22.8 510.0000000000001 73.9 510.0000000000001 136.6C510 184.7 479.9 225.8 437.6 242.4zM23.7 457.3C23.7 463 28.3 467.6 34 467.6H406.5C412.2 467.6 416.8 463 416.8 457.3V248.5C414 249 411.1 249.4 408.3 249.7C408.1 249.7 407.9000000000001 249.8 407.7 249.8C396.7 250.9000000000001 385.7 250.5 375.1 248.5L302.4 310.5C298.5 313.8 292.8 313.8 288.9 310.5L24.1 82.6C23.9 83.3 23.7 84 23.7 84.7000000000001V457.3zM46.3 74.4L295.8 288.9L351.7 241.2C351.3 241 350.9 240.8 350.4 240.6C348 239.5 345.6 238.4 343.3 237.2C342.5 236.8 341.8 236.4 341 236C338.3999999999999 234.6 335.8999999999999 233 333.5 231.4C333.1 231.1 332.6 230.8 332.2 230.6C311.8 216.7 295.5999999999999 196.2 287.5999999999999 170.8C285.4999999999999 164.1 284.2 157.3 283.2999999999999 150.5C283.1999999999999 149.6 282.9999999999999 148.6999999999999 282.8999999999999 147.8C282.5999999999999 144.6999999999999 282.5 141.6999999999999 282.3999999999999 138.6C282.3999999999999 137.9 282.2999999999999 137.2 282.2999999999999 136.5C282.2999999999999 136.3 282.2999999999999 136.1 282.2999999999999 135.8999999999999C282.2999999999999 133 282.4999999999999 130.0999999999999 282.6999999999999 127.1999999999999C282.7999999999999 126.0999999999999 282.8999999999999 125 282.9999999999999 123.8999999999999C283.2999999999999 121.1999999999999 283.6999999999999 118.5999999999999 284.1999999999999 116C284.3999999999999 114.6999999999999 284.6999999999999 113.3999999999999 284.9999999999999 112.1C285.4999999999999 109.7 286.1999999999999 107.3 286.8999999999999 104.9C287.2999999999999 103.5 287.6999999999999 102.1 288.1999999999999 100.7C288.9999999999999 98.4 289.7999999999999 96.1 290.6999999999999 93.9C291.2999999999999 92.5 291.8999999999999 91.2 292.4999999999999 89.9C293.4999999999999 87.7 294.4999999999999 85.5 295.6999999999999 83.3C296.2999999999999 82.1 296.9999999999999 80.9999999999999 297.6999999999999 79.8C298.6999999999999 78.1 299.5999999999999 76.3 300.6999999999999 74.6H46.3zM396.2 43.4C369.1 43.4 344.7 55.1 327.7 73.7C326.1 75.5 324.5 77.3 323 79.2C322 80.5 321 81.8 320.1 83.1C318.8 84.9999999999999 317.5 86.9 316.4000000000001 88.9C315.4000000000001 90.6 314.4000000000001 92.2 313.5000000000001 94C312.2000000000001 96.4 311.1000000000001 98.9 310.0000000000001 101.4C309.4000000000001 102.9 308.8000000000001 104.5 308.3000000000001 106.1C307.6000000000001 107.9999999999999 307.0000000000001 109.9 306.5000000000001 111.8C306.0000000000001 113.5 305.6000000000001 115.1 305.2000000000001 116.8C304.8000000000001 118.9 304.5000000000001 120.9 304.1 123C303.7000000000001 125.8999999999999 303.4000000000001 128.8999999999999 303.2000000000001 131.8999999999999C303.1 133.7999999999999 303.0000000000001 135.5999999999999 303.0000000000001 137.5C303.0000000000001 139.3999999999999 303.2000000000001 141.3 303.3000000000001 143.3C303.4000000000001 145.1999999999999 303.6000000000001 147.1 303.9000000000001 148.9C304.1000000000001 150.7 304.4000000000001 152.4 304.7000000000001 154.1C305.2000000000001 156.8 305.9000000000001 159.4 306.6000000000001 162C313.5000000000001 186.1 329.8000000000001 206.3 351.3000000000001 218.1C351.5000000000001 218.2 351.7000000000001 218.3 351.9000000000001 218.4C354.2000000000001 219.6 356.5000000000001 220.7 358.9000000000001 221.8C359.3000000000001 222 359.7000000000001 222.1999999999999 360.1000000000001 222.4C362.5000000000001 223.4 365.0000000000001 224.3 367.5000000000001 225.1C367.9000000000001 225.2 368.2000000000001 225.4 368.6000000000001 225.5C377.3000000000001 228.2 386.5000000000001 229.7 396.1000000000001 229.7C405.3000000000001 229.7 414.2000000000001 228.3 422.7000000000001 225.8C423.1000000000001 225.7 423.5000000000001 225.6 423.8000000000002 225.5C461.7000000000001 213.6999999999999 489.2000000000002 178.3 489.2000000000002 136.5999999999999C489.3 85.2 447.5 43.4 396.2 43.4zM437.6 146.9H406.6V177.9C406.6 183.6 402 188.2 396.3 188.2S386 183.6 386 177.9V146.9H355C349.3 146.9 344.7 142.3 344.7 136.6C344.7 130.9 349.3 126.3 355 126.3H386V95.3C386 89.6 390.6 84.9999999999999 396.3 84.9999999999999S406.6 89.6 406.6 95.3V126.3H437.6C443.3 126.3 447.9000000000001 130.9 447.9000000000001 136.6C447.9 142.2 443.3 146.9 437.6 146.9z" />
    <glyph glyph-name="add-small"
      unicode="&#xEA0B;"
      horiz-adv-x="512" d="M255.998 391.4700000000001C264.834 391.4700000000001 271.998 384.306 271.998 375.4700000000001V272.003H375.465C384.301 272.003 391.465 264.8400000000001 391.465 256.003C391.465 247.167 384.301 240.003 375.465 240.003H271.998V136.536C271.998 127.7 264.834 120.536 255.998 120.536C247.161 120.536 239.998 127.7 239.998 136.536V240.003H136.531C127.695 240.003 120.531 247.167 120.531 256.003C120.531 264.8400000000001 127.695 272.003 136.531 272.003H239.998V375.4700000000001C239.998 384.306 247.161 391.4700000000001 255.998 391.4700000000001z" />
    <glyph glyph-name="add-specification"
      unicode="&#xEA0C;"
      horiz-adv-x="512" d="M190 500.1H11.4C4.8 500.1 -0.5 494.8 -0.5 488.2V309.2C-0.5 302.6 4.8 297.3 11.4 297.3H190C196.6 297.3 201.9 302.6 201.9 309.2V488.2C201.9 494.7 196.6 500.1 190 500.1zM178.1 321.1H23.3V476.2H178.1V321.1zM487.6 201.8H309.1C302.5 201.8 297.2000000000001 196.5 297.2000000000001 189.9V10.9C297.2000000000001 4.3 302.5000000000001 -1 309.1 -1H487.7C494.3000000000001 -1 499.6 4.3 499.6 10.9V189.9C499.6 196.5 494.2 201.8 487.6 201.8zM475.7 22.9H321V178H475.8V22.9zM190 201.8H11.4C4.8 201.8 -0.5 196.5 -0.5 189.9V10.9C-0.5 4.3 4.8 -1 11.4 -1H190C196.6 -1 201.9 4.3 201.9 10.9V189.9C201.9 196.5 196.6 201.8 190 201.8zM178.1 22.9H23.3V178H178.1V22.9zM499.6 404.6H404.4000000000001V500.1C404.3 506.7 399 512 392.4 512S380.5 506.7 380.5 500.1V404.7H285.3C278.7 404.7 273.4000000000001 399.4 273.4000000000001 392.8C273.4000000000001 386.2 278.7000000000001 380.9 285.3 380.9H380.5V285.5C380.5 278.9 385.8 273.6 392.4 273.6S404.3 278.9 404.3 285.5V380.9H499.4999999999999C506.1 380.9 511.3999999999999 386.2 511.3999999999999 392.8C511.5 399.3 506.1 404.6 499.6 404.6z" />
    <glyph glyph-name="add-user"
      unicode="&#xEA0D;"
      horiz-adv-x="512" d="M256 200.7H101.2C46.3 200.7 1.7 156.1 1.7 101.2V57C1.7 50.9 6.6 45.9 12.8 45.9S23.9 50.8 23.9 57V101.2C23.9 143.9 58.6 178.6 101.3 178.6H256C298.7 178.6 333.4 143.9 333.4 101.2000000000001V57C333.4 50.9 338.3 45.9 344.5 45.9S355.6 50.8 355.6 57V101.2C355.5 156.1 310.9 200.7 256 200.7zM178.6 267.1C233.5 267.1 278.1 311.7 278.1 366.6S233.5000000000001 466.1 178.6 466.1S79.1 421.5 79.1 366.6S123.7 267.1 178.6 267.1zM178.6 443.9C221.3 443.9 256 409.2 256 366.5S221.3 289.1 178.6 289.1S101.2 323.8 101.2 366.5S135.9 443.9 178.6 443.9zM499.2 289.2H443.9V344.5C443.9 350.6 439 355.6 432.8 355.6C426.7 355.6 421.7 350.7 421.7 344.5V289.2H366.3999999999999C360.2999999999999 289.2 355.2999999999999 284.3 355.2999999999999 278.1S360.1999999999999 267 366.3999999999999 267H421.7V211.7C421.7 205.6 426.5999999999999 200.6 432.8 200.6C438.9 200.6 443.9 205.5 443.9 211.7V267H499.2C505.3 267 510.3 271.9 510.3 278.1S505.3 289.2 499.2 289.2z" />
    <glyph glyph-name="add-variation"
      unicode="&#xEA0E;"
      horiz-adv-x="512" d="M455.7 405.2L286.3 502.1C267.6 512.9 244.4 512.9 225.8 502.1L56.2 405.2C37.6 394.5 26 374.4 26 352.9V159.2000000000001C26 137.7000000000001 37.6 117.6 56.3 106.8000000000001L225.7 10.0000000000001C235 4.6000000000001 245.5 1.9 256 1.9C266.5 1.9 276.9 4.6 286.2 10.0000000000001L455.7 106.9000000000001C474.3 117.7000000000001 485.9 137.7000000000001 486 159.3000000000001C486 159.3000000000001 486 159.3000000000001 486 159.3000000000001V352.9C486 374.4 474.4 394.5 455.7 405.2zM461.8 159.2C461.8 146.3 454.8 134.2 443.7 127.8L274.2 30.9C263 24.4 249.1 24.4 237.8 30.9L68.4 127.8C57.2 134.2 50.3 146.3 50.2 159.2V352.8C50.2 365.7000000000001 57.2 377.8 68.3 384.2000000000001L237.8 481.1C243.4 484.3 249.7 486 255.9 486C262.2 486 268.5 484.4 274.1 481.1L443.5 384.3C454.7 377.8 461.6 365.8 461.7 352.9000000000001V159.2zM352.9 268.1H268.2V352.8C268.2 359.5 262.8 364.9 256.1 364.9C249.4 364.9 244 359.5 244 352.8V268.1H159.3C152.6 268.1 147.2 262.7000000000001 147.2 256C147.2 249.3 152.6 243.9000000000001 159.3 243.9000000000001H244V159.2000000000001C244 152.5000000000001 249.4 147.1 256.1 147.1C262.8 147.1 268.2 152.5 268.2 159.2000000000001V243.9000000000001H352.9C359.6 243.9000000000001 365 249.3 365 256C365 262.6 359.5 268.1 352.9 268.1z" />
    <glyph glyph-name="add"
      unicode="&#xEA0F;"
      horiz-adv-x="512" d="M256.002 493.8652C264.839 493.8652 272.002 486.7018 272.002 477.8652V271.999H477.869C486.706 271.999 493.869 264.8350000000001 493.869 255.999C493.869 247.162 486.706 239.999 477.869 239.999H272.002V34.132C272.002 25.295 264.839 18.132 256.002 18.132C247.166 18.132 240.002 25.295 240.002 34.132V239.999H34.1357C25.2992 239.999 18.1357 247.162 18.1357 255.999C18.1357 264.8350000000001 25.2992 271.999 34.1357 271.999H240.002V477.8652C240.002 486.7018 247.166 493.8652 256.002 493.8652z" />
    <glyph glyph-name="address-book"
      unicode="&#xEA10;"
      horiz-adv-x="512" d="M435.5 510.99998H128.3C115.014 510.99468 102.274 505.7146 92.8798 496.3202C83.4854 486.9258 78.2053 474.1857 78.2 460.9V374.5H43C38.7565 374.5 34.6869 372.814 31.6863 369.814C28.6857 366.813 27 362.743 27 358.5C27 354.257 28.6857 350.187 31.6863 347.1860000000001C34.6869 344.1860000000001 38.7565 342.5 43 342.5H78.2V169.7H43C38.7565 169.7 34.6869 168.014 31.6863 165.014C28.6857 162.013 27 157.943 27 153.7C27 149.457 28.6857 145.387 31.6863 142.386C34.6869 139.386 38.7565 137.7 43 137.7H78.2V51.3C78.1947 44.719 79.487 38.202 82.0029 32.121C84.5188 26.041 88.209 20.515 92.8622 15.862C97.5155 11.209 103.041 7.519 109.121 5.003C115.202 2.487 121.719 1.195 128.3 1.2H435.5C442.081 1.195 448.598 2.487 454.679 5.003C460.759 7.519 466.285 11.209 470.938 15.862C475.591 20.515 479.281 26.041 481.797 32.121C484.313 38.202 485.605 44.719 485.6 51.3V460.9C485.605 467.4807 484.313 473.9979 481.797 480.0786C479.281 486.1594 475.591 491.6845 470.938 496.3378C466.285 500.991 460.759 504.68117 454.679 507.19706C448.598 509.71296 442.081 511.005244 435.5 510.99998zM453.7 51.3C453.7 46.5 451.793 41.896 448.399 38.501C445.004 35.107 440.4 33.2 435.6 33.2H128.3C125.923 33.2 123.569 33.668 121.373 34.578C119.177 35.487 117.182 36.821 115.501 38.501C113.821 40.182 112.487 42.177 111.578 44.373C110.668 46.569 110.2 48.923 110.2 51.3V137.7H145.4C149.643 137.7 153.713 139.386 156.714 142.386C159.714 145.387 161.4 149.457 161.4 153.7C161.4 157.943 159.714 162.013 156.714 165.014C153.713 168.014 149.643 169.7 145.4 169.7H110.2V342.5H145.4C149.643 342.5 153.713 344.1860000000001 156.714 347.1860000000001C159.714 350.187 161.4 354.257 161.4 358.5C161.4 362.743 159.714 366.813 156.714 369.814C153.713 372.814 149.643 374.5 145.4 374.5H110.2V460.9C110.2 465.7004 112.107 470.3042 115.501 473.6986C118.896 477.093 123.5 479 128.3 479H435.5C437.877 479 440.231 478.5318 442.427 477.6222C444.623 476.7126 446.618 475.3794 448.299 473.6986C449.979 472.0179 451.313 470.0225 452.222 467.8266C453.132 465.6306 453.6 463.2769 453.6 460.9V51.3H453.7zM281.9 237.9C255.034 237.9 229.268 227.227 210.27 208.23C191.273 189.232 180.6 163.466 180.6 136.6V119.5C180.6 115.257 182.286 111.187 185.286 108.186C188.287 105.186 192.357 103.5 196.6 103.5H367.3C371.543 103.5 375.613 105.186 378.614 108.186C381.614 111.187 383.3 115.257 383.3 119.5V136.6C383.2970000000001 149.911 380.6720000000001 163.09 375.574 175.386C370.476 187.681 363.005 198.852 353.589 208.259C344.1720000000001 217.667 332.9940000000001 225.126 320.693 230.212C308.393 235.298 295.211 237.9100000000001 281.9 237.9zM351.3 135.5H212.6V136.6C212.6 154.979 219.901 172.606 232.898 185.602C245.894 198.599 263.52 205.9 281.9 205.9C300.28 205.9 317.906 198.599 330.902 185.602C343.899 172.606 351.2 154.979 351.2 136.6V135.5H351.3zM281.9 408.6C268.609 408.6 255.617 404.659 244.566 397.275C233.515 389.891 224.902 379.396 219.815 367.116C214.729 354.837 213.398 341.325 215.991 328.29C218.584 315.254 224.984 303.281 234.382 293.882C243.781 284.4840000000001 255.754 278.084 268.79 275.491C281.825 272.898 295.337 274.2290000000001 307.616 279.315C319.896 284.401 330.391 293.015 337.775 304.0660000000001C345.159 315.117 349.1 328.1090000000001 349.1 341.4C349.0950000000001 359.221 342.013 376.31 329.412 388.9120000000001C316.81 401.5130000000001 299.721 408.5950000000001 281.9 408.6zM281.9 306.2C274.938 306.2 268.133 308.264 262.344 312.132C256.555 316 252.044 321.498 249.379 327.93C246.715 334.361 246.018 341.439 247.376 348.267C248.735 355.0950000000001 252.087 361.367 257.01 366.29C261.933 371.213 268.205 374.565 275.033 375.924C281.861 377.2820000000001 288.939 376.5850000000001 295.37 373.921C301.802 371.256 307.3 366.745 311.168 360.956C315.036 355.1670000000001 317.1 348.362 317.1 341.4C317.087 332.068 313.374 323.123 306.776 316.524C300.177 309.926 291.2320000000001 306.213 281.9 306.2z" />
    <glyph glyph-name="adjust-horizontal-alt"
      unicode="&#xEA11;"
      horiz-adv-x="544" d="M169.6 444.7959C140.734 444.7959 117.333 421.3953 117.333 392.529C117.333 363.663 140.734 340.2630000000001 169.6 340.2630000000001C198.466 340.2630000000001 221.867 363.663 221.867 392.529C221.867 421.3953 198.466 444.7959 169.6 444.7959zM86.8504 408.529C94.3249 447.4170000000001 128.532 476.7959 169.6 476.7959C210.668 476.7959 244.875 447.4170000000001 252.35 408.529L528 408.529C536.837 408.529 544 401.366 544 392.529C544 383.693 536.837 376.529 528 376.529L252.35 376.529C244.875 337.642 210.668 308.2630000000001 169.6 308.2630000000001C128.532 308.2630000000001 94.3249 337.642 86.8504 376.529L16 376.529C7.16344 376.529 0 383.693 0 392.529C0 401.366 7.16344 408.529 16 408.529L86.8504 408.529zM374.4 171.729C345.534 171.729 322.133 148.329 322.133 119.463C322.133 90.597 345.534 67.196 374.4 67.196C403.266 67.196 426.667 90.597 426.667 119.463C426.667 148.329 403.266 171.729 374.4 171.729zM291.65 135.463C299.125 174.35 333.332 203.729 374.4 203.729C415.468 203.729 449.675 174.35 457.15 135.463L528 135.463C536.836 135.463 544 128.299 544 119.463C544 110.626 536.837 103.463 528 103.463L457.15 103.463C449.675 64.575 415.468 35.196 374.4 35.196C333.332 35.196 299.125 64.575 291.65 103.463L16 103.463C7.16345 103.463 0.00000476837 110.626 0.00000476837 119.463C0.00000476837 128.299 7.16345 135.463 16 135.463L291.65 135.463z" />
    <glyph glyph-name="adjust-horizontal"
      unicode="&#xEA12;"
      horiz-adv-x="544" d="M221.867 494.9307C221.867 503.76722 229.03 510.93066 237.867 510.93066L306.133 510.93066C314.9700000000001 510.93066 322.133 503.76722 322.133 494.9307V442.6637L528 442.664C536.837 442.664 544 435.5006 544 426.664C544 417.8275 536.837 410.664 528 410.664L322.133 410.664V358.397C322.133 349.5610000000001 314.9700000000001 342.397 306.133 342.397H237.867C233.623 342.397 229.554 344.083 226.553 347.084C223.552 350.084 221.867 354.154 221.867 358.397V410.664L16 410.664C7.16348 410.664 0.0000400543 417.8275 0.0000400543 426.664C0.0000400543 435.5006 7.16348 442.664 16 442.664L221.867 442.664V494.9307zM253.867 426.6914C253.867 426.6823 253.867 426.6731 253.867 426.664C253.867 426.6549 253.867 426.6458 253.867 426.6367V374.397H290.133V478.9307L253.867 478.9307V426.6914zM85.3333 324.264C85.3333 333.101 92.4968 340.264 101.333 340.264H169.6C178.437 340.264 185.6 333.101 185.6 324.264V271.997L528 271.997C536.837 271.997 544 264.834 544 255.997C544 247.161 536.837 239.997 528 239.997L185.6 239.997V187.731C185.6 178.894 178.437 171.731 169.6 171.731H101.333C92.4968 171.731 85.3333 178.894 85.3333 187.731V239.997H16C7.16344 239.997 0 247.161 0 255.997C0 264.834 7.16344 271.997 16 271.997H85.3333V324.264zM117.333 203.731H153.6V308.264H117.333V203.731zM363.086 164.911C366.087 167.912 370.157 169.597 374.4 169.597L442.667 169.597C451.503 169.597 458.667 162.434 458.667 153.597V101.331L528 101.331C536.837 101.331 544 94.167 544 85.331C544 76.494 536.837 69.331 528 69.331L458.667 69.331V17.064C458.667 12.821 456.981 8.751 453.98 5.75C450.98 2.75 446.9100000000001 1.064 442.667 1.064L374.4 1.064C365.563 1.064 358.4 8.228 358.4 17.064V69.331H16C7.16347 69.331 0.0000247955 76.494 0.0000247955 85.331C0.0000247955 94.167 7.16347 101.331 16 101.331H358.4V153.597C358.4 157.841 360.086 161.911 363.086 164.911zM390.4 85.362C390.4 85.352 390.4 85.341 390.4 85.331C390.4 85.32 390.4 85.31 390.4 85.299V33.064L426.667 33.064V137.597L390.4 137.597V85.362z" />
    <glyph glyph-name="adjust-vertical-alt"
      unicode="&#xEA13;"
      horiz-adv-x="512" d="M149.333 464C158.17 464 165.333 456.8366 165.333 448L165.333 244.589C195.556 237.637 218.667 211.428 218.667 179.2C218.667 146.972 195.556 120.763 165.333 113.811V64C165.333 55.163 158.17 48 149.333 48C140.497 48 133.333 55.163 133.333 64V113.811C103.111 120.763 80 146.972 80 179.2C80 211.428 103.111 237.637 133.333 244.589L133.333 448C133.333 456.8366 140.497 464 149.333 464zM362.667 464C371.503 464 378.667 456.8366 378.667 448L378.667 398.189C408.889 391.237 432 365.028 432 332.8C432 300.572 408.889 274.363 378.667 267.411V64C378.667 55.163 371.503 48 362.667 48C353.83 48 346.667 55.163 346.667 64V267.411C316.444 274.363 293.3330000000001 300.572 293.3330000000001 332.8C293.3330000000001 365.028 316.444 391.237 346.667 398.189L346.667 448C346.667 456.8365 353.83 464 362.667 464zM362.667 368C341.426 368 325.3330000000001 351.631 325.3330000000001 332.8C325.3330000000001 313.969 341.426 297.6 362.667 297.6C383.907 297.6 400 313.969 400 332.8C400 351.631 383.907 368 362.667 368zM149.333 214.4C128.093 214.4 112 198.031 112 179.2C112 160.369 128.093 144 149.333 144C170.574 144 186.667 160.369 186.667 179.2C186.667 198.031 170.574 214.4 149.333 214.4z" />
    <glyph glyph-name="adjust-vertical"
      unicode="&#xEA14;"
      horiz-adv-x="512" d="M256 543.999023438C264.836 543.999023438 272 536.83558 272 527.999V185.599H324.266C333.103 185.599 340.266 178.436 340.266 169.599V101.332C340.266 92.496 333.103 85.332 324.266 85.332H272V15.999C272 7.162 264.836 -0.001 256 -0.001C247.163 -0.001 240 7.162 240 15.999V85.332H187.733C178.896 85.332 171.733 92.496 171.733 101.332V169.599C171.733 178.436 178.896 185.599 187.733 185.599H240V527.999C240 536.83558 247.163 543.999023438 256 543.999023438zM308.266 117.332V153.599H203.733V117.332H308.266zM85.3331 543.999001503C94.1696 543.999011993 101.333 536.83558 101.333 527.999L101.333 322.132H153.6C162.436 322.132 169.6 314.969 169.6 306.132V237.866C169.6 229.029 162.436 221.866 153.6 221.866H101.333V15.999C101.333 7.162 94.1696 -0.001 85.333 -0.001C76.4965 -0.001 69.333 7.162 69.333 15.999V221.866H17.0664C8.22985 221.866 1.06641 229.029 1.06641 237.866V306.132C1.06641 314.969 8.22985 322.132 17.0664 322.132H69.3333L69.3331 527.999C69.3331 536.83554 76.4965 543.99899006 85.3331 543.999001503zM33.0664 290.132V253.866H85.2884C85.3033 253.866 85.3182 253.866 85.333 253.866C85.3479 253.866 85.3628 253.866 85.3777 253.866H137.6V290.132H33.0664zM426.666 543.999001503C435.503 543.999001503 442.666 536.83556 442.666 527.999V458.6657H494.933C503.77 458.6657 510.933 451.5022 510.933 442.666V374.399C510.933 365.562 503.77 358.399 494.933 358.399H442.666V15.999C442.666 7.162 435.503 -0.001 426.666 -0.001C417.83 -0.001 410.666 7.162 410.666 15.999V358.399H358.4C349.563 358.399 342.4 365.562 342.4 374.399V442.666C342.4 451.5022 349.563 458.6657 358.4 458.6657H410.666V527.999C410.666 536.83556 417.83 543.999001503 426.666 543.999001503zM374.4 426.666V390.399H426.635C426.645 390.399 426.656 390.399 426.666 390.399C426.677 390.399 426.687 390.399 426.698 390.399H478.933V426.666H374.4z" />
    <glyph glyph-name="ads-list-submenu"
      unicode="&#xEA15;"
      horiz-adv-x="512" d="M449.7 389.2H285.2L385.6 489.5C390.3 494.2 390.3 501.9 385.6 506.6S373.2000000000001 511.3 368.5 506.6L256 394.2L143.5 506.7C138.8 511.4 131.1 511.4 126.4 506.7S121.7 494.3 126.4 489.6L226.8 389.2H62.3C29 389.2 1.8 362 1.8 328.6V62.3C1.8 28.9 29 1.8 62.3 1.8H449.6C483 1.8 510.1 28.9 510.1 62.3V328.6C510.2 362 483.1 389.2 449.7 389.2zM486 62.3C486 42.3 469.7 26 449.7 26H62.3C42.3 26 26 42.3 26 62.3V328.6C26 348.6 42.3 364.9 62.3 364.9H449.6C469.6 364.9 485.9 348.6 485.9 328.6V62.3zM401.3 275.4H110.7C104 275.4 98.6 270 98.6 263.3S104 251.2 110.7 251.2H401.2C407.9 251.2 413.3 256.6 413.3 263.3S407.9 275.4 401.3 275.4zM401.3 202.7H110.7C104 202.7 98.6 197.3 98.6 190.6S104 178.5 110.7 178.5H401.2C407.9 178.5 413.3 183.8999999999999 413.3 190.6S407.9 202.7 401.3 202.7zM401.3 130.1H110.7C104 130.1 98.6 124.7000000000001 98.6 118S104 105.9 110.7 105.9H401.2C407.9 105.9 413.3 111.3 413.3 118S407.9 130.1 401.3 130.1z" />
    <glyph glyph-name="ads"
      unicode="&#xEA16;"
      horiz-adv-x="512" d="M449.2 388.8H285.2L385.3 489C390 493.7 390 501.4 385.3 506.1C380.6 510.8 372.9000000000001 510.8 368.2 506.1L256 393.8L143.8 506.1C139.1 510.8 131.4 510.8 126.7 506.1S122 493.7 126.7 489L226.8 388.9H62.8C29.5 388.9 2.4 361.8 2.4 328.5V62.8C2.4 29.5 29.5 2.4 62.8 2.4H449.2C482.5 2.4 509.6 29.5000000000001 509.6 62.8V328.5C509.6 361.7 482.5 388.8 449.2 388.8zM485.4 62.8C485.4 42.8 469.1 26.6 449.2 26.6H62.8C42.8 26.6 26.6 42.9 26.6 62.8V328.5C26.6 348.5 42.9 364.7 62.8 364.7H449.2C469.2 364.7 485.4 348.4 485.4 328.5V62.8z" />
    <glyph glyph-name="airplay"
      unicode="&#xEA17;"
      horiz-adv-x="512" d="M1.06641 460.7959C1.06641 469.6325 8.22985 476.7959 17.0664 476.7959H494.933C503.77 476.7959 510.933 469.6325 510.933 460.7959V119.463C510.933 110.626 503.77 103.463 494.933 103.463H409.6C400.763 103.463 393.6 110.626 393.6 119.463C393.6 128.299 400.763 135.463 409.6 135.463H478.933V444.7959H33.0664V135.463H102.4C111.236 135.463 118.4 128.299 118.4 119.463C118.4 110.626 111.236 103.463 102.4 103.463H17.0664C8.22985 103.463 1.06641 110.626 1.06641 119.463V460.7959zM244.686 199.043C250.934 205.291 261.065 205.291 267.313 199.043L403.847 62.51C408.423 57.934 409.792 51.052 407.315 45.073C404.839 39.094 399.004 35.196 392.533 35.196H119.466C112.995 35.196 107.161 39.094 104.684 45.073C102.208 51.052 103.577 57.934 108.153 62.51L244.686 199.043zM158.094 67.196H353.906L256 165.102L158.094 67.196z" />
    <glyph glyph-name="airpods"
      unicode="&#xEA18;"
      horiz-adv-x="512" d="M118.273 498.1061C181.776 506.04399 237.866 456.5283 237.866 392.531V17.064C237.866 8.228 230.703 1.064 221.866 1.064H153.6C144.763 1.064 137.6 8.228 137.6 17.064V286.284C131.271 285.93 124.811 286.1380000000001 118.273 286.956L107.335 288.323C88.8535 290.6330000000001 71.2948 297.726 56.3946 308.901L7.46641 345.597C3.43751 348.6190000000001 1.06641 353.361 1.06641 358.397V426.6641C1.06641 431.7002 3.43751 436.4425 7.46641 439.4641000000001L56.3946 476.1603C71.2948 487.3354 88.8535 494.4287 107.335 496.7389L118.273 498.1061zM169.6 293.16V33.064H205.866V316.467C195.551 306.386 183.22 298.403 169.6 293.16zM205.866 392.531C205.866 437.2804 166.646 471.9037 122.242 466.3532L111.304 464.986C98.3484 463.3665 86.0398 458.3941 75.5946 450.5603L33.0664 418.6641V366.397L75.5946 334.501C86.0398 326.6670000000001 98.3484 321.695 111.304 320.076L122.242 318.708C166.646 313.158 205.866 347.781 205.866 392.531zM389.758 466.3532C345.354 471.9037 306.133 437.2804 306.133 392.531C306.133 347.781 345.354 313.158 389.758 318.708L400.695 320.076C413.651 321.695 425.96 326.6670000000001 436.405 334.501L478.933 366.397V418.6641L436.405 450.5603C425.96 458.3941 413.651 463.3665 400.695 464.986L389.758 466.3532zM274.133 392.531C274.133 456.5283 330.224 506.04399 393.727 498.1061L404.665 496.7389C423.146 494.4287 440.705 487.3355 455.605 476.1603L504.533 439.4641000000001C508.562 436.4424 510.933 431.7002 510.933 426.6641V358.397C510.933 353.361 508.562 348.6190000000001 504.533 345.597L455.605 308.901C440.705 297.726 423.146 290.6330000000001 404.665 288.323L393.727 286.956C387.188 286.1380000000001 380.728 285.93 374.4 286.284V17.064C374.4 8.228 367.236 1.064 358.4 1.064H290.133C281.2970000000001 1.064 274.133 8.228 274.133 17.064V392.531zM342.4 293.16C328.78 298.403 316.449 306.386 306.133 316.467V33.064H342.4V293.16zM52.2664 392.531C52.2664 401.367 59.4299 408.531 68.2664 408.531H136.533C145.37 408.531 152.533 401.367 152.533 392.531C152.533 383.694 145.37 376.531 136.533 376.531H68.2664C59.4299 376.531 52.2664 383.694 52.2664 392.531zM359.466 392.531C359.466 401.367 366.63 408.531 375.466 408.531H443.733C452.57 408.531 459.733 401.367 459.733 392.531C459.733 383.694 452.57 376.531 443.733 376.531H375.466C366.63 376.531 359.466 383.694 359.466 392.531z" />
    <glyph glyph-name="alarm"
      unicode="&#xEA19;"
      horiz-adv-x="512" d="M130.78 506.2473C137.029 499.9989 137.029 489.8683 130.78 483.6199L28.3801 381.2200000000001C22.1317 374.971 12.0011 374.971 5.7527 381.2200000000001C-0.495691 387.468 -0.495691 397.599 5.7527 403.847L108.153 506.2473C114.401 512.495691 124.532 512.495691 130.78 506.2473zM381.219 506.2473C387.468 512.495691 397.598 512.495691 403.847 506.2473L506.247 403.847C512.495 397.599 512.495 387.468 506.247 381.2200000000001C499.998 374.971 489.868 374.971 483.619 381.2200000000001L381.219 483.6199C374.971 489.8683 374.971 499.9989 381.219 506.2473zM35.1997 221.867C35.1997 343.8110000000001 134.055 442.6669 256 442.6669C377.944 442.6669 476.8 343.8110000000001 476.8 221.867C476.8 99.922 377.944 1.067 256 1.067C134.055 1.067 35.1997 99.922 35.1997 221.867zM256 410.6670000000001C151.728 410.6670000000001 67.1997 326.1380000000001 67.1997 221.867C67.1997 117.596 151.728 33.067 256 33.067C360.271 33.067 444.8 117.596 444.8 221.867C444.8 326.1380000000001 360.271 410.6670000000001 256 410.6670000000001zM256 357.334C264.836 357.334 272 350.17 272 341.334V237.867H341.3330000000001C350.17 237.867 357.3330000000001 230.703 357.3330000000001 221.867C357.3330000000001 213.03 350.17 205.867 341.3330000000001 205.867H256C247.163 205.867 240 213.03 240 221.867V341.334C240 350.17 247.163 357.334 256 357.334z" />
    <glyph glyph-name="alien"
      unicode="&#xEA1A;"
      horiz-adv-x="512" d="M101.781 465.0795C139.34 495.3771 191.211 512.93164 256.019 512.93164C320.825 512.93164 372.697 495.3846 410.257 465.09C447.844 434.7733 469.929 392.616 476.647 345.673C489.453 261.703 471.396 182.174 422.787 112.376C399.589 78.478 368.783 44.987 332.742 22.549C332.666 22.502 332.59 22.455 332.514 22.41C283.2200000000001 -7.149 228.818 -7.149 179.524 22.41C179.448 22.455 179.372 22.502 179.296 22.549C143.262 44.983 112.459 78.467 89.2627 112.359C40.4537 182.08 22.3748 261.702 35.394 345.6910000000001C42.1155 392.6140000000001 64.1991 434.7639000000001 101.781 465.0795zM121.872 440.1728C91.1275 415.3724 72.7252 380.76 67.0588 341.07C67.0495 341.006 67.0399 340.9410000000001 67.0299 340.876C55.2274 264.872 71.4637 193.548 115.524 130.644C115.542 130.618 115.56 130.592 115.578 130.566C115.594 130.544 115.609 130.521 115.625 130.499C137.139 99.049 164.929 69.219 196.095 49.785C235.187 26.393 276.851 26.393 315.943 49.785C347.109 69.219 374.899 99.049 396.413 130.499C396.439 130.536 396.465 130.574 396.491 130.611C440.387 193.616 456.613 264.894 445.002 340.916C444.9940000000001 340.968 444.987 341.019 444.979 341.0710000000001C439.313 380.774 420.9100000000001 415.3858 390.167 440.1821C359.375 465.018 315.032 480.9316 256.019 480.9316C197.008 480.9316 152.665 465.0121 121.872 440.1728zM142.305 303.445C148.554 309.694 158.684 309.694 164.933 303.445L216.133 252.245C222.381 245.997 222.381 235.866 216.133 229.618C209.884 223.37 199.754 223.37 193.505 229.618L142.305 280.818C136.057 287.0660000000001 136.057 297.197 142.305 303.445zM369.733 303.445C375.981 297.197 375.981 287.0660000000001 369.733 280.818L318.533 229.618C312.284 223.37 302.154 223.37 295.905 229.618C289.657 235.866 289.657 245.997 295.905 252.245L347.105 303.445C353.354 309.694 363.484 309.694 369.733 303.445zM207.221 127.865C210.756 135.964 220.187 139.664 228.286 136.129C231.535 134.711 235.021 132.625 237.852 130.884C239.174 130.07 240.383 129.313 241.56 128.576C243.323 127.472 245.013 126.413 246.903 125.278C249.895 123.482 252.419 122.095 254.477 121.185C255.158 120.885 255.666 120.691 256.019 120.569C256.372 120.691 256.88 120.885 257.561 121.185C259.6190000000001 122.095 262.143 123.482 265.135 125.278C267.025 126.413 268.715 127.472 270.478 128.576C271.655 129.313 272.864 130.07 274.186 130.884C277.017 132.625 280.502 134.711 283.752 136.129C291.851 139.664 301.282 135.964 304.817 127.865C308.351 119.766 304.651 110.335 296.552 106.801C295.615 106.392 293.883 105.431 290.956 103.63C290.079 103.09 289.042 102.442 287.927 101.744C285.921 100.49 283.6600000000001 99.076 281.608 97.844C278.256 95.831 274.388 93.636 270.497 91.917C266.928 90.339 261.698 88.398 256.019 88.398C250.34 88.398 245.109 90.339 241.541 91.917C237.65 93.636 233.782 95.831 230.429 97.844C228.378 99.076 226.117 100.49 224.111 101.744C222.995 102.442 221.959 103.09 221.082 103.63C218.155 105.431 216.423 106.392 215.486 106.801C207.387 110.335 203.687 119.766 207.221 127.865z" />
    <glyph glyph-name="align-bottom"
      unicode="&#xEA1B;"
      horiz-adv-x="544" d="M119.467 494.9375C119.467 503.77406 126.63 510.9375 135.467 510.9375H237.867C246.703 510.9375 253.867 503.77406 253.867 494.9375V119.471C253.867 110.634 246.703 103.471 237.867 103.471H135.467C126.63 103.471 119.467 110.634 119.467 119.471V494.9375zM151.467 478.9375V135.471H221.867V478.9375H151.467zM290.133 358.404C290.133 367.241 297.2970000000001 374.404 306.133 374.404H408.533C417.37 374.404 424.533 367.241 424.533 358.404V119.471C424.533 110.634 417.37 103.471 408.533 103.471H306.133C297.2970000000001 103.471 290.133 110.634 290.133 119.471V358.404zM322.133 342.404V135.471H392.533V342.404H322.133zM0 17.071C0 25.907 7.16344 33.071 16 33.071H528C536.837 33.071 544 25.907 544 17.071C544 8.234 536.837 1.071 528 1.071H16C7.16344 1.071 0 8.234 0 17.071z" />
    <glyph glyph-name="align-center-horizontal"
      unicode="&#xEA1C;"
      horiz-adv-x="512" d="M256.001 544C264.838 544 272.001 536.83656 272.001 528V424.533H375.468C384.304 424.533 391.468 417.37 391.468 408.533V306.1330000000001C391.468 297.2970000000001 384.304 290.1330000000001 375.468 290.1330000000001H272.001V253.867H460.801C469.638 253.867 476.801 246.703 476.801 237.867V135.467C476.801 126.63 469.638 119.467 460.801 119.467H272.001V16C272.001 7.163 264.838 0 256.001 0C247.165 0 240.001 7.163 240.001 16V119.467H51.2012C42.3646 119.467 35.2012 126.63 35.2012 135.467V237.867C35.2012 246.703 42.3646 253.867 51.2012 253.867H240.001V290.1330000000001H136.535C127.698 290.1330000000001 120.535 297.2970000000001 120.535 306.1330000000001V408.533C120.535 417.37 127.698 424.533 136.535 424.533H240.001V528C240.001 536.83656 247.165 544 256.001 544zM152.535 392.533V322.1330000000001H359.468V392.533H152.535zM67.2012 221.867V151.467H444.801V221.867H67.2012z" />
    <glyph glyph-name="align-center-vertical"
      unicode="&#xEA1D;"
      horiz-adv-x="544" d="M119.467 460.8066C119.467 469.6432 126.63 476.8066 135.467 476.8066H237.867C246.703 476.8066 253.867 469.6432 253.867 460.8066V272.007H290.133V375.473C290.133 384.31 297.2970000000001 391.473 306.133 391.473H408.533C417.37 391.473 424.533 384.31 424.533 375.473V272.007H528C536.837 272.007 544 264.843 544 256.007C544 247.17 536.837 240.007 528 240.007H424.533V136.54C424.533 127.703 417.37 120.54 408.533 120.54H306.133C297.2970000000001 120.54 290.133 127.703 290.133 136.54V240.007H253.867V51.207C253.867 42.37 246.703 35.207 237.867 35.207H135.467C126.63 35.207 119.467 42.37 119.467 51.207V240.007H16C7.16344 240.007 0 247.17 0 256.007C0 264.843 7.16344 272.007 16 272.007H119.467V460.8066zM151.467 67.207H221.867V444.8066H151.467V67.207zM322.133 152.54H392.533V359.473H322.133V152.54z" />
    <glyph glyph-name="align-justify"
      unicode="&#xEA1E;"
      horiz-adv-x="512" d="M64 384C64 395.782 73.5513 405.333 85.3333 405.333H426.667C438.449 405.333 448 395.782 448 384C448 372.218 438.449 362.6670000000001 426.667 362.6670000000001H85.3333C73.5513 362.6670000000001 64 372.218 64 384zM64 256C64 267.7820000000001 73.5513 277.333 85.3333 277.333H426.667C438.449 277.333 448 267.7820000000001 448 256C448 244.218 438.449 234.667 426.667 234.667H85.3333C73.5513 234.667 64 244.218 64 256zM64 128C64 139.782 73.5513 149.333 85.3333 149.333H426.667C438.449 149.333 448 139.782 448 128C448 116.218 438.449 106.667 426.667 106.667H85.3333C73.5513 106.667 64 116.218 64 128z" />
    <glyph glyph-name="align-left"
      unicode="&#xEA1F;"
      horiz-adv-x="512" d="M17.0684 544C25.9049 544 33.0684 536.83656 33.0684 528V16C33.0684 7.163 25.9049 0 17.0684 0C8.2318 0 1.06836 7.163 1.06836 16V528C1.06836 536.83656 8.2318 544 17.0684 544zM103.468 408.533C103.468 417.37 110.632 424.533 119.468 424.533H358.402C367.238 424.533 374.402 417.37 374.402 408.533V306.1330000000001C374.402 297.2970000000001 367.238 290.1330000000001 358.402 290.1330000000001H119.468C110.632 290.1330000000001 103.468 297.2970000000001 103.468 306.1330000000001V408.533zM135.468 392.533V322.1330000000001H342.402V392.533H135.468zM103.468 237.867C103.468 246.703 110.632 253.867 119.468 253.867H494.935C503.772 253.867 510.935 246.703 510.935 237.867V135.467C510.935 126.63 503.772 119.467 494.935 119.467H119.468C110.632 119.467 103.468 126.63 103.468 135.467V237.867zM135.468 221.867V151.467H478.935V221.867H135.468z" />
    <glyph glyph-name="align-right"
      unicode="&#xEA20;"
      horiz-adv-x="512" d="M494.935 544C503.772 544 510.935 536.83656 510.935 528V16C510.935 7.163 503.772 0 494.935 0C486.098 0 478.935 7.163 478.935 16V528C478.935 536.83656 486.098 544 494.935 544zM137.602 408.533C137.602 417.37 144.765 424.533 153.602 424.533H392.5350000000001C401.372 424.533 408.5350000000001 417.37 408.5350000000001 408.533V306.1330000000001C408.5350000000001 297.2970000000001 401.372 290.1330000000001 392.5350000000001 290.1330000000001H153.602C144.765 290.1330000000001 137.602 297.2970000000001 137.602 306.1330000000001V408.533zM169.602 392.533V322.1330000000001H376.5350000000001V392.533H169.602zM1.06836 237.867C1.06836 246.703 8.2318 253.867 17.0684 253.867H392.5350000000001C401.372 253.867 408.5350000000001 246.703 408.5350000000001 237.867V135.467C408.5350000000001 126.63 401.372 119.467 392.5350000000001 119.467H17.0684C8.2318 119.467 1.06836 126.63 1.06836 135.467V237.867zM33.0684 221.867V151.467H376.5350000000001V221.867H33.0684z" />
    <glyph glyph-name="align-text-center"
      unicode="&#xEA21;"
      horiz-adv-x="544" d="M0 392.531C0 401.368 7.16344 408.531 16 408.531H528C536.837 408.531 544 401.368 544 392.531C544 383.695 536.837 376.531 528 376.531H16C7.16344 376.531 0 383.695 0 392.531zM170.667 255.998C170.667 264.834 177.83 271.998 186.667 271.998H357.3330000000001C366.17 271.998 373.3330000000001 264.834 373.3330000000001 255.998C373.3330000000001 247.161 366.17 239.998 357.3330000000001 239.998H186.667C177.83 239.998 170.667 247.161 170.667 255.998zM102.4 119.465C102.4 128.301 109.563 135.465 118.4 135.465H425.6C434.437 135.465 441.6 128.301 441.6 119.465C441.6 110.628 434.437 103.465 425.6 103.465H118.4C109.563 103.465 102.4 110.628 102.4 119.465z" />
    <glyph glyph-name="align-text-justify"
      unicode="&#xEA22;"
      horiz-adv-x="544" d="M0 392.531C0 401.368 7.16344 408.531 16 408.531H528C536.837 408.531 544 401.368 544 392.531C544 383.695 536.837 376.531 528 376.531H16C7.16344 376.531 0 383.695 0 392.531zM0 255.998C0 264.834 7.16344 271.998 16 271.998H528C536.837 271.998 544 264.834 544 255.998C544 247.161 536.837 239.998 528 239.998H16C7.16344 239.998 0 247.161 0 255.998zM0 119.465C0 128.301 7.16344 135.465 16 135.465H528C536.837 135.465 544 128.301 544 119.465C544 110.628 536.837 103.465 528 103.465H16C7.16344 103.465 0 110.628 0 119.465z" />
    <glyph glyph-name="align-text-left"
      unicode="&#xEA23;"
      horiz-adv-x="544" d="M0 392.531C0 401.368 7.16344 408.531 16 408.531H528C536.837 408.531 544 401.368 544 392.531C544 383.695 536.837 376.531 528 376.531H16C7.16344 376.531 0 383.695 0 392.531zM0 255.998C0 264.834 7.16344 271.998 16 271.998H220.8C229.637 271.998 236.8 264.834 236.8 255.998C236.8 247.161 229.637 239.998 220.8 239.998H16C7.16344 239.998 0 247.161 0 255.998zM0 119.465C0 128.301 7.16344 135.465 16 135.465H323.2C332.037 135.465 339.2 128.301 339.2 119.465C339.2 110.628 332.037 103.465 323.2 103.465H16C7.16344 103.465 0 110.628 0 119.465z" />
    <glyph glyph-name="align-text-right"
      unicode="&#xEA24;"
      horiz-adv-x="544" d="M0 392.531C0 401.368 7.16344 408.531 16 408.531H528C536.837 408.531 544 401.368 544 392.531C544 383.695 536.837 376.531 528 376.531H16C7.16344 376.531 0 383.695 0 392.531zM307.2 255.998C307.2 264.834 314.363 271.998 323.2 271.998H528C536.837 271.998 544 264.834 544 255.998C544 247.161 536.837 239.998 528 239.998H323.2C314.363 239.998 307.2 247.161 307.2 255.998zM204.8 119.465C204.8 128.301 211.963 135.465 220.8 135.465H528C536.837 135.465 544 128.301 544 119.465C544 110.628 536.837 103.465 528 103.465H220.8C211.963 103.465 204.8 110.628 204.8 119.465z" />
    <glyph glyph-name="align-top"
      unicode="&#xEA25;"
      horiz-adv-x="544" d="M0 494.9336C0 503.77015 7.16344 510.93359 16 510.93359H528C536.837 510.93359 544 503.77015 544 494.9336C544 486.097 536.837 478.9336 528 478.9336H16C7.16344 478.9336 0 486.097 0 494.9336zM119.467 392.534C119.467 401.37 126.63 408.534 135.467 408.534H237.867C246.703 408.534 253.867 401.37 253.867 392.534V17.067C253.867 8.23 246.703 1.067 237.867 1.067H135.467C126.63 1.067 119.467 8.23 119.467 17.067V392.534zM151.467 376.534V33.067H221.867V376.534H151.467zM290.133 392.534C290.133 401.37 297.2970000000001 408.534 306.133 408.534H408.533C417.37 408.534 424.533 401.37 424.533 392.534V153.6C424.533 144.764 417.37 137.6 408.533 137.6H306.133C297.2970000000001 137.6 290.133 144.764 290.133 153.6V392.534zM322.133 376.534V169.6H392.533V376.534H322.133z" />
    <glyph glyph-name="anchor"
      unicode="&#xEA26;"
      horiz-adv-x="512" d="M256 478.9312C227.144 478.9312 203.733 455.5195 203.733 426.7061C203.733 397.894 227.143 374.485 256 374.485C284.8570000000001 374.485 308.266 397.894 308.266 426.7061C308.266 455.5195 284.855 478.9312 256 478.9312zM171.733 426.7061C171.733 473.2107 209.489 510.93115 256 510.93115C302.51 510.93115 340.266 473.2107 340.266 426.7061C340.266 385.67 310.868 351.4790000000001 272 344.003V33.942C382.374 41.763 470.535 129.872 478.367 240.152H426.666C417.83 240.152 410.666 247.315 410.666 256.152C410.666 264.9890000000001 417.83 272.152 426.666 272.152H494.933C503.77 272.152 510.933 264.9890000000001 510.933 256.152C510.933 115.432 396.786 1.377 256 1.377C115.214 1.377 1.06641 115.432 1.06641 256.152C1.06641 264.9890000000001 8.22985 272.152 17.0664 272.152H85.3331C94.1696 272.152 101.333 264.9890000000001 101.333 256.152C101.333 247.315 94.1696 240.152 85.3331 240.152H33.6326C41.4646 129.872 129.625 41.763 240 33.942V344.003C201.131 351.4790000000001 171.733 385.67 171.733 426.7061z" />
    <glyph glyph-name="angle-down"
      unicode="&#xEA27;"
      horiz-adv-x="512" d="M506.9 345C500.9 354 488.7 356.4 479.8 350.4L256 201.3L32.2 350.5C23.2 356.5 11 354.1 5.1 345.1C-0.9 336.1 1.5 324 10.5 318L245.1 161.6C248.4 159.4 252.2 158.3 255.9 158.3C259.7 158.3 263.5 159.4 266.7 161.6L501.3 318C510.4 323.9 512.9 336 506.9 345z" />
    <glyph glyph-name="angle-left"
      unicode="&#xEA28;"
      horiz-adv-x="512" d="M201.5 256L350 478.7C356 487.7 353.5 499.7 344.6 505.7C335.7000000000001 511.6 323.6 509.3 317.6 500.3L162 266.8C157.6 260.3 157.6 251.7 162 245.2L317.7 11.7C321.5 6.1 327.6 3 333.9 3C337.6 3 341.4 4.1 344.7 6.3C353.6 12.3 356.1 24.4 350.1 33.3L201.5 256z" />
    <glyph glyph-name="angle-right"
      unicode="&#xEA29;"
      horiz-adv-x="512" d="M349.7 266.8L194.5 499.5C188.6 508.4 176.5 510.8 167.6 504.9C158.7 499 156.3 486.9 162.2 478L310.2 256L162.2 34C156.3 25.1 158.7 13 167.6 7.1C170.9 4.9 174.6 3.8 178.3 3.8C184.6 3.8 190.7 6.8 194.5 12.4L349.7 245.2000000000001C354.1 251.7 354.1 260.2 349.7 266.8z" />
    <glyph glyph-name="angle-up"
      unicode="&#xEA2A;"
      horiz-adv-x="512" d="M498.8 194.7L266.7 349.4C260.2 353.7000000000001 251.7 353.7000000000001 245.2 349.4L13.2 194.7C4.3 188.8 1.9 176.8 7.8 167.9C13.7 159 25.7 156.6 34.6 162.5L256 310.1L477.3 162.6C480.6 160.4 484.3 159.4 488 159.4C494.2 159.4 500.4 162.4 504.1 168.0000000000001C510.1 176.8 507.7 188.8 498.8 194.7z" />
    <glyph glyph-name="animal"
      unicode="&#xEA2B;"
      horiz-adv-x="512" d="M509.7 324.4C509.5 357.4 496.7 389.4 474.4 413.5C483.9 442.5 482.1 474.4 469.1 502.2C467.6 505.4 464.8 507.8 461.4 508.7C457.9 509.7 426.4 516.6 359.3 476C303.8 489.1 245.5 489.1 189.9 476C122.7 516.6 91.1 509.7 87.7 508.7C84.3 507.8 81.4 505.4 80 502.2C67 474.4 65.3 442.5 74.8 413.5C52.3 389.1 39.5 356.8 39.5 323.5C39.5 199.2 119 165.2 188.3 153.6C179 138.5 174.5 120.9 175.8 103.3V92.8C108.1 76.6 85.4 103.2 63.5 129C50.8 143.9 37.7 159.3 17.1 164.1C10.6 165.6 4.1 161.6 2.6 155.1C1.1 148.6 5.1 142.1 11.6 140.6C24.4 137.6 34 126.4 45 113.4C67.4 87.0000000000001 97.7 51.4 175.7 68.0000000000001V14.3000000000001C175.7 7.6000000000001 181.1 2.2 187.8 2.2C194.5 2.2 199.9 7.6 199.9 14.3000000000001L199.9 83.2000000000001C199.9 83.3000000000001 199.9 83.5000000000001 199.9 83.6V104.1C198.6 122.8 205.7 140.9 219.4 153.8C222.8 157 224.1 161.9 222.6 166.4C221.1 170.9 217.2 174.1 212.5 174.6C138.9 183 63.6 207.4 63.6 323.4C63.6 352.8 75.8 381.3 97 401.7C100.6 405.1 101.7 410.4 99.8 415C90.7 437.6 90.5 462.9 99.1 485.6C109.7 485.3 136.1 481 181.4 452.8C184.2 451.1 187.6 450.6 190.7 451.3C245.5 465 303.5 465 358.3 451.3C361.6 450.5 364.9 451 367.6 452.8C413.2 481 439.6 485.2 450 485.6C458.6 462.9 458.4 437.6 449.3 415C447.5 410.4 448.6 405.2 452.2 401.8C473.3 381.7 485.4 353.4 485.6 324.4C485.6 206.7 410.4 183.1 336.8 175.5C332.1 175 328.1 171.8 326.6 167.3S326.3 157.9 329.8 154.6C343.7 141.6 350.8 123.3 349.3 103.4V14.5C349.3 7.8 354.7 2.4 361.4 2.4C368.1 2.4 373.5 7.8 373.5 14.5L373.5 102.5C374.9 120.9 370.5 138.9 361.2 154.2C430.3 165 509.7 198.5 509.7 324.4z" />
    <glyph glyph-name="anja"
      unicode="&#xEA2C;"
      horiz-adv-x="512" d="M255.999 495.9316C151.728 495.9316 67.1992 411.403 67.1992 307.132V16.998C67.1992 8.162 60.0358 0.998 51.1992 0.998C42.3627 0.998 35.1992 8.162 35.1992 16.998V324.198C35.1992 326.3540000000001 35.6257 328.411 36.399 330.288C47.9737 441.349 141.875 527.93164 255.999 527.93164C377.944 527.93164 476.799 429.0761 476.799 307.132V16.998C476.799 8.162 469.636 0.998 460.799 0.998C451.963 0.998 444.799 8.162 444.799 16.998V307.132C444.799 411.403 360.271 495.9316 255.999 495.9316zM358.399 442.5983C367.236 442.5983 374.399 435.4349 374.399 426.598V381.8830000000001C398.432 356.3590000000001 436.956 303.279 442.094 208.988C442.467 207.632 442.666 206.205 442.666 204.732C442.666 203.551 442.538 202.4 442.295 201.292C442.08 188.305 438.897 175.789 433.852 164.438L414.609 121.141C386.751 58.46 324.592 18.065 255.999 18.065C187.407 18.065 125.248 58.46 97.3897 121.141L79.6832 160.981C74.7976 171.973 71.5025 184.276 71.2869 197.062C70.0409 199.34 69.3326 201.953 69.3326 204.732C69.3326 208.65 70.7409 212.239 73.0789 215.021C95.067 324.075 194.863 402.336 308.518 394.759L342.399 392.5V426.598C342.399 435.4349 349.563 442.5983 358.399 442.5983zM351.201 359.843L306.39 362.8300000000001C240.196 367.243 179.467 337.701 141.405 288.998H394.118C381.267 324.107 363.604 346.66 351.201 359.843zM403.447 256.998H308.627C315.385 235.959 335.114 220.732 358.399 220.732H409.134C407.887 233.791 405.93 245.861 403.447 256.998zM408.53 188.732H358.399C317.331 188.732 283.124 218.111 275.65 256.998H236.349C228.874 218.111 194.668 188.732 153.599 188.732H104.218C105.143 183.854 106.736 178.903 108.925 173.977L126.632 134.137C149.354 83.013 200.053 50.065 255.999 50.065C311.9460000000001 50.065 362.645 83.013 385.367 134.137L404.61 177.434C406.264 181.156 407.581 184.936 408.53 188.732zM107.279 220.732H153.599C176.884 220.732 196.613 235.959 203.371 256.998H121.123C115.36 245.545 110.696 233.414 107.279 220.732zM324.266 169.532C333.102 169.532 340.266 162.368 340.266 153.532C340.266 116.418 310.179 86.332 273.066 86.332H221.866C213.029 86.332 205.866 93.495 205.866 102.332C205.866 111.168 213.029 118.332 221.866 118.332H273.066C292.506 118.332 308.266 134.091 308.266 153.532C308.266 162.368 315.429 169.532 324.266 169.532z" />
    <glyph glyph-name="anti-clockwise"
      unicode="&#xEA2D;"
      horiz-adv-x="512" d="M301.412 506.25694C307.6600000000001 500.0081 307.659 489.8774 301.4100000000001 483.6295L260.45 442.6751C380.307 440.3047000000001 476.798 342.4220000000001 476.798 222.053C476.798 100.196 377.909 1.386 255.998 1.386C134.088 1.386 35.1982 100.196 35.1982 222.053C35.1982 230.889 42.3617 238.053 51.1982 238.053C60.0348 238.053 67.1982 230.889 67.1982 222.053C67.1982 117.889 151.741 33.386 255.998 33.386C360.255 33.386 444.798 117.889 444.798 222.053C444.798 324.695 362.707 408.247 260.553 410.665L301.4100000000001 369.814C307.659 363.5660000000001 307.6600000000001 353.4360000000001 301.412 347.187C295.164 340.938 285.033 340.937 278.7850000000001 347.185L210.552 415.4074C207.551 418.408 205.865 422.478 205.865 426.7219C205.865 430.9658 207.551 435.0358 210.552 438.0365L278.7850000000001 506.25866C285.033 512.506574 295.164 512.505804 301.412 506.25694z" />
    <glyph glyph-name="appointments"
      unicode="&#xEA2E;"
      horiz-adv-x="512" d="M454.4 429.2H403.8V496.5C403.8 500.6109 402.167 504.55334 399.26 507.46015C396.353 510.36697 392.411 511.999999538064 388.3 511.999999538064C384.189 511.999999538064 380.247 510.36697 377.34 507.46015C374.433 504.55334 372.8 500.6109 372.8 496.5V429.3H139.2V496.5C139.2 498.5355 138.799 500.551 138.02 502.43159C137.241 504.31214 136.099 506.02085 134.66 507.46016C133.221 508.89946 131.512 510.04118 129.632 510.82013C127.751 511.599081 125.735 512 123.7 512C121.665 512 119.649 511.599081 117.768 510.82013C115.888 510.04118 114.179 508.89946 112.74 507.46016C111.301 506.02085 110.159 504.31214 109.38 502.43159C108.601 500.551 108.2 498.5355 108.2 496.5V429.3H57.6C44.7045 429.2630000000001 32.3493 424.117 23.2402 414.9891C14.1311 405.861 9.01053 393.496 9 380.6V49.6C9.01324 36.715 14.1378 24.361 23.2492 15.249C32.3606 6.138 44.7145 1.013 57.6 1H454.5C467.385 1.013 479.739 6.138 488.851 15.249C497.962 24.361 503.087 36.715 503.1 49.6V380.6C503.081 393.501 497.941 405.867 488.81 414.9802C479.678 424.0934 467.301 429.208 454.4 429.2zM472 49.6C471.992 44.935 470.135 40.463 466.836 37.164C463.537 33.865 459.065 32.008 454.4 32H57.6C52.9346 32.008 48.4626 33.865 45.1637 37.164C41.8648 40.463 40.0079 44.935 40 49.6V380.6C40.0079 385.265 41.8648 389.737 45.1637 393.036C48.4626 396.335 52.9346 398.192 57.6 398.2H108.2V331C108.2 328.9650000000001 108.601 326.949 109.38 325.068C110.159 323.188 111.301 321.4790000000001 112.74 320.04C114.179 318.601 115.888 317.459 117.768 316.68C119.649 315.901 121.665 315.5 123.7 315.5C125.735 315.5 127.751 315.901 129.632 316.68C131.512 317.459 133.221 318.601 134.66 320.04C136.099 321.4790000000001 137.241 323.188 138.02 325.068C138.799 326.949 139.2 328.9650000000001 139.2 331V398.2H372.8V331C372.8 326.889 374.433 322.947 377.34 320.04C380.247 317.1330000000001 384.189 315.5 388.3 315.5C392.411 315.5 396.353 317.1330000000001 399.26 320.04C402.167 322.947 403.8 326.889 403.8 331V398.2H454.4C459.065 398.192 463.537 396.335 466.836 393.036C470.135 389.737 471.992 385.265 472 380.6V49.6zM404.8 164.4H305.6C301.489 164.4 297.5470000000001 162.767 294.64 159.86C291.733 156.953 290.1 153.011 290.1 148.9C290.1 144.789 291.733 140.847 294.64 137.94C297.5470000000001 135.033 301.489 133.4 305.6 133.4H404.8C408.911 133.4 412.853 135.033 415.76 137.94C418.667 140.847 420.3 144.789 420.3 148.9C420.3 153.011 418.667 156.953 415.76 159.86C412.853 162.767 408.911 164.4 404.8 164.4zM206.4 164.4H107.2C103.089 164.4 99.1467 162.767 96.2398 159.86C93.333 156.953 91.7 153.011 91.7 148.9C91.7 144.789 93.333 140.847 96.2398 137.94C99.1467 135.033 103.089 133.4 107.2 133.4H206.4C210.511 133.4 214.453 135.033 217.36 137.94C220.267 140.847 221.9 144.789 221.9 148.9C221.9 153.011 220.267 156.953 217.36 159.86C214.453 162.767 210.511 164.4 206.4 164.4zM206.4 263.7H107.2C103.089 263.7 99.1467 262.067 96.2398 259.16C93.333 256.253 91.7 252.311 91.7 248.2C91.7 244.089 93.333 240.147 96.2398 237.24C99.1467 234.3330000000001 103.089 232.7 107.2 232.7H206.4C210.511 232.7 214.453 234.3330000000001 217.36 237.24C220.267 240.147 221.9 244.089 221.9 248.2C221.9 252.311 220.267 256.253 217.36 259.16C214.453 262.067 210.511 263.7 206.4 263.7zM404.8 263.7H305.6C301.489 263.7 297.5470000000001 262.067 294.64 259.16C291.733 256.253 290.1 252.311 290.1 248.2C290.1 244.089 291.733 240.147 294.64 237.24C297.5470000000001 234.3330000000001 301.489 232.7 305.6 232.7H404.8C408.911 232.7 412.853 234.3330000000001 415.76 237.24C418.667 240.147 420.3 244.089 420.3 248.2C420.3 252.311 418.667 256.253 415.76 259.16C412.853 262.067 408.911 263.7 404.8 263.7zM0 512H512V0H0V512z" />
    <glyph glyph-name="archive"
      unicode="&#xEA2F;"
      horiz-adv-x="512" d="M1.06641 494.9336C1.06641 503.77015 8.22985 510.93359 17.0664 510.93359H494.933C503.77 510.93359 510.933 503.77015 510.933 494.9336V358.4C510.933 349.564 503.77 342.4 494.933 342.4H476.8V51.2C476.8 23.512 454.354 1.067 426.666 1.067H85.3331C57.6452 1.067 35.1997 23.512 35.1997 51.2V342.4H17.0664C8.22985 342.4 1.06641 349.564 1.06641 358.4V494.9336zM478.933 374.4V478.9336H33.0664V374.4H478.933zM67.1997 342.4V51.2C67.1997 41.186 75.3183 33.067 85.3331 33.067H426.666C436.681 33.067 444.8 41.186 444.8 51.2V342.4H67.1997zM154.666 221.867C154.666 230.703 161.83 237.867 170.666 237.867H341.3330000000001C350.17 237.867 357.3330000000001 230.703 357.3330000000001 221.867C357.3330000000001 213.03 350.17 205.867 341.3330000000001 205.867H170.666C161.83 205.867 154.666 213.03 154.666 221.867z" />
    <glyph glyph-name="area-chart-alt"
      unicode="&#xEA30;"
      horiz-adv-x="529" d="M17.0684 528C25.9049 528 33.0684 520.83656 33.0684 512V33.067H512.002C520.838 33.067 528.002 25.903 528.002 17.067C528.002 8.23 520.838 1.067 512.002 1.067H17.0684C8.2318 1.067 1.06836 8.23 1.06836 17.067V512C1.06836 520.83656 8.2318 528 17.0684 528zM494.935 442.6667C503.772 442.6667 510.935 435.5032 510.935 426.6670000000001C510.935 347.656 493.397 284.757 465.796 241.056C438.271 197.474 399.676 171.733 358.402 171.733C335.599 171.733 316.943 183.223 301.683 197.31C286.738 211.105 273.2080000000001 229.146 260.776 245.724L260.268 246.4C247.24 263.771 235.334 279.559 222.749 291.176C210.276 302.69 199.066 308.267 187.735 308.267C163.142 308.267 141.684 290.0560000000001 125.556 253.768C109.669 218.023 101.335 169.208 101.335 119.467C101.335 110.63 94.1716 103.467 85.335 103.467C76.4985 103.467 69.335 110.63 69.335 119.467C69.335 172.125 78.0674 225.71 96.314 266.765C114.32 307.277 144.061 340.267 187.735 340.267C210.537 340.267 229.194 328.777 244.454 314.69C259.399 300.895 272.928 282.8540000000001 285.361 266.277L285.868 265.6C298.897 248.229 310.802 232.441 323.388 220.824C335.86 209.31 347.0710000000001 203.733 358.402 203.733C385.394 203.733 415.066 220.659 438.741 258.144C462.34 295.51 478.935 352.078 478.935 426.6670000000001C478.935 435.5032 486.098 442.6667 494.935 442.6667z" />
    <glyph glyph-name="area-chart"
      unicode="&#xEA31;"
      horiz-adv-x="528" d="M17.0674 528C25.9039 528 33.0674 520.83656 33.0674 512V33.067H512.001C520.837 33.067 528.001 25.903 528.001 17.067C528.001 8.23 520.837 1.067 512.001 1.067H17.0674C8.23083 1.067 1.06738 8.23 1.06738 17.067V512C1.06738 520.83656 8.23083 528 17.0674 528zM504.234 439.6864C511.424 434.5503 513.09 424.557 507.954 417.367L337.287 178.434C334.322 174.282 329.555 171.794 324.453 171.734C319.352 171.675 314.528 174.052 311.467 178.133L222.636 296.575L98.6469 110.591C93.7452 103.239 83.8113 101.252 76.4588 106.154C69.1064 111.055 67.1196 120.989 72.0212 128.342L208.555 333.142C211.435 337.462 216.233 340.116 221.423 340.26C226.614 340.405 231.552 338.021 234.667 333.867L323.952 214.82L481.914 435.9665C487.05 443.1571 497.043 444.8225 504.234 439.6864z" />
    <glyph glyph-name="arrow-down-circle"
      unicode="&#xEA32;"
      horiz-adv-x="512" d="M255.998 478.9434C132.875 478.9434 33.0645 379.1330000000001 33.0645 256.01C33.0644 132.887 132.875 33.077 255.998 33.077C379.12 33.077 478.931 132.887 478.931 256.01C478.931 379.1330000000001 379.12 478.9434 255.998 478.9434zM1.06445 256.01C1.06446 396.806 115.202 510.94337 255.998 510.94336C396.794 510.94335 510.931 396.806 510.931 256.01C510.931 115.214 396.794 1.077 255.998 1.077C115.202 1.077 1.06445 115.214 1.06445 256.01zM255.998 391.477C264.834 391.477 271.998 384.313 271.998 375.477V192.237L312.951 233.19C319.199 239.439 329.33 239.439 335.578 233.19C341.827 226.942 341.827 216.811 335.578 210.563L267.312 142.296C261.063 136.048 250.932 136.048 244.684 142.296L176.417 210.563C170.169 216.811 170.169 226.942 176.417 233.19C182.666 239.439 192.796 239.439 199.045 233.19L239.998 192.237V375.477C239.998 384.313 247.161 391.477 255.998 391.477z" />
    <glyph glyph-name="arrow-down-small"
      unicode="&#xEA33;"
      horiz-adv-x="512" d="M256.003 391.456C264.84 391.456 272.003 384.293 272.003 375.456L272.003 192.217L312.956 233.17C319.204 239.418 329.335 239.418 335.5830000000001 233.17C341.832 226.921 341.832 216.791 335.5830000000001 210.542L267.317 142.276C264.316 139.275 260.246 137.589 256.003 137.589C251.76 137.589 247.69 139.275 244.689 142.276L176.423 210.542C170.174 216.791 170.174 226.921 176.423 233.17C182.671 239.418 192.802 239.418 199.05 233.17L240.003 192.217L240.003 375.456C240.003 384.293 247.166 391.456 256.003 391.456z" />
    <glyph glyph-name="arrow-down"
      unicode="&#xEA34;"
      horiz-adv-x="512" d="M256 493.8652C264.837 493.8652 272 486.7018 272 477.8652V89.826L381.2200000000001 199.046C387.468 205.294 397.599 205.294 403.847 199.046C410.096 192.797 410.096 182.667 403.847 176.418L267.314 39.885C264.313 36.884 260.2440000000001 35.199 256 35.199C251.757 35.199 247.687 36.884 244.686 39.885L108.153 176.418C101.905 182.667 101.905 192.797 108.153 199.046C114.401 205.294 124.532 205.294 130.781 199.046L240 89.826V477.8652C240 486.7018 247.164 493.8652 256 493.8652z" />
    <glyph glyph-name="arrow-left-circle"
      unicode="&#xEA35;"
      horiz-adv-x="512" d="M255.999 478.9336C132.876 478.9336 33.0654 379.123 33.0654 256C33.0654 132.878 132.876 33.067 255.999 33.067C379.121 33.067 478.932 132.878 478.932 256C478.932 379.123 379.121 478.9336 255.999 478.9336zM1.06543 256C1.06544 396.796 115.203 510.93361 255.999 510.93359C396.795 510.93358 510.932 396.796 510.932 256C510.932 115.204 396.795 1.067 255.999 1.067C115.203 1.067 1.06542 115.204 1.06543 256zM233.179 335.581C239.428 329.332 239.428 319.202 233.179 312.953L192.226 272L375.465 272C384.302 272 391.465 264.837 391.465 256C391.465 247.164 384.302 240 375.465 240L192.226 240L233.179 199.047C239.428 192.799 239.428 182.668 233.179 176.42C226.931 170.171 216.8 170.171 210.552 176.42L142.285 244.687C139.284 247.687 137.599 251.757 137.599 256C137.599 260.2440000000001 139.284 264.313 142.285 267.314L210.552 335.581C216.8 341.829 226.931 341.829 233.179 335.581z" />
    <glyph glyph-name="arrow-left-small"
      unicode="&#xEA36;"
      horiz-adv-x="512" d="M233.182 335.576C239.43 329.328 239.43 319.197 233.182 312.949L192.229 271.996H375.468C384.305 271.996 391.468 264.833 391.468 255.996C391.468 247.159 384.305 239.996 375.468 239.996H192.229L233.182 199.043C239.43 192.795 239.43 182.664 233.182 176.416C226.934 170.167 216.803 170.167 210.555 176.416L142.288 244.682C136.039 250.931 136.039 261.0610000000001 142.288 267.31L210.555 335.576C216.803 341.825 226.934 341.825 233.182 335.576z" />
    <glyph glyph-name="arrow-left"
      unicode="&#xEA37;"
      horiz-adv-x="512" d="M85.3333 256C85.3333 267.7820000000001 94.8845 277.333 106.667 277.333H405.3330000000001C417.115 277.333 426.667 267.7820000000001 426.667 256C426.667 244.218 417.115 234.667 405.3330000000001 234.667H106.667C94.8845 234.667 85.3333 244.218 85.3333 256zM271.085 420.4183C279.416 412.0871 279.416 398.58 271.085 390.248L136.836 256L271.085 121.752C279.416 113.42 279.416 99.913 271.085 91.582C262.754 83.251 249.246 83.251 240.915 91.582L91.5816 240.915C83.2505 249.246 83.2505 262.754 91.5816 271.0850000000001L240.915 420.4183C249.246 428.7495 262.754 428.7495 271.085 420.4183z" />
    <glyph glyph-name="arrow-right-circle"
      unicode="&#xEA38;"
      horiz-adv-x="512" d="M1.06836 256.01C1.06836 396.806 115.206 510.94336 256.002 510.94336C396.798 510.94336 510.935 396.806 510.935 256.01C510.935 115.214 396.798 1.077 256.002 1.077C115.206 1.077 1.06836 115.214 1.06836 256.01zM256.002 478.9434C132.879 478.9434 33.0684 379.1330000000001 33.0684 256.01C33.0684 132.887 132.879 33.077 256.002 33.077C379.124 33.077 478.935 132.887 478.935 256.01C478.935 379.1330000000001 379.124 478.9434 256.002 478.9434zM278.8210000000001 335.5900000000001C285.07 341.839 295.2 341.839 301.449 335.5900000000001L369.715 267.324C375.964 261.075 375.964 250.945 369.715 244.6960000000001L301.449 176.43C295.2 170.181 285.07 170.181 278.8210000000001 176.43C272.573 182.678 272.573 192.809 278.8210000000001 199.057L319.774 240.01H136.535C127.698 240.01 120.535 247.173 120.535 256.01C120.535 264.847 127.698 272.01 136.535 272.01H319.774L278.8210000000001 312.963C272.573 319.211 272.573 329.342 278.8210000000001 335.5900000000001z" />
    <glyph glyph-name="arrow-right-small"
      unicode="&#xEA39;"
      horiz-adv-x="512" d="M278.819 335.576C285.067 341.825 295.198 341.825 301.4460000000001 335.576L369.713 267.31C375.961 261.0610000000001 375.961 250.931 369.713 244.682L301.4460000000001 176.416C295.198 170.167 285.067 170.167 278.819 176.416C272.57 182.664 272.57 192.795 278.819 199.043L319.771 239.996H136.532C127.696 239.996 120.532 247.159 120.532 255.996C120.532 264.833 127.696 271.996 136.532 271.996H319.771L278.819 312.949C272.57 319.197 272.57 329.328 278.819 335.576z" />
    <glyph glyph-name="arrow-right"
      unicode="&#xEA3A;"
      horiz-adv-x="512" d="M85.3333 256C85.3333 267.7820000000001 94.8845 277.333 106.667 277.333H405.3330000000001C417.115 277.333 426.667 267.7820000000001 426.667 256C426.667 244.218 417.115 234.667 405.3330000000001 234.667H106.667C94.8845 234.667 85.3333 244.218 85.3333 256zM240.915 420.4183C249.246 428.7495 262.754 428.7495 271.085 420.4183L420.418 271.0850000000001C428.749 262.754 428.749 249.246 420.418 240.915L271.085 91.582C262.754 83.251 249.246 83.251 240.915 91.582C232.584 99.913 232.584 113.42 240.915 121.752L375.163 256L240.915 390.248C232.584 398.58 232.584 412.0871 240.915 420.4183z" />
    <glyph glyph-name="arrow-up-circle"
      unicode="&#xEA3B;"
      horiz-adv-x="512" d="M256.001 478.9336C132.878 478.9336 33.0674 379.123 33.0674 256C33.0674 132.878 132.878 33.067 256.001 33.067C379.123 33.067 478.934 132.878 478.934 256C478.934 379.123 379.123 478.9336 256.001 478.9336zM1.06738 256C1.06738 396.796 115.205 510.93359 256.001 510.93359C396.7970000000001 510.9336 510.934 396.796 510.934 256C510.934 115.204 396.7970000000001 1.067 256.001 1.067C115.205 1.067 1.06739 115.204 1.06738 256zM176.42 301.447L244.687 369.714C250.935 375.962 261.066 375.962 267.314 369.714L335.581 301.447C341.829 295.199 341.829 285.068 335.581 278.82C329.3330000000001 272.5710000000001 319.202 272.5710000000001 312.954 278.82L272.001 319.773V136.534C272.001 127.697 264.837 120.534 256.001 120.534C247.164 120.534 240.001 127.697 240.001 136.534V319.773L199.048 278.82C192.799 272.5710000000001 182.669 272.5710000000001 176.42 278.82C170.172 285.068 170.172 295.199 176.42 301.447z" />
    <glyph glyph-name="arrow-up-small"
      unicode="&#xEA3C;"
      horiz-adv-x="512" d="M244.685 369.716C250.934 375.964 261.064 375.964 267.313 369.716L335.579 301.449C341.828 295.201 341.828 285.07 335.579 278.822C329.331 272.574 319.2 272.574 312.952 278.822L271.999 319.775L271.999 136.536C271.999 127.699 264.836 120.536 255.999 120.536C247.163 120.536 239.999 127.699 239.999 136.536L239.999 319.775L199.046 278.822C192.798 272.574 182.667 272.574 176.419 278.822C170.17 285.07 170.17 295.201 176.419 301.449L244.685 369.716z" />
    <glyph glyph-name="arrow-up"
      unicode="&#xEA3D;"
      horiz-adv-x="512" d="M244.686 472.1252C250.935 478.3736 261.065 478.3736 267.314 472.1252L403.847 335.592C410.096 329.344 410.096 319.213 403.847 312.964C397.599 306.716 387.468 306.716 381.2200000000001 312.964L272 422.1841V34.145C272 25.308 264.837 18.145 256 18.145C247.164 18.145 240 25.308 240 34.145V422.1841L130.781 312.964C124.532 306.716 114.401 306.716 108.153 312.964C101.905 319.213 101.905 329.344 108.153 335.592L244.686 472.1252z" />
    <glyph glyph-name="arrow"
      unicode="&#xEA3E;"
      horiz-adv-x="512" d="M17.0684 510.93359H153.602C160.073 510.93359 165.907 507.03532 168.384 501.0565C170.86 495.0777 169.491 488.1959 164.915 483.6199L107.962 426.6669L506.249 28.381C512.497 22.132 512.497 12.002 506.249 5.753C500 -0.495 489.87 -0.495 483.621 5.753L85.335 404.04L28.3821 347.087C23.8061 342.511 16.9242 341.142 10.9454 343.618C4.96663 346.0950000000001 1.06836 351.929 1.06836 358.4V494.9336C1.06836 503.77015 8.2318 510.93359 17.0684 510.93359zM74.0139 437.9732C74.0164 437.9757 74.0188 437.9782 74.0213 437.9806C74.0238 437.9831 74.0263 437.9856 74.0287 437.9881000000001L114.974 478.9336H33.0684V397.028L74.0139 437.9732z" />
    <glyph glyph-name="at"
      unicode="&#xEA3F;"
      horiz-adv-x="512" d="M1.06641 256C1.06641 396.795 115.204 510.93286 256 510.93286C396.796 510.93286 510.933 396.795 510.933 256V221.866C510.933 205.247 506.106 189.706 497.77 176.627C482.838 153.197 456.579 137.6 426.666 137.6C393.312 137.6 364.484 156.978 350.827 185.091C329.2320000000001 156.258 294.795 137.6 256 137.6C190.609 137.6 137.6 190.609 137.6 256C137.6 321.39 190.609 374.4 256 374.4C321.39 374.4 374.4 321.39 374.4 256V221.866C374.4 193 397.8 169.6 426.666 169.6C445.192 169.6 461.48 179.226 470.785 193.826C475.943 201.919 478.933 211.519 478.933 221.866V256C478.933 379.122 379.122 478.9329 256 478.9329C132.877 478.9329 33.0664 379.122 33.0664 256C33.0664 132.877 132.877 33.066 256 33.066C303.386 33.066 347.276 47.833 383.38 73.016C390.627 78.071 400.601 76.294 405.656 69.046C410.711 61.799 408.9340000000001 51.825 401.687 46.77C360.387 17.963 310.143 1.066 256 1.066C115.204 1.066 1.06641 115.204 1.06641 256zM342.4 256C342.4 303.717 303.717 342.4 256 342.4C208.282 342.4 169.6 303.717 169.6 256C169.6 208.282 208.282 169.6 256 169.6C303.717 169.6 342.4 208.282 342.4 256z" />
    <glyph glyph-name="attach"
      unicode="&#xEA40;"
      horiz-adv-x="512" d="M250.544 477.9626C271.65 499.0686 300.276 510.92578 330.125 510.92578C392.281 510.92578 442.668 460.5383 442.668 398.382C442.668 368.534 430.811 339.908 409.705 318.802L213.187 122.284C201.134 110.231 184.786 103.459 167.74 103.459C132.244 103.459 103.468 132.235 103.468 167.731C103.468 184.777 110.24 201.125 122.293 213.178L312.955 403.839C319.203 410.088 329.334 410.088 335.582 403.839C341.83 397.591 341.83 387.46 335.582 381.212L144.921 190.551L133.607 201.864L144.921 190.551C138.868 184.498 135.468 176.29 135.468 167.731C135.468 149.908 149.917 135.459 167.74 135.459C176.299 135.459 184.508 138.859 190.56 144.911L387.078 341.429C402.183 356.534 410.668 377.021 410.668 398.382C410.668 442.8652 374.608 478.9258 330.125 478.9258C308.763 478.9258 288.277 470.44 273.1720000000001 455.3351L70.7975 252.961C46.6399 228.803 33.0684 196.039 33.0684 161.875C33.0684 90.732 90.741 33.059 161.884 33.059C196.048 33.059 228.813 46.631 252.97 70.788L449.488 267.3060000000001C455.736 273.555 465.867 273.555 472.115 267.3060000000001C478.364 261.058 478.364 250.927 472.115 244.679L275.598 48.161C245.439 18.002 204.535 1.059 161.884 1.059C73.0679 1.059 1.06836 73.059 1.06836 161.875C1.06836 204.525 18.0114 245.43 48.1701 275.588L250.544 477.9626z" />
    <glyph glyph-name="attachment"
      unicode="&#xEA41;"
      horiz-adv-x="512" d="M492.1 279.5C487.5 284.1 480.1 284.1 475.5 279.5L260.3 64.2C210 13.9 128.3 13.9 78 64.2C53.7 88.5 40.2 120.9 40.2 155.4C40.2 189.8 53.6 222.2 78 246.5L293.3 461.8C324.3 492.8 378.3 492.8 409.3 461.8C441.3 429.8 441.3 377.8 409.3 345.8L193.8 130.5C180.5 117.2 157.4 117.2 144.1 130.5C137.5 137.1 133.8 146 133.8 155.4C133.8 164.8 137.5 173.6 144.1 180.3L343 378.9C347.6 383.5 347.6 390.9 343 395.5C338.4 400.1 331 400.1 326.4 395.5L127.5 196.8C116.4 185.7 110.3 171 110.3 155.4C110.3 139.8 116.4 125.0000000000001 127.5 114.0000000000001C149.6 91.9 188.2 91.9 210.4 114.0000000000001L425.9 329.2000000000001C467 370.3000000000001 467 437.2000000000001 425.9 478.3000000000001C406 498.3 379.5 509.2 351.3 509.2C323.1 509.2 296.6 498.2 276.7000000000001 478.3L61.5 263.1C32.7 234.3 16.9 196.1 16.9 155.4C16.9 114.7 32.8 76.4 61.5 47.7C91.2 18 130.2 3.2 169.2 3.2S247.2 18 276.9 47.7L492.1 263C496.7 267.5 496.7 274.9 492.1 279.5z" />
    <glyph glyph-name="audio-cable"
      unicode="&#xEA42;"
      horiz-adv-x="512" d="M256.001 527.92578C260.2440000000001 527.92578 264.314 526.24007 267.315 523.23949L301.448 489.1062C304.449 486.1056 306.134 482.0359 306.134 477.7924V252.252C325.977 245.574 340.268 226.819 340.268 204.726V102.326C340.268 74.638 317.822 52.192 290.134 52.192H272.001V16.992C272.001 8.1559999999999 264.838 0.992 256.001 0.992C247.164 0.992 240.001 8.1559999999999 240.001 16.992V52.192H221.868C194.18 52.192 171.734 74.638 171.734 102.326V204.726C171.734 226.819 186.025 245.574 205.868 252.252V477.7924C205.868 482.0359 207.553 486.1056 210.554 489.1062L244.687 523.23949C247.688 526.24007 251.758 527.92578 256.001 527.92578zM237.868 254.859H274.134V393.526H237.868V254.859zM237.868 425.526H274.134V471.165L256.001 489.2984L237.868 471.165V425.526zM272.001 84.192V85.259C272.001 94.096 264.838 101.259 256.001 101.259C247.164 101.259 240.001 94.096 240.001 85.259V84.192H221.868C211.853 84.192 203.734 92.311 203.734 102.326V204.726C203.734 214.741 211.853 222.859 221.868 222.859H290.134C300.149 222.859 308.268 214.741 308.268 204.726V102.326C308.268 92.311 300.149 84.192 290.134 84.192H272.001z" />
    <glyph glyph-name="audio-document"
      unicode="&#xEA43;"
      horiz-adv-x="512" d="M85.3326 478.9336C75.3178 478.9336 67.1992 470.815 67.1992 460.8002V51.2C67.1992 41.185 75.3178 33.067 85.3325 33.067H426.666C436.681 33.067 444.799 41.185 444.799 51.2V385.906L351.772 478.9336H85.3326zM35.1992 460.8002C35.1992 488.4881 57.6447 510.93359 85.3326 510.93359H358.399C362.643 510.93359 366.712 509.24788 369.713 506.2473L472.113 403.847C475.114 400.847 476.799 396.777 476.799 392.534V51.2C476.799 23.512 454.354 1.067 426.666 1.067H85.3325C57.6447 1.067 35.1992 23.512 35.1992 51.2V460.8002zM250.94 373.579C257.473 375.757 264.667 373.51 268.799 368L279.039 354.347C301.802 323.996 337.527 306.134 375.466 306.134C384.302 306.134 391.466 298.9700000000001 391.466 290.134C391.466 281.2970000000001 384.302 274.134 375.466 274.134C336.788 274.134 299.929 288.804 271.999 314.588V170.667C271.999 133.553 241.913 103.467 204.799 103.467C167.686 103.467 137.599 133.553 137.599 170.667C137.599 207.78 167.686 237.867 204.799 237.867C217.706 237.867 229.762 234.228 239.999 227.921V358.4C239.999 365.2870000000001 244.406 371.401 250.94 373.579zM239.999 170.667C239.999 190.107 224.24 205.867 204.799 205.867C185.359 205.867 169.599 190.107 169.599 170.667C169.599 151.227 185.359 135.467 204.799 135.467C224.24 135.467 239.999 151.227 239.999 170.667z" />
    <glyph glyph-name="award"
      unicode="&#xEA44;"
      horiz-adv-x="512" d="M256 469.3333C185.308 469.3333 128 412.0258 128 341.333C128 270.641 185.308 213.333 256 213.333C326.693 213.333 384 270.641 384 341.333C384 412.0258 326.693 469.3333 256 469.3333zM85.3335 341.333C85.3335 435.5899 161.744 512 256 512C350.257 512 426.667 435.5899 426.667 341.333C426.667 247.077 350.257 170.667 256 170.667C161.744 170.667 85.3335 247.077 85.3335 341.333zM334.048 237.041C345.728 238.591 356.452 230.379 358.002 218.699L383.815 24.139C384.893 16.019 381.225 7.999 374.379 3.502C367.532 -0.995 358.715 -1.174 351.691 3.04L256.001 60.455L160.31 3.04C153.285 -1.174 144.468 -0.995 137.621 3.503C130.774 8.001 127.108 16.022 128.186 24.142L154 218.489C155.551 230.168 166.277 238.379 177.956 236.828C189.636 235.276 197.846 224.551 196.295 212.871L176.309 62.397L245.025 103.627C251.781 107.68 260.221 107.68 266.977 103.627L335.699 62.393L315.706 213.088C314.156 224.767 322.368 235.492 334.048 237.041z" />
    <glyph glyph-name="backspace"
      unicode="&#xEA45;"
      horiz-adv-x="512" d="M141.108 436.6611000000001C144.144 440.4566 148.741 442.666 153.602 442.666H460.802C488.49 442.666 510.935 420.2206 510.935 392.533V119.466C510.935 91.778 488.49 69.333 460.802 69.333H153.602C148.741 69.333 144.144 71.542 141.108 75.338L4.57446 246.004C-0.10034 251.848 -0.10034 260.151 4.57446 265.9940000000001L141.108 436.6611000000001zM161.292 410.666L37.5584 255.999L161.292 101.333H460.802C470.816 101.333 478.935 109.451 478.935 119.466V392.533C478.935 402.5470000000001 470.816 410.666 460.802 410.666H161.292zM210.555 335.5800000000001C216.803 341.828 226.934 341.828 233.182 335.5800000000001L290.135 278.627L347.088 335.5800000000001C353.336 341.828 363.467 341.828 369.715 335.5800000000001C375.964 329.331 375.964 319.201 369.715 312.952L312.762 255.999L369.715 199.046C375.964 192.798 375.964 182.667 369.715 176.419C363.467 170.171 353.336 170.171 347.088 176.419L290.135 233.372L233.182 176.419C226.934 170.171 216.803 170.171 210.555 176.419C204.306 182.667 204.306 192.798 210.555 199.046L267.508 255.999L210.555 312.952C204.306 319.201 204.306 329.331 210.555 335.5800000000001z" />
    <glyph glyph-name="bag-alt"
      unicode="&#xEA46;"
      horiz-adv-x="512" d="M85.3325 478.9438C75.3178 478.9438 67.1992 470.8253 67.1992 460.8105V51.21C67.1992 41.196 75.3178 33.077 85.3326 33.077H426.666C436.681 33.077 444.799 41.196 444.799 51.21V460.8105C444.799 470.8253 436.681 478.9438 426.666 478.9438H85.3325zM35.1992 460.8105C35.1992 488.4984 57.6447 510.94385 85.3325 510.94385H426.666C454.354 510.94385 476.799 488.4984 476.799 460.8105V51.21C476.799 23.523 454.354 1.077 426.666 1.077H85.3326C57.6447 1.077 35.1992 23.523 35.1992 51.21V460.8105zM153.599 459.7438C162.436 459.7438 169.599 452.5804 169.599 443.7438V358.411C169.599 310.693 208.282 272.011 255.999 272.011C303.717 272.011 342.399 310.693 342.399 358.411L342.399 443.7438C342.399 452.5804 349.563 459.7438 358.399 459.7438C367.236 459.7438 374.399 452.5804 374.399 443.7438L374.399 358.411C374.399 293.02 321.39 240.01 255.999 240.01C190.609 240.01 137.599 293.02 137.599 358.411L137.599 443.7439C137.599 452.5804 144.763 459.7438 153.599 459.7438z" />
    <glyph glyph-name="bag-cart"
      unicode="&#xEA47;"
      horiz-adv-x="512" d="M457.139 169.299L440.339 298.699C429.539 347.499 398.439 375.499 361.339 375.499H359.839C354.339 427.9993 309.739 468.9993 255.439 468.9993C227.639 469.0993 200.839 458.1993 181.039 438.5993C163.839 421.5993 153.239 399.299 150.739 375.499C112.739 375.499 80.8387 347.699 71.8387 299.499L55.5387 174.299C41.7387 82.599 84.8387 42.299 169.239 42.299H342.039C420.039 42.299 466.739 87.799 457.139 169.299zM202.939 416.6993C216.839 430.4993 235.739 438.1993 255.339 438.0993C292.439 438.0993 323.139 410.899 328.439 375.499H182.039C184.339 390.999 191.639 405.499 202.939 416.6993zM342.039 73.199H169.239C102.439 73.199 75.4387 98.399 86.3387 170.099L102.439 294.799C108.639 327.799 127.939 344.699 150.739 344.699H361.339C383.139 344.699 402.339 327.499 409.839 293.499L425.739 170.499C435.139 104.899 403.739 73.199 342.039 73.199zM332.34 271.901C332.34 264.101 326.54 257.601 318.94 256.601L316.84 256.501H315.84C307.24 256.501 300.34 263.401 300.34 271.901C300.34 279.701 306.14 286.201 313.74 287.201L315.84 287.301H316.84C325.44 287.301 332.34 280.401 332.34 271.901zM211.738 271.901C211.738 264.101 205.938 257.601 198.338 256.601L196.238 256.501H195.238C186.638 256.501 179.738 263.401 179.738 271.901C179.738 279.701 185.538 286.201 193.138 287.201L195.238 287.301H196.238C204.738 287.301 211.738 280.401 211.738 271.901z" />
    <glyph glyph-name="bag-minus"
      unicode="&#xEA48;"
      horiz-adv-x="512" d="M256.002 478.9438C208.284 478.9438 169.602 440.2612000000001 169.602 392.544V375.477C169.602 366.641 162.438 359.477 153.602 359.477C144.765 359.477 137.602 366.641 137.602 375.477V392.544C137.602 457.9344 190.611 510.94385 256.002 510.94385C321.392 510.94385 374.402 457.9344 374.402 392.544V375.477C374.402 366.641 367.238 359.477 358.402 359.477C349.565 359.477 342.402 366.641 342.402 375.477V392.544C342.402 440.2612000000001 303.719 478.9438 256.002 478.9438zM115.886 308.277C106.646 308.277 98.8836 301.3300000000001 97.8632 292.146L71.3151 53.213C70.1216 42.471 78.5299 33.077 89.3375 33.077H422.666C433.473 33.077 441.882 42.471 440.688 53.213L414.14 292.146C413.1190000000001 301.3300000000001 405.3570000000001 308.277 396.117 308.277H115.886zM66.059 295.68C68.88 321.069 90.3403 340.277 115.886 340.277H396.117C421.663 340.277 443.123 321.069 445.944 295.68L472.492 56.747C475.792 27.049 452.546 1.077 422.666 1.077H89.3375C59.4575 1.077 36.2111 27.05 39.5108 56.747L66.059 295.68zM154.668 187.744C154.668 196.58 161.832 203.744 170.668 203.744H341.335C350.171 203.744 357.335 196.58 357.335 187.744C357.335 178.907 350.171 171.744 341.335 171.744H170.668C161.832 171.744 154.668 178.907 154.668 187.744z" />
    <glyph glyph-name="bag-plus"
      unicode="&#xEA49;"
      horiz-adv-x="512" d="M256.002 478.9438C208.284 478.9438 169.602 440.2612000000001 169.602 392.544V375.477C169.602 366.641 162.438 359.477 153.602 359.477C144.765 359.477 137.602 366.641 137.602 375.477V392.544C137.602 457.9344 190.611 510.94385 256.002 510.94385C321.392 510.94385 374.402 457.9344 374.402 392.544V375.477C374.402 366.641 367.238 359.477 358.402 359.477C349.565 359.477 342.402 366.641 342.402 375.477V392.544C342.402 440.2612000000001 303.719 478.9438 256.002 478.9438zM115.886 308.277C106.646 308.277 98.8836 301.3300000000001 97.8632 292.146L71.3151 53.213C70.1216 42.471 78.5299 33.077 89.3375 33.077H422.666C433.473 33.077 441.881 42.471 440.688 53.213L414.14 292.146C413.1190000000001 301.3300000000001 405.3570000000001 308.277 396.117 308.277H115.886zM66.059 295.68C68.88 321.069 90.3402 340.277 115.886 340.277H396.117C421.663 340.277 443.123 321.069 445.944 295.68L472.492 56.747C475.792 27.049 452.546 1.077 422.666 1.077H89.3375C59.4575 1.077 36.2111 27.05 39.5108 56.747L66.059 295.68zM256.002 289.077C264.838 289.077 272.002 281.914 272.002 273.077V203.744H341.335C350.171 203.744 357.335 196.58 357.335 187.744C357.335 178.907 350.171 171.744 341.335 171.744H272.002V102.41C272.002 93.574 264.838 86.41 256.002 86.41C247.165 86.41 240.002 93.574 240.002 102.41V171.744H170.668C161.832 171.744 154.668 178.907 154.668 187.744C154.668 196.58 161.832 203.744 170.668 203.744H240.002V273.077C240.002 281.914 247.165 289.077 256.002 289.077z" />
    <glyph glyph-name="bag-service-2"
      unicode="&#xEA4A;"
      horiz-adv-x="512" d="M388.2 411.9H346C342 442.9 315.8 467 283.7 467H228.6C196.6 467 170.3 442.9 166.3 411.9H124.3C79.5 411.9 43 375.5 43 330.7V256.7C43 251.3 45.7 246.3 50.2 243.3C94.1 214.3 146.1 195 200.5 187.4C208.6 186.3 216 191.3 218.2 199C223 216.3 238.2 227.9 256.2 227.9C274 227.9 289.3 216 293.7 199.1C295.5 191.9 302 187 309.2 187C309.9 187 310.7 187 311.4 187.2C366.2 194.8 418.4 214.2 462.4 243.3C466.9 246.3 469.6 251.3 469.6 256.7V330.7C469.4 375.5 433 411.9 388.2 411.9zM228.7 435H283.8C298.1 435 310.1 425.2 313.7 411.9H198.8C202.3 425.2 214.3 435 228.7 435zM437.4 265.5C402.4 243.7 361.9 228.5 319.4 221C307.7 244.6 283.4 260.1 256.1 260.1C229 260.1 204.6 244.7 192.6 221.2C150.3 228.6 110 243.8 75 265.5V330.7C75 357.8 97.2 379.9 124.4 379.9H388.2C415.3 379.9 437.4 357.8 437.4 330.7V265.5zM272.199 181.5V153.9C272.199 145.1 264.999 137.9 256.199 137.9C247.399 137.9 240.199 145.1 240.199 153.9V181.5C240.199 190.3 247.399 197.5 256.199 197.5C265.099 197.5 272.199 190.3 272.199 181.5zM469.499 179.5C469.499 179.4 469.199 176.1 468.899 171.2C467.999 159.3 466.299 138 465.899 129.7C464.699 109.7 456.899 89.3 445.099 75.1C428.699 55.3 407.699 46 379.299 46C366.099 46 311.499 46 256.899 46C202.299 46 147.699 46 134.499 46C105.999 46.1 85.0992 55.3 68.6992 75.1C56.8992 89.3 49.0992 109.7 47.8992 129.7C47.3992 137.8 45.7992 158.7 44.8992 170.7C44.4992 175.9 44.1992 179.4 44.1992 179.5C44.1992 188.3 51.3992 195.5 60.1992 195.5C68.5992 195.5 75.2992 189 75.8992 180.8C75.8992 180.8 79.1992 143.5 79.8992 131.7C80.6992 118.7 85.9992 104.5 93.3992 95.6C103.799 83 115.299 78 134.499 78C160.899 78 352.699 78 379.099 78C398.299 78 409.899 83 420.299 95.6C427.699 104.5 432.999 118.7 433.799 131.7C434.499 143.5 437.799 180.8 437.799 180.8C438.399 189 445.099 195.5 453.499 195.5C462.399 195.5 469.499 188.3 469.499 179.5z" />
    <glyph glyph-name="bag-service"
      unicode="&#xEA4B;"
      horiz-adv-x="512" d="M352.384 382.719C350.012 433.9013 307.775 474.668 256.019 474.668C202.992 474.8963 159.726 432.2258 159.171 379.216H154.833C95.8243 379.216 48 331.418 48 272.442V154.768C48 95.792 95.8243 47.994 154.833 47.994H357.167C416.176 47.994 464 95.792 464 154.768V272.442C464 331.418 416.176 379.216 357.167 379.216H352.465L352.384 382.719zM320.489 347.216V313.4940000000001L320.635 311.323C321.694 303.5130000000001 328.388 297.4940000000001 336.489 297.4940000000001C345.325 297.4940000000001 352.489 304.6570000000001 352.489 313.4940000000001V347.216H357.167C398.507 347.216 432 313.741 432 272.442V154.768C432 113.469 398.507 79.994 357.167 79.994H154.833C113.493 79.994 80 113.469 80 154.768V272.442C80 313.741 113.493 347.216 154.833 347.216H159.166L159.166 313.4940000000001L159.312 311.323C160.372 303.5130000000001 167.066 297.4940000000001 175.166 297.4940000000001C184.003 297.4940000000001 191.166 304.6570000000001 191.166 313.4940000000001V347.216H320.489zM320.48 379.216C319.926 414.3561 291.275 442.668 255.951 442.6682C221.593 442.8160000000001 193.4 416.1005 191.292 382.3210000000001L191.189 379.216H320.48z" />
    <glyph glyph-name="bag"
      unicode="&#xEA4C;"
      horiz-adv-x="512" d="M352.384 382.717C350.012 433.8993 307.775 474.6661 256.019 474.6661C202.991 474.8943 159.726 432.2233 159.171 379.213H154.833C95.8243 379.213 48 331.415 48 272.439V154.765C48 95.789 95.8243 47.991 154.833 47.991H357.167C416.176 47.991 464 95.789 464 154.765V272.439C464 331.415 416.176 379.213 357.167 379.213H352.465L352.384 382.717zM320.489 347.213V313.492L320.635 311.3210000000001C321.694 303.511 328.388 297.492 336.489 297.492C345.325 297.492 352.489 304.655 352.489 313.492V347.213H357.167C398.507 347.213 432 313.738 432 272.439V154.765C432 113.466 398.507 79.991 357.167 79.991H154.833C113.493 79.991 80 113.466 80 154.765V272.439C80 313.738 113.493 347.213 154.833 347.213H159.166L159.166 313.492L159.312 311.3210000000001C160.371 303.511 167.066 297.492 175.166 297.492C184.002 297.492 191.166 304.655 191.166 313.492V347.213H320.489zM320.48 379.213C319.926 414.3536000000001 291.275 442.6661000000001 255.95 442.6662C221.593 442.814 193.399 416.0985 191.292 382.319L191.188 379.213H320.48z" />
    <glyph glyph-name="bar-chart"
      unicode="&#xEA4D;"
      horiz-adv-x="544" d="M476.8 528C485.637 528 492.8 520.83656 492.8 512V102.4C492.8 93.563 485.637 86.4 476.8 86.4C467.963 86.4 460.8 93.563 460.8 102.4V512C460.8 520.83656 467.963 528 476.8 528zM340.267 425.6C349.103 425.6 356.267 418.437 356.267 409.6V102.4C356.267 93.563 349.103 86.4 340.267 86.4C331.43 86.4 324.267 93.563 324.267 102.4V409.6C324.267 418.437 331.43 425.6 340.267 425.6zM203.733 323.2C212.57 323.2 219.733 316.0370000000001 219.733 307.2V102.4C219.733 93.563 212.57 86.4 203.733 86.4C194.897 86.4 187.733 93.563 187.733 102.4V307.2C187.733 316.0370000000001 194.897 323.2 203.733 323.2zM67.2 220.8C76.0366 220.8 83.2 213.637 83.2 204.8V102.4C83.2 93.563 76.0366 86.4 67.2 86.4C58.3634 86.4 51.2 93.563 51.2 102.4V204.8C51.2 213.637 58.3634 220.8 67.2 220.8zM0 17.067C0 25.903 7.16344 33.067 16 33.067H528C536.837 33.067 544 25.903 544 17.067C544 8.23 536.837 1.067 528 1.067H16C7.16344 1.067 0 8.23 0 17.067z" />
    <glyph glyph-name="barcode"
      unicode="&#xEA4E;"
      horiz-adv-x="512" d="M17.0684 459.729C25.9049 459.729 33.0684 452.5656 33.0684 443.729V68.262C33.0684 59.426 25.9049 52.262 17.0684 52.262C8.2318 52.262 1.06836 59.426 1.06836 68.262V443.729C1.06836 452.5656 8.2318 459.729 17.0684 459.729zM187.735 459.729C196.572 459.729 203.735 452.5656 203.735 443.729V68.262C203.735 59.426 196.572 52.262 187.735 52.262C178.898 52.262 171.735 59.426 171.735 68.262V443.729C171.735 452.5656 178.898 459.729 187.735 459.729zM256.002 459.729C264.838 459.729 272.002 452.5656 272.002 443.729V68.262C272.002 59.426 264.838 52.262 256.002 52.262C247.165 52.262 240.002 59.426 240.002 68.262V443.729C240.002 452.5656 247.165 459.729 256.002 459.729zM358.402 459.729C367.238 459.729 374.402 452.5656 374.402 443.729V68.262C374.402 59.426 367.238 52.262 358.402 52.262C349.565 52.262 342.402 59.426 342.402 68.262V443.729C342.402 452.5656 349.565 459.729 358.402 459.729zM494.935 459.729C503.772 459.729 510.935 452.5656 510.935 443.729V68.262C510.935 59.426 503.772 52.262 494.935 52.262C486.098 52.262 478.935 59.426 478.935 68.262V443.729C478.935 452.5656 486.098 459.729 494.935 459.729z" />
    <glyph glyph-name="basket-minus"
      unicode="&#xEA4F;"
      horiz-adv-x="512" d="M230.1 508.66376C237.678 504.11739 240.135 494.2892 235.588 486.7119L147.727 340.277H364.276L276.415 486.7119C271.8690000000001 494.2892 274.326 504.11739 281.903 508.66376C289.48 513.21013 299.3090000000001 510.75309 303.855 503.1758L401.594 340.277H487.999C500.666 340.277 510.935 330.0080000000001 510.935 317.341V302.365C510.935 202.056 487.581 103.124 442.721 13.405L428.4100000000001 20.56L442.721 13.405C438.943 5.85 431.221 1.077 422.774 1.077H89.2295C80.7823 1.077 73.0602 5.85 69.2825 13.405C24.4229 103.124 1.06836 202.056 1.06836 302.365V317.341C1.06836 330.0080000000001 11.337 340.277 24.0041 340.277H110.409L208.148 503.1758C212.695 510.75309 222.523 513.21013 230.1 508.66376zM119.175 308.277H33.0684V302.365C33.0684 209.018 54.3476 116.925 95.2561 33.077H416.747C457.656 116.925 478.935 209.018 478.935 302.365V308.277H392.829C392.643 308.274 392.457 308.274 392.272 308.277H119.732C119.546 308.274 119.361 308.274 119.175 308.277zM154.668 187.744C154.668 196.58 161.832 203.744 170.668 203.744H341.335C350.1720000000001 203.744 357.335 196.58 357.335 187.744C357.335 178.907 350.1720000000001 171.744 341.335 171.744H170.668C161.832 171.744 154.668 178.907 154.668 187.744z" />
    <glyph glyph-name="basket-plus"
      unicode="&#xEA50;"
      horiz-adv-x="512" d="M230.1 508.66376C237.678 504.11739 240.135 494.2892 235.588 486.7119L147.727 340.277H364.276L276.415 486.7119C271.8690000000001 494.2892 274.326 504.11739 281.903 508.66376C289.48 513.21013 299.3090000000001 510.75309 303.855 503.1758L401.594 340.277H487.999C500.666 340.277 510.935 330.0080000000001 510.935 317.341V302.365C510.935 202.056 487.58 103.124 442.721 13.405C438.943 5.85 431.221 1.077 422.774 1.077H89.2295C80.7823 1.077 73.0602 5.85 69.2825 13.405C24.4229 103.124 1.06836 202.056 1.06836 302.365V317.341C1.06836 330.0080000000001 11.337 340.277 24.0041 340.277H110.409L208.148 503.1758C212.695 510.75309 222.523 513.21013 230.1 508.66376zM119.175 308.277H33.0684V302.365C33.0684 209.018 54.3476 116.925 95.2561 33.077H416.747C457.656 116.925 478.935 209.018 478.935 302.365V308.277H392.829C392.643 308.274 392.457 308.274 392.272 308.277H119.732C119.546 308.274 119.361 308.274 119.175 308.277zM256.002 289.077C264.838 289.077 272.002 281.914 272.002 273.077V203.744H341.335C350.1720000000001 203.744 357.335 196.58 357.335 187.744C357.335 178.907 350.1720000000001 171.744 341.335 171.744H272.002V102.411C272.002 93.574 264.838 86.411 256.002 86.411C247.165 86.411 240.002 93.574 240.002 102.411V171.744H170.668C161.832 171.744 154.668 178.907 154.668 187.744C154.668 196.58 161.832 203.744 170.668 203.744H240.002V273.077C240.002 281.914 247.165 289.077 256.002 289.077z" />
    <glyph glyph-name="basket"
      unicode="&#xEA51;"
      horiz-adv-x="512" d="M230.099 508.66376C237.677 504.11739 240.134 494.2892 235.587 486.7119L147.726 340.277H364.275L276.414 486.7119C271.868 494.2892 274.325 504.11739 281.902 508.66376C289.479 513.21013 299.308 510.75309 303.854 503.1758L401.593 340.277H487.998C500.665 340.277 510.934 330.0080000000001 510.934 317.341V302.365C510.934 202.056 487.58 103.124 442.7200000000001 13.405L428.409 20.56L442.7200000000001 13.405C438.942 5.85 431.2200000000001 1.077 422.773 1.077H89.2285C80.7813 1.077 73.0592 5.85 69.2816 13.405C24.422 103.124 1.06738 202.056 1.06738 302.365V317.341C1.06738 330.0080000000001 11.3361 340.277 24.0031 340.277H110.408L208.148 503.1758C212.694 510.75309 222.522 513.21013 230.099 508.66376zM119.174 308.277H33.0674V302.365C33.0674 209.018 54.3466 116.925 95.2551 33.077H416.746C457.655 116.925 478.934 209.018 478.934 302.365V308.277H392.828C392.642 308.274 392.456 308.274 392.271 308.277H119.731C119.545 308.274 119.36 308.274 119.174 308.277z" />
    </font>
</defs>
</svg>
